<?xml version="1.0" encoding="utf-8"?>
<!-- Generator: Adobe Illustrator 27.0.0, SVG Export Plug-In . SVG Version: 6.00 Build 0)  -->
<svg version="1.1" id="Layer_1" xmlns="http://www.w3.org/2000/svg" xmlns:xlink="http://www.w3.org/1999/xlink" x="0px" y="0px"
	 viewBox="0 0 45.6 55.7" style="enable-background:new 0 0 45.6 55.7;" xml:space="preserve">
<style type="text/css">
	.st0{fill:none;stroke:#FFFFFF;stroke-width:0.5;stroke-linecap:round;}
	.st1{fill:none;stroke:#FFFFFF;}
</style>
<g>
	<path class="st0" d="M17.8,38L17.8,38L17.8,38v-0.2v-0.1c0.1,0,0.1-0.2,0.1-0.2l0.1-0.1v-0.1l0,0c0-0.1,0-0.2,0.1-0.2h0.1l0,0h0.1
		v0.1c0,0,0,0.1,0,0.2l0,0v0.1c0,0,0,0-0.1,0.1c0,0,0,0.1-0.1,0.1c0,0.2,0,0.3-0.1,0.4c0,0,0,0,0,0.1h-0.1
		C17.8,38.1,17.8,38.1,17.8,38z"/>
	<path class="st0" d="M29.1,23.1h0.1l0,0c0.1,0,0.1-0.1,0.2-0.1l0.1-0.1h0.1c0,0,0.1,0.1,0.1,0.2c0,0,0,0.1-0.1,0.2l0,0
		c-0.1,0.1-0.1,0.2-0.2,0.2c-0.1,0.1-0.2,0.2-0.2,0.3c0,0.2-0.1,0.4-0.1,0.5c0,0.2,0,0.3-0.1,0.5L28.8,25c0,0,0,0-0.1,0
		c0,0-0.1,0-0.1,0.1c0,0,0,0-0.1,0c-0.1,0.1-0.3,0.4-0.3,0.5s0,0.1-0.1,0.2c0,0,0,0.1-0.1,0.1c0,0.1-0.1,0.1-0.1,0.2l0,0l0,0l0,0
		c0,0,0,0.1-0.1,0.1l0,0c0,0,0,0.1-0.1,0.1l0,0v0.1c0,0,0,0.1-0.1,0.1c0,0,0,0,0,0.1l-0.1,0.1c-0.1,0.1-0.1,0.1-0.2,0.2
		c0,0,0,0.1-0.1,0.1c0,0-0.1,0-0.1,0.1c0,0,0,0.1-0.1,0.1c0,0-0.1,0-0.1,0.1l0,0c-0.1,0-0.1,0.1-0.2,0.1c0,0-0.1,0-0.1,0.1l-0.1,0.1
		c0,0,0,0-0.1,0l0,0c-0.1,0.1-0.2,0.1-0.2,0.1l-0.1,0.1c0,0,0,0-0.1,0S25.9,28,25.8,28l0,0l-0.2,0.2c-0.2,0.2-0.2,0-0.4,0.2v0.1
		c0,0.1-0.1,0.1-0.2,0.2l0,0l0,0v0.1c0,0,0,0,0,0.1l0,0L24.9,29l-0.1,0.1c0,0-0.2,0.1-0.2,0.2s-0.1,0.2-0.1,0.2h-0.1c0,0,0,0-0.1,0
		l0,0c-0.1,0-0.1,0.2-0.2,0.3c-0.1,0-0.1,0-0.2,0.1l0,0V30v0.1c0,0-0.1,0-0.2,0l0,0c-0.1,0.1-0.3,0.1-0.3,0.2l0,0c0,0,0,0,0,0.1
		l-0.1,0.1l0,0l-0.1,0.1c0,0,0,0-0.1,0l-0.2,0.1c-0.1,0.1-0.1,0.1-0.1,0.2s-0.2,0.2-0.2,0.2s0,0-0.1,0l0,0c0,0-0.2,0.1-0.3,0.1
		l-0.1,0.1v0.1C22,31.6,22,31.8,22,32.1c0,0.1,0,0.2,0,0.3v0.1c0,0.1-0.1,0.1-0.1,0.2c0,0.1,0,0.1-0.1,0.2c0,0-0.1,0-0.1,0.1
		s0.1,0.1,0.1,0.2c0,0.1-0.1,0.2,0,0.3c0,0.1,0.1,0.2,0,0.3c0,0-0.1,0-0.1,0.1h-0.1c0,0,0,0.1-0.1,0.1s-0.1,0.1-0.2,0.1l-0.1,0.1
		c0,0,0,0-0.1,0l-0.2,0.2c0,0,0,0.1-0.1,0.1l0,0l0,0l-0.1,0.1c-0.1,0.1-0.1,0.1-0.2,0.2l0,0h-0.1c0,0,0,0-0.1,0c0,0-0.2,0-0.3,0l0,0
		c0,0.1,0,0.1,0,0.2l0,0c-0.1,0-0.3,0.1-0.3,0.1c-0.1,0.1-0.2,0.3-0.3,0.3c-0.1,0-0.2-0.1-0.3-0.1H19c-0.1-0.1-0.2-0.2-0.3-0.1
		c0,0-0.1,0.1-0.1,0.2c0,0.1,0,0.1-0.1,0.2c-0.2,0.8-0.3,0.8-0.3,0.8s-0.1,0.4,0,0.4c0,0.1,0.1,0.1,0.1,0.2l0,0"/>
	<path class="st1" d="M26,2.1c0,0.1,0.1,0.1,0.1,0.2l0,0c0.1,0.1,0.1,0.3,0.1,0.4c0,0.1,0.1,0.1,0.1,0.2c0,0,0,0,0,0.1l0,0
		c0,0,0,0,0,0.1l0,0c0,0.1,0.1,0.3,0.1,0.4c0,0.1,0,0.2,0,0.3s0,0.1,0,0.2s0,0.1,0,0.2v0.1v0.2c0,0,0,0,0,0.1s0,0.3,0,0.4
		s0,0.2,0,0.3v0.1c0,0,0,0,0,0.1v0.1c0,0.1-0.1,0.5-0.2,0.5c0,0-0.1,0-0.1,0.1l0,0c-0.2,0.1-0.4,0-0.5,0c0,0.1,0,0.1-0.1,0.2
		l-0.1,0.1c-0.1,0-0.1,0.1-0.2,0.1c0,0,0,0.1-0.1,0.1l0,0C25,6.8,25,6.8,24.9,6.9c0,0-0.1,0.1-0.2,0.1c-0.1,0.1,0,0.1-0.1,0.2l0,0
		l0,0l-0.1,0.1c0,0,0,0.1-0.1,0.1s-0.1,0.1-0.2,0.1l0,0l0,0l-0.1,0.1l0,0c-0.1,0.1-0.3,0.1-0.4,0.1h-0.1l0,0c0,0,0,0-0.1,0
		c0,0,0,0-0.1,0s-0.2,0-0.3,0l-0.2,0.1c-0.1,0-0.3,0-0.3,0.1h-0.1c0,0-0.1,0-0.2,0c0,0,0,0-0.1,0h-0.1C22,7.9,22,8,21.9,8
		c0,0,0,0-0.1,0h-0.1c-0.1,0-0.3-0.2-0.4-0.2l0,0c0,0,0,0.1-0.1,0.1L21.3,8c0,0,0,0,0.1,0l0.1,0.1v0.1v0.1c0,0.2,0.1,0.2,0.2,0.4
		c0,0.1,0,0.5-0.1,0.6l-0.1,0.1c-0.1,0.1-0.2,0.1-0.2,0.1S21.1,9.6,21,9.6c0,0,0,0.1-0.1,0.1c-0.1,0.6-0.1,0.6-0.3,0.7
		c0,0,0,0.1-0.1,0.1c0,0-0.1,0.1-0.2,0.1s-0.1,0-0.2,0s-0.1,0.2-0.2,0.2h-0.1c-0.1,0-0.2,0.1-0.3,0c-0.1,0-0.2,0-0.3,0.1
		c0,0.1,0,0.3,0,0.4c0,0.1-0.1,0.1-0.2,0.1c0,0.1,0,0.2,0,0.3s0,0.1-0.1,0.2c0,0.1,0.1,0.2,0,0.3v0.1c0,0-0.1,0.1-0.1,0.2
		c-0.1,0.1-0.1,0.2-0.1,0.3s-0.1,0.1-0.1,0.1c-0.1,0-0.2,0.1-0.2,0.2c0,0-0.1,0-0.1,0.1c-0.3,0-0.3-0.2-0.5-0.3c-0.1,0-0.1,0-0.2,0
		S17.5,13,17.4,13s-0.1,0-0.2,0.1c-0.1,0.2,0,0.4-0.1,0.6c-0.1,0.1-0.2,0.2-0.3,0.2l0,0L16.7,14c0,0.1,0,0.2,0.1,0.3c0,0,0,0,0.1,0
		c0,0,0.1,0.1,0.1,0.2c0,0.1-0.1,0.1-0.1,0.2c0,0.2,0.1,0.3,0.1,0.4c0,0.2-0.1,0.3-0.1,0.4c0,0.1,0.1,0.3,0,0.4
		c-0.1,0-0.1,0.2-0.2,0.3c0,0.1-0.1,0.2-0.2,0.2l-0.1,0.1l-0.1,0.1l0,0c0,0.1,0,0.3,0,0.3s0,0,0,0.1v0.1l0,0c0,0.1,0,0.2-0.1,0.3
		l-0.1,0.1c0,0.1,0.1,0.4,0.1,0.5c0,0.2-0.1,0.3-0.1,0.5l0.1,0.1c0.1,0.1,0.2,0.1,0.3,0.1c0.2,0.2,0,0.4,0,0.5s0.1,0.1,0.1,0.2
		c0,0,0,0,0,0.1v0.1v0.1c0,0.1,0,0.1,0,0.2s0,0.1,0,0.2s-0.1,0.1-0.1,0.2s0,0.1,0,0.2c0,0,0,0.1-0.1,0.1v0.1c0,0,0,0.1-0.1,0.1
		c0,0,0,0,0,0.1s0,0.2-0.1,0.3c-0.1,0-0.1,0.1-0.2,0.2v0.1l-0.1,0.1c-0.1,0.1-0.1,0.3-0.1,0.4l0,0v0.1l0,0h-0.1v0.1
		c0,0.1,0.1,0.2,0.1,0.2v0.1l0,0l0,0c0,0.1,0.1,0.1,0.2,0.1l0.2,0.1v0.1c0.1,0.1,0.1,0.2,0,0.3c0,0.1-0.1,0.2-0.2,0.2h-0.1
		c-0.2,0.1-0.2-0.1-0.4,0c-0.1,0.1-0.1,0.3-0.3,0.3c0,0-0.1,0.1-0.2,0.1c0,0.1,0,0.2,0,0.2s0.1,0.1,0.1,0.2L15,24.2h-0.2
		c0,0.1,0.1,0.2,0,0.3l-0.1,0.1l0,0v0.1c0,0.1-0.1,0.1-0.1,0.2V25c0,0.1,0,0.2,0,0.3c0,0.1-0.1,0.2-0.1,0.3l-0.1,0.1l0,0l-0.1,0.1
		c0,0,0,0.1-0.1,0.1L14,26h-0.1h-0.1h-0.2c0,0,0,0-0.1,0c0,0-0.3-0.1-0.4-0.2c-0.1,0-0.1,0-0.2,0h-0.1c0,0.1,0,0.1-0.1,0.2h-0.1
		c-0.1-0.1-0.2-0.2-0.2-0.2v0.1h-0.1l-0.1-0.1l0,0l0,0c-0.1,0-0.2,0-0.3,0l-0.1,0.1c-0.1,0-0.1-0.1-0.2-0.1c-0.1,0-0.1,0.1-0.2,0.1
		h-0.1c-0.1,0-0.1,0.1-0.2,0.2v0.1c0,0,0.1,0,0.1,0.1v0.1l0,0c0.1,0,0.1,0,0.2,0.1c0.1,0,0.1,0.4,0.1,0.5s0,0.1,0,0.2l0,0
		c0,0.1,0,0.1,0,0.2v0.1c0,0.1,0,0.2,0,0.3c0,0.1,0,0.1,0,0.2v0.1v0.1c0,0.1,0,0.1-0.1,0.2c0,0.1,0,0.1,0,0.2s-0.1,0.2-0.1,0.3V29
		c0,0.1-0.1,0.1-0.1,0.1c0,0.1,0,0.2,0,0.3c0,0-0.1,0-0.1,0.1s0,0.2-0.1,0.2c0,0.1-0.1,0.1-0.1,0.2s0,0.1-0.1,0.2s-0.1,0.1-0.2,0.2
		c0,0,0,0.1-0.1,0.1c0,0.1-0.1,0.1-0.1,0.2c0,0,0,0,0,0.1c0,0,0,0.1-0.1,0.1v0.1l0,0l0,0c0,0-0.1,0-0.1,0.1s0,0.4,0,0.5
		c0,0,0,0,0,0.1v0.1l0,0c0,0.1,0,0.1,0,0.2V32c-0.1,0.1-0.1,0.2-0.2,0.3c-0.1,0.1-0.1,0.1-0.2,0.2c-0.1,0-0.1,0-0.2,0H9.5
		c0,0.1-0.1,0.1-0.2,0.2c0,0.1,0.1,0.1,0.1,0.2c0,0.1-0.1,0.1-0.1,0.2v0.1c0,0.1,0,0.2,0,0.3s0,0.2,0,0.3c0,0,0,0,0,0.1
		c0,0,0,0.1-0.1,0.1H9.1C9,34,9,34,8.9,34.1c0,0.1-0.1,0.1-0.1,0.1c0,0.1,0,0.2,0,0.3c0.8,0.8,0.8,0.9,0.7,0.9c0,0.2,0,0.3,0,0.4
		c0,0,0,0,0,0.1V36c0,0,0,0.1-0.1,0.1c0,0.1-0.1,0.1-0.1,0.2v0.1c0,0,0,0.1,0,0.2c0,0.1-0.1,0.2-0.1,0.3s0,0.1,0,0.2
		c0,0.1-0.1,0.2-0.1,0.2s0,0,0,0.1c0,0-0.1,0.1-0.2,0.1c-0.1,0-0.1,0-0.1,0.1v0.1v0.1c0,0.1,0,0.2-0.1,0.3l0,0c0,0.1,0,0.2,0,0.3
		s0,0.1-0.1,0.2c0,0.1,0,0.2-0.1,0.3l-0.2,0.2c0,0-0.1,0-0.1,0.1c-0.1,0.1-0.1,0.2-0.1,0.3c-0.1,0.1-0.2,0.1-0.3,0.2
		c0,0.1-0.1,0.2-0.1,0.2s0,0,0,0.1l0,0c0,0,0,0-0.1,0c0,0-0.1,0.1-0.2,0.1l-0.1,0.1c0,0-0.1,0-0.1,0.1c0,0,0,0.1-0.1,0.1l-0.2,0.1
		c-0.1,0,0,0.1-0.1,0.2c-0.1,0.1-0.2,0-0.3,0c0,0-0.1,0.2-0.1,0.3l0,0l-0.1,0.1c-0.1,0-0.1,0.1-0.2,0.1c0,0.1,0.1,0.2,0.1,0.3
		c-0.1,0.1-0.1,0.1-0.2,0.2c0,0.1,0,0.1,0,0.2c0,0,0,0.1-0.1,0.1l-0.1,0.1c0,0.1,0.1,0.3,0,0.5c-0.1,0-0.1,0.1-0.1,0.1
		s-0.1,0-0.1,0.1l0,0c0,0.2,0,0.4-0.1,0.6l-0.1,0.1c0,0.1,0,0.2,0,0.3l0,0c0,0,0,0,0,0.1S5.3,44,5.3,44.1c0,0.1,0,0.2,0,0.3
		s-0.1,0.1-0.1,0.2c0,0.1,0.1,0.2,0.1,0.2c0,0.1-0.2,0.2-0.2,0.3v0.1c-0.2,0.2-0.1,0.2-0.2,0.4c0,0-0.1,0-0.2,0.1v0.1
		c0,0-0.1,0-0.1,0.1s0,0.2,0,0.3l-0.1,0.1c0,0.1,0,0.2-0.1,0.2c0,0-0.1,0.3-0.2,0.3c0,0,0,0.1-0.1,0.1L4,47c-0.1,0-0.2,0-0.3,0l0,0
		c0,0-0.1,0-0.1,0.1v0.1c0,0.1,0.2,0,0.3,0c0,0,0.1,0,0.1,0.1c0,0,0,0.1,0.1,0.1c0,0,0,0,0,0.1c0.1,0.1,0.2,0.3,0.2,0.4
		c0,0,0,0.1,0,0.2c0,0.2,0,0.3-0.1,0.5c0,0.1,0,0.2,0,0.3V49c0,0.1,0,0.2,0,0.3v0.2c0,0.1-0.2,0.1-0.2,0.3c0,0.1,0,0.1,0,0.2v0.1
		v0.1c0,0-0.1,0.2-0.1,0.3s-0.1,0.1-0.1,0.1l0,0c0,0-0.1,0-0.1,0.1c0,0-0.1,0.1-0.1,0.2l0,0c-0.1,0-0.2-0.1-0.2-0.2H2.9
		c0,0.1,0,0.1,0.1,0.2c0,0.2-0.2,0.2-0.2,0.3s0,0.2,0,0.2l-0.1,0.1c0,0.1,0,0.1,0,0.2c-0.1,0.2-0.2,0.2-0.3,0.3c0,0.1,0,0.1,0,0.2
		c-0.1,0-0.1,0-0.2,0c-0.1,0.2-0.2,0.2-0.4,0.2H1.7c0,0,0,0-0.1,0l-0.1,0.1c0,0.2-0.1,0.1-0.2,0.2c0,0.1,0,0.1,0,0.2
		c0,0,0,0.1-0.1,0.1c-0.1,0.1-0.1,0.1-0.1,0.2c0,0.1,0,0.1,0,0.1v0.1"/>
	<path class="st0" d="M7.9,45.4C7.9,45.4,7.8,45.4,7.9,45.4c-0.1,0-0.2,0-0.3,0l0,0v0.1c0,0.1-0.2,0.1-0.2,0.1
		c-0.1,0-0.1-0.2-0.2-0.2c0,0,0,0.1-0.1,0.1l0,0H7c0,0,0-0.1-0.1-0.2H6.8l0,0c-0.1,0-0.1,0-0.2,0c0,0,0,0.1-0.1,0.1
		c0,0-0.1,0-0.1,0.1H6.3l0,0c-0.1,0-0.1,0-0.2-0.1c0,0,0,0-0.1,0H5.9c-0.1,0-0.1,0-0.1,0.1c-0.1,0-0.2-0.1-0.2-0.2
		c-0.1-0.2-0.1-0.1-0.2-0.4c0-0.1-0.3,0-0.3,0s0.2,0,0.3,0c0,0.2,0,0.2,0.2,0.4c0,0.1,0.1,0.2,0.2,0.2l0.1-0.1H6c0,0,0,0,0.1,0
		s0.1,0,0.2,0.1l0,0h0.1c0,0,0.1,0,0.1-0.1c0.1,0.1,0.1,0,0.1,0c0.1,0,0.1,0,0.2,0l0,0h0.1c0,0,0,0.1,0.1,0.2h0.1l0,0
		c0,0,0-0.1,0.1-0.1s0.1,0.1,0.2,0.2c0.1,0,0.2,0,0.2-0.1v-0.1l0-0.1C7.7,45.4,7.8,45.4,7.9,45.4C7.8,45.4,7.9,45.4,7.9,45.4
		L7.9,45.4L7.9,45.4C8,45.5,8,45.6,8,45.6v0.1l0,0c0-0.1,0.1-0.1,0.1-0.2l0,0v0.1v0.1v0.1h0.1l0,0v0.1l0,0c0.1,0,0.2-0.1,0.3,0
		l0.1-0.1h0.1c0,0,0,0.1,0.1,0.1c0,0,0.1,0,0.1,0.1c0.1,0,0.2,0,0.4,0l0.1-0.1L9.6,46l0,0c0,0,0,0,0.1,0s0.1,0.1,0.2,0.1
		c0,0,0.1,0,0.1-0.1v-0.1c0,0,0-0.1,0.1-0.1l0,0h0.1l0,0c0.1,0,0.1,0,0.2-0.1h0.1l0,0l0,0v0.1h0.1c0.1,0,0.1,0,0.2,0c0,0,0,0,0.1,0
		s0.1-0.1,0.2-0.1c0.1,0,0.1,0,0.1,0h0.2c0,0,0,0,0.1,0h0.1l0.1,0.1c0.1,0,0.3-0.1,0.4-0.1c0.1,0,0.1,0.1,0.2,0.2
		c0,0.1,0,0.1,0.1,0.1s0.2,0,0.3,0s0.1,0.1,0.2,0.1c0.1,0,0.1,0,0.2,0c0.1,0,0.1,0.1,0.2,0.1c0.1,0,0.2,0,0.2-0.1
		c0.1-0.1,0-0.2,0.1-0.3c0,0,0.1-0.1,0.2-0.2c0-0.1-0.1-0.2,0-0.3s0.1-0.3,0.2-0.4c0-0.1,0-0.1,0-0.2c0,0,0-0.1-0.1-0.1v-0.1l0,0
		c0.1,0,0.2-0.1,0.2-0.1c0-0.1-0.1-0.2,0-0.3V44C14,43.9,14,43.9,14,43.8c0-0.1,0.1-0.1,0.2-0.2c0,0,0-0.1,0.1-0.1l0.1-0.1
		c0.1,0,0.1,0,0.2,0c0.1,0,0.1-0.1,0.2-0.1c0.1,0,0.2,0.2,0.4,0.1c0.1,0,0.2-0.2,0.2-0.3s0-0.3,0.1-0.3s0.1,0,0.2-0.1
		c0,0,0.1,0,0.1-0.1l0.1-0.1l0,0c0.1-0.1,0.1-0.2,0.2-0.3c0.1,0,0.2,0.1,0.2,0.1c0.1-0.1,0-0.4,0.1-0.5c0,0,0,0,0.1,0h0.1
		c0.1,0,0.3-0.1,0.3-0.1c0.1-0.1,0.1-0.2,0.1-0.3c0,0,0-0.1,0.1-0.1c0-0.1,0-0.1,0.1-0.2c0-0.1,0.1-0.1,0.1-0.2c0,0,0.1-0.1,0.2-0.2
		v-0.1v-0.1c0-0.1,0-0.1,0-0.2c0-0.1,0-0.1-0.1-0.2c0-0.1-0.1-0.1-0.2-0.2c0,0,0-0.1-0.1-0.1v-0.1l0,0c0,0,0.1,0,0.1-0.1
		s0.1-0.1,0.1-0.2l0.1-0.1c0,0,0-0.1,0.1-0.1s0.1-0.1,0.2-0.1l0,0l0,0c0,0,0-0.1,0.1-0.1l0.1-0.1c0,0,0-0.1,0-0.2c0,0,0.1,0,0.1-0.1
		l0,0c0,0,0.1,0,0.1-0.1l0,0H18v-0.1c0-0.2,0.1-0.1,0.1-0.2c0-0.1,0-0.1,0-0.2v-0.1"/>
	<path class="st1" d="M26.1,2.3h0.2c0.1,0,0.1-0.1,0-0.2V2c0.1-0.1,0.1,0,0.2,0h0.1c0,0-0.1,0.1,0,0.2l0,0h0.2h0.1H27l0,0l0,0l0,0
		v0.1c0,0,0,0,0.1,0.1c0,0,0.2,0.1,0.3,0.1l0,0c0,0,0,0,0.1,0v0.1c0.1,0,0.1,0,0.1,0.1h0.1h0.1v0.1h0.1c0,0,0.1,0,0.1-0.1h0.1
		c0.1,0,0.2,0.1,0.2,0.1V2.7V2.6c0,0,0,0,0.1,0h0.1V2.5h0.1v0.1l0.1-0.1c0,0,0,0,0.1,0l0.1,0.1l0,0c0,0,0,0,0.1,0c0,0,0-0.1,0.1-0.2
		l0,0v0.1c0,0,0,0,0.1,0h0.1c0.1,0,0.1,0.1,0.1,0.1h0.1l0,0c0,0,0,0,0-0.1l0.1-0.1l0,0l0,0h0.1h0.1c0,0,0,0,0.1,0H30l0.1-0.1
		c0,0,0.1-0.1,0.2-0.1h0.1c0,0,0,0.1,0.1,0.1l0,0l0.1,0.1c0,0,0.1,0,0.1,0.1h0.1c0.1,0,0.1,0.1,0.1,0.1c0.1,0,0.3,0,0.4,0
		c0,0.1,0.2,0.2,0.2,0.2h0.1V2.7c0,0,0,0,0-0.1l0.2-0.1c0,0,0.1-0.1,0.2-0.1h0.1c0.1,0.1,0.2,0,0.2,0l0,0c0,0,0.1,0,0.1,0.1
		c0.1,0,0.1,0.1,0.2,0.1h0.1c0.1,0,0.1,0,0.2,0.1l0,0l0,0V2.6H33c0,0,0.1,0,0.2,0l0,0c0-0.1,0-0.1,0-0.2h0.1l0.1-0.1
		c0.1,0,0.1,0.1,0.2,0.1c0.1,0,0.2,0,0.2,0.1h0.1v0.1c0.1,0,0.1-0.1,0.3-0.1l0.1,0.1l0.2-0.1c0,0,0,0.1,0.1,0.1l0,0
		c0.1-0.1,0.1-0.1,0.2-0.1c0.1-0.1,0-0.1,0.1-0.2L35,2.2V2.1V2l0.1-0.1c0-0.1-0.1-0.1-0.1-0.2c0,0,0-0.1-0.1-0.2
		c0-0.1,0-0.1,0.1-0.2V1.2l0.1-0.1V1c0.1-0.1,0.3-0.1,0.4-0.1c0.3,0,0.2,0,0.5,0.1l0,0c0.1,0.1,0.1,0.2,0.2,0.3v0.1v0.1
		c0,0.1,0.1,0.1,0.1,0.2c0.2,0.3,0.3,0.4,0.6,0.6L37,2.4l0.1,0.1c0.1,0,0.2,0.1,0.2,0.1c0.1,0,0.2-0.1,0.3-0.1s0.4,0.3,0.5,0.4
		c0,0,0,0.1,0.1,0.1l0.1,0.1c0,0,0.1,0,0.1-0.1l0.2-0.2l0.1-0.1c0.1-0.1,0.3-0.2,0.4-0.3c0.1,0,0.1,0,0.2-0.1c0,0,0,0,0,0.1
		c0,0.2,0,0.2-0.1,0.4v0.1c0,0,0,0.4,0,0.5s-0.1,0.2-0.1,0.3L39,3.8c-0.1,0-0.4,0-0.5,0h-0.1l0,0V3.7c0-0.1,0-0.1,0-0.2
		c0-0.1-0.2-0.2-0.3-0.2c0.6,0.1,0.4,0.1,0.3,0.2v0.1c0,0,0.1,0,0.1,0.1l-0.1,0.2V4c0,0,0,0,0,0.1v0.1c0,0.1,0,0.1,0.1,0.2
		c0.1,0.2,0.3,0.3,0.3,0.6v0.1c-0.1,0.1-0.2,0.2-0.4,0.2l-0.1,0.1c-0.3,0-0.5,0.2-0.7,0.3c-0.1,0.1-0.2,0.2-0.3,0.2
		C37.1,6,36.9,6,36.7,6.1c-0.3,0.1-0.5,0.1-0.4,0.4c0.1,0.2,0,0.2,0.2,0.4l0,0h0.1c0.1,0,0.3,0,0.4-0.1c0.1,0,0.1-0.1,0.1-0.1
		s0.1,0.1,0.2,0.1c0,0,0,0,0,0.1h0.1c0.2-0.1,0.4,0,0.6,0h0.1c0,0,0.1,0,0.1-0.1c0.2-0.1,0.4-0.3,0.7-0.3c0.1,0,0.3,0.1,0.4,0.1
		c0.1,0,0.3,0,0.3,0c0,0.1,0,0.1-0.1,0.2c0,0.1,0,0.4,0,0.5l0.1,0.2c0.1,0.1,0.3,0,0.3,0.2c0,0,0,0.1,0,0.2s0,0.1,0,0.2
		c0,0,0,0.1,0.1,0.1c0,0,0.2,0.1,0.3,0.1l0,0c0,0,0.3,0.1,0.4,0.1l0.2,0.2c0,0.1,0.2,0,0.2,0h0.2l0.2,0.2c0,0.1-0.1,0.1,0,0.2l0,0
		l0.1,0.1c0,0,0,0.1,0.1,0.2c0,0,0,0,0,0.1l0,0c0-0.1,0-0.1,0.1-0.2h0.1c0,0,0.1,0,0.1,0.1v0.1c0.1,0,0.1,0,0.2,0.1h0.1
		c0.3,0,0.3,0,0.3,0.1c0,0.1,0.1,0.1,0.1,0.2c0,0.1,0,0.2,0,0.4c0,0.1,0,0.1,0,0.2c0,0.1-0.1,0.2-0.1,0.3c0,0,0,0-0.1,0.1
		c0,0,0,0-0.1,0.1L42.3,11c0,0-0.1,0.1-0.1,0.2l-0.1,0.1c0,0,0.1,0.1,0.1,0.2l0.1,0.1c0.1,0.1,0.2,0.2,0.2,0.3s0,0.1,0,0.2
		c0,0,0,0,0,0.1c0.1,0.3,0.2,0.3,0.4,0.5c0.1,0.1,0,0.3,0,0.4c0,0,0,0.1,0.1,0.2c0.1,0.2,0.1,0,0.3,0.1c0.1,0,0.1,0.1,0.2,0.1
		c0.1,0,0.2,0,0.3,0c0.2,0,0.3,0.3,0.3,0.4c0,0,0,0,0,0.1s-0.2,0.3-0.2,0.3l-0.1,0.1l-0.1,0.1c-0.1,0-0.2,0.1-0.3,0.2
		c0,0.1,0.1,0.2,0.1,0.3c0.1,0.2,0.1,0.4,0.2,0.5v0.1c0,0.1,0,0.1,0,0.2c0,0.1,0,0.2,0,0.4c0,0.1,0,0.2,0.1,0.3h0.1
		c0.1,0,0.2,0.1,0.3,0.1c0.1,0.1,0.4,0.4,0.5,0.5v0.1c-0.2,0.2-0.4,0.2-0.5,0.3c-0.1,0-0.1,0.1-0.1,0.1c-0.1,0.1-0.2,0.1-0.2,0.2
		l-0.1,0.3c0,0,0,0,0,0.1s-0.1,0.3-0.2,0.4l-0.1,0.1c-0.1,0-0.1,0.1-0.2,0.1l-0.1,0.1l0.1,0.2c0,0.1,0,0.1,0,0.2
		c-0.2,0.3-0.2,0.2-0.5,0.3c-0.1,0-0.1,0-0.2,0.1c-0.1,0.1-0.1,0.2-0.1,0.3c0,0.1-0.2,0.1-0.2,0.2c0,0,0,0.1-0.1,0.2
		s-0.3,0.2-0.4,0.2l-0.1,0.1c0,0.1-0.1,0.3-0.1,0.3c0,0.1,0.1,0.3,0.1,0.4c0,0.2-0.4,1-0.5,1h-0.3l-0.2,0.3c-0.1,0-0.4-0.1-0.5-0.2
		H40c-0.1-0.1-0.2-0.2-0.3-0.2s-0.2,0-0.3-0.1c-0.1,0-0.2-0.1-0.2-0.1c-0.1,0.2-0.2,0.3-0.3,0.4l-0.2-0.1l-0.2,0.1
		c0,0.1,0.1,0.3,0.1,0.4c-0.1,0-0.3,0-0.4,0c-0.2,0.4-0.1,0.2-0.2,0.6c-0.1,0-0.1,0.1-0.2,0.1c0,0-0.1,0-0.2,0l0,0
		c0,0-0.1,0.2-0.1,0.3c-0.1,0.1-0.3,0-0.4,0.1L37,24.2c0,0.1-0.1,0.1-0.1,0.2c-0.2,0.2-0.4,0.3-0.5,0.5c-0.1,0.1-0.1,0.3-0.2,0.4
		c-0.1,0.2-0.3,0.1-0.4,0.3c-0.1,0.2-0.4,0.7-0.4,0.8c0,0.1-0.1,0.1-0.1,0.2s0,0.1,0,0.2s-0.1,0.1-0.1,0.2l0,0
		c0.1,0.1,0.3,0,0.4,0.1l0.1,0.1c0.1,0,0.2,0.1,0.3,0.1c0.3,0.1,0.2,0.4,0.3,0.5l0.1,0.1c0.1,0,0.3,0.1,0.4,0.1c0.1,0,0.2,0,0.3,0
		s0.4,0,0.5,0.1c0,0.1,0.1,0.3,0.1,0.4c0.1,0.1,0.2,0.1,0.3,0.2c0,0,0.1,0.1,0.2,0.1c0.1,0.2,0.1,0.4,0.1,0.7c0,0-0.1,0-0.2,0.1
		c0,0-0.1,0.1-0.1,0.2l-0.1,0.1c-0.2,0.2-0.2,0.1-0.4,0.1c-0.1,0-0.2-0.1-0.2-0.1s-0.3-0.1-0.4-0.1c-0.1,0-0.2,0-0.4,0
		c-0.1,0-0.3-0.3-0.5-0.3c0,0-0.1,0-0.2,0c-0.1,0-0.2,0.1-0.3,0c-0.1,0-0.1-0.1-0.2-0.2l-0.2-0.2c-0.1,0-0.1,0-0.2,0
		c-0.1,0-0.3,0-0.4-0.1c-0.1,0-0.2-0.2-0.2-0.2s-0.1,0-0.2,0c-0.4-0.4-0.5-0.2-0.5,0l0,0h-0.1c0,0-0.1,0-0.2,0h-0.1
		c-0.1,0-0.1,0-0.1,0l0,0c-0.2,0.4-0.1,0.3-0.3,0.1c-0.1,0-0.1,0.1-0.2,0.1s-0.3-0.1-0.4-0.1c-0.1,0-0.2,0-0.2,0h-0.1l-0.1-0.1
		c0,0-0.1-0.1-0.1-0.2s0-0.4-0.2-0.4c-0.3-0.1-0.4,0.5-0.6,0.6c-0.1,0.1-0.2,0-0.3,0c0,0-0.1,0-0.1,0.1h-0.1h-0.2
		c-0.1,0.1,0,0.3-0.1,0.3c0,0-0.5,0.2-0.6,0.2h-0.1c-0.1-0.1-0.1-0.3-0.3-0.2c0,0-0.2,0-0.2,0.1c0,0-0.1,0.1-0.1,0.2l-0.2,0.1
		c0,0.1-0.1,0.1-0.1,0.2s0,0.1-0.1,0.2c0,0.1-0.1,0.4-0.2,0.5S28,30.7,28,30.8c0,0-0.1,0-0.1,0.1c-0.1,0.1-0.1,0.1-0.1,0.2
		c0,0,0,0.1-0.1,0.1S27.5,31,27.3,31c0,0-0.1,0.1-0.1,0.2s-0.1,0.2-0.1,0.3c-0.1,0.1-0.1,0.1-0.2,0.2v0.2l0,0c0,0.1,0,0.1-0.1,0.2
		l-0.1,0.5c0,0.1-0.3,0.2-0.4,0.3c0,0-0.2,0.2-0.2,0.3s0.1,0.2,0.2,0.3v0.1c0,0.1-0.2,0.5-0.2,0.6c-0.2,0.2-0.3,0.2-0.5,0.3
		l-0.1,0.1c0,0,0,0,0,0.1s-0.1,0.2-0.1,0.2c-0.1,0.1-0.3,0.2-0.3,0.2c-0.1,0.1,0.2,0.4,0.3,0.4c0.1,0,0.1,0,0.2,0s0.1,0,0.2,0.1
		c0.2,0.1,0.4-0.1,0.5-0.2h0.1c0,0,0,0,0,0.1l0.1,0.1c0,0,0.1,0.1,0.2,0.1l0.1,0.1c0,0,0,0.1,0.1,0.1l0.3,0.2c0.1,0,0.3-0.1,0.4,0
		c0.1,0,0.2,0.1,0.3,0.2c0,0,0,0,0.1,0.1c0,0,0.1,0,0.1,0.1c0.1,0.1,0.5,0.4,0.5,0.4s0.2,0.2,0.2,0.3v0.1c0.1,0.1,0.1,0.2,0,0.3
		l-0.1,0.1c0,0-0.5,0.4-0.5,0.5s-0.1,0.1-0.1,0.2L28,38.6l-0.1,0.1c-0.1,0-0.2-0.1-0.3-0.1c-0.1,0-0.2,0.1-0.4,0.2L27,38.9h-0.1
		l-0.2-0.1c-0.1,0-0.1,0-0.1,0c-0.3,0-0.2,0.2-0.3,0.2c-0.1,0-0.3,0.1-0.3,0.1h-0.1c-0.1,0-0.2,0.2-0.3,0.3l-0.1,0.1v0.1l0.1,0.1
		c0.1,0,0.1,0,0.2,0.1c0,0,0,0.2,0,0.3c0,0.2,0,0.6,0,0.7v0.1c0,0.1-0.3,0.4-0.4,0.4c-0.1,0.1-0.2,0.1-0.3,0.2c0,0-0.2,0.2-0.3,0.2
		c-0.1,0.1-0.2,0.3-0.3,0.4c-0.2,0.1-0.6,0.4-0.9,0.5c-0.1,0-0.1,0.1-0.2,0.1c-0.2,0.1-0.4,0.2-0.6,0.3c-0.3,0.2-0.7,0.4-0.8,0.7
		v0.1c0,0.1,0,0.1,0,0.2c0,0.1,0,0.2-0.1,0.2c0,0.1,0,0.2,0,0.3l0,0v0.1c-0.1,0.1-0.2,0.1-0.3,0.2l0,0c-0.1,0.1-0.1,0.1-0.2,0.2
		c-0.2,0.2-0.5,0.3-0.8,0.4c0,0-0.1,0-0.1,0.1c-0.1,0-0.2,0-0.3,0.1c-0.1,0-0.2,0.1-0.3,0.1c-0.2,0-0.4-0.3-0.7-0.1
		c-0.3,0.1-0.2,0.6-0.3,0.8c-0.1,0.1-0.3,0.2-0.4,0.2c0,0,0,0-0.1,0h-0.1c-0.1,0.1-0.2,0.2-0.3,0.2l-0.1,0.1
		c-0.1,0.1-0.2,0.1-0.3,0.2l-0.1,0.1c-0.1,0-0.4-0.1-0.5-0.2c0,0,0,0-0.1,0s-0.2,0.1-0.4,0.2c-0.1,0-0.1,0-0.2,0.1c0,0,0,0,0,0.1
		c0,0,0,0.1,0.1,0.2v0.1l0,0c0,0,0,0.1-0.1,0.1v0.1V48h0.1c0,0,0,0.1,0,0.2v0.1l0,0l0,0c0,0,0,0,0,0.1l0,0h-0.1
		c0-0.1-0.2-0.2-0.3-0.2h-0.1c0,0,0,0-0.1,0l-0.2-0.1c-0.1,0-0.1-0.1-0.1-0.2l-0.1-0.1l-0.1-0.1c0,0,0,0,0-0.1c0,0,0-0.1,0-0.2
		c0-0.1,0-0.1,0-0.1v-0.1l0,0c0,0-0.1,0-0.1-0.1L15.1,47c-0.1-0.1-0.2,0-0.3-0.1l0,0h-0.1c0,0,0,0.1-0.1,0.1v0.1
		c0,0.1,0.1,0.2,0,0.3c0,0.1-0.1,0.1-0.1,0.2v0.1c0,0,0,0-0.1,0.1c0,0,0,0.1,0,0.2c0,0,0,0-0.1,0l0,0c0,0-0.1,0.1-0.2,0.1
		c0,0.1,0,0.1,0,0.2c0,0,0,0,0,0.1c0,0,0,0.1,0,0.2c0,0.1,0,0.1,0,0.2c-0.1,0.1-0.2,0.1-0.3,0.2v0.1c0,0.1,0,0.3,0,0.4
		c0,0,0,0.2,0,0.3s0.2,0.3,0.1,0.4c0,0.1-0.1,0.3-0.1,0.4c0,0.1-0.1,0.3-0.1,0.4c0,0,0,0,0,0.1c-0.1,0.2-0.1,0.4-0.2,0.6
		c0,0.1,0,0.1,0,0.2V52v0.1v0.1c0,0.1,0.1,0.1,0.1,0.2c0,0.1-0.3,0.5-0.3,0.6c-0.1,0-0.4,0-0.4,0s0,0,0,0.1v0.1c0,0.1,0,0.6,0,0.6
		c-0.1,0-0.1,0-0.1,0c-0.1,0-0.2,0-0.3-0.1H12h-0.1c-0.2,0-0.3,0.1-0.5,0.1c-0.1,0.3-0.3,0.5-0.4,0.8l0,0l0,0
		c-0.3,0-0.5,0.1-0.8,0.1c-0.1,0-0.2,0-0.2,0c-0.1,0-0.3,0-0.4,0l-0.1,0.2c-0.2,0-0.4,0-0.5-0.1l0,0H8.9c0,0-0.1,0-0.2-0.1
		c-0.1-0.1-0.1-0.1-0.1-0.2c-0.1,0-0.1-0.1-0.2-0.1l-0.1-0.2c0,0-0.2-0.1-0.3-0.2c0-0.1-0.1-0.1-0.1-0.2c0,0,0.1-0.2,0.1-0.3
		s-0.1-0.2-0.2-0.3l0,0c-0.1,0-0.2,0.1-0.2,0.1c-0.1,0-0.2,0-0.2,0c0-0.1,0-0.1-0.1-0.2c0,0-0.1,0-0.1-0.1c-0.1,0-0.3,0.1-0.4,0.2
		l0,0c-0.2,0-0.2,0-0.4,0.1H6.3c-0.1,0-0.1,0-0.1,0.1H6.1c-0.1,0-0.1,0-0.2,0H5.8c-0.2,0.1-0.3,0.2-0.5,0l-0.1-0.1H5.1
		c-0.1,0-0.2,0-0.3,0l-0.1,0.1c-0.1,0.1,0,0.2,0,0.3H4.6c-0.1,0-0.2,0.1-0.3,0.1c-0.1-0.1-0.1-0.2-0.2-0.1c-0.1,0-0.1-0.1-0.2-0.1
		H3.8l-0.1,0.1c0,0-0.1,0-0.1,0.1c0,0-0.1,0-0.2,0l-0.1,0.1v-0.1l0,0c-0.1,0-0.1,0-0.2,0H3c-0.1,0-0.2,0-0.2,0c-0.1,0-0.2,0-0.2,0
		c-0.1,0-0.3,0-0.4,0c-0.1,0-0.3,0-0.4,0"/>
	<path class="st0" d="M13.8,26.6c0,0.4-0.2,0.7-0.3,1l-0.2-0.1h-0.2L13,27.7c0,0.1,0,0.2,0,0.2h-0.2l-0.1-0.1v-0.1l-0.1-0.1l0,0.3
		V28h-0.1l-0.1-0.1v-0.1c0,0-0.3,0-0.4,0"/>
	<path class="st0" d="M16,40.2c0,0,0.1-0.2,0.2-0.3l0.1-0.2c0,0,0-0.4,0-0.5s0-0.3,0-0.3c0.1-0.1,0.1-0.1,0.2-0.2l0.1-0.2v-0.1
		c0-0.1,0.1-0.3,0.1-0.3c0-0.1,0-0.2,0-0.3s0.1-0.2,0.1-0.3s0-0.1,0-0.2c0,0,0.1-0.1,0.1-0.2c0,0-0.1-0.1-0.1-0.2
		c0-0.1,0.1-0.3,0.2-0.4l0.1-0.1c0-0.1,0.1-0.5,0.2-0.6c0-0.2,0.2-0.2,0.3-0.3c0-0.1,0.1-0.3,0.1-0.3s0.1-0.1,0.1-0.2
		c0,0,0,0,0.1-0.1s0.1-0.2,0.2-0.4v-0.1c0-0.1,0.1-0.1,0.1-0.2c0-0.1,0-0.2,0.1-0.3c0-0.1,0.1-0.2,0.1-0.3c0.1-0.1,0.3-0.1,0.4-0.2
		l0.3-0.1c0.1,0,0.2-0.2,0.3-0.3c0-0.1,0.2-0.1,0.2,0c0.1,0.1,0.2,0,0.2-0.1c0.1-0.1-0.1-0.2-0.1-0.2h-0.3l-0.1-0.3
		c0,0,0-0.2,0.1-0.2s0.2,0.1,0.3,0.1c0.1,0,0.1,0,0.2-0.1c0.1-0.1,0.2-0.3,0.3-0.3c0.1-0.1,0.2-0.2,0.3-0.3c0.1,0,0.2-0.2,0.3-0.2
		c0.1,0,0.2-0.1,0.2-0.3s0.1-0.4,0.1-0.4s0.1-0.2,0.2-0.3s0.1-0.3,0.1-0.3S21.1,30,21,30s-0.3,0-0.3,0c-0.1,0-0.2,0-0.3-0.1
		c-0.1-0.1-0.2-0.3-0.2-0.4c-0.1,0,0-0.2,0.1-0.2s0.2,0,0.3,0c0.1,0.1,0.2,0.1,0.2,0.1s0-0.5,0.1-0.5c0.2,0,0.2-0.1,0.2-0.2
		c-0.1-0.1-0.2-0.3,0.1-0.4c0.3-0.1,0.4-0.4,0.5-0.5s0-0.4,0.2-0.4c0.1,0,0.1,0,0.1-0.1c0,0,0-0.1,0.1-0.1s0.2-0.2,0.3-0.2
		c0-0.1,0-0.2,0-0.2h0.2l0.1-0.3l-0.1,0.1c0,0,0.1-0.2,0.2-0.3c0-0.1,0.1-0.1,0.1-0.1l0.2,0.1l0.7-0.2l0.1-0.1v-0.2l0.1-0.2"/>
	<path class="st0" d="M6.7,52.7l0.1-0.2v-0.1c0,0-0.1-0.3-0.1-0.4c-0.1-0.1,0-0.4,0-0.4s0-0.1,0-0.2c0-0.1,0.1-0.2,0.1-0.2l0.1-0.1
		L7,50.9c0,0,0.1-0.1,0.2-0.1s0-0.1,0-0.1l-0.1-0.1C7,50.6,7,50.4,7,50.4s0.2,0,0.3,0l0.3,0.2l0.2-0.2c0,0,0.1-0.1,0.2-0.2
		c0.1,0,0.1-0.2,0.1-0.3s0-0.1-0.1-0.2c-0.1-0.1-0.1-0.2-0.1-0.2H8l0.2,0.1h0.2l0.1-0.1c0.1,0,0-0.1,0-0.2c0.1,0.1,0.1,0.1,0.2,0.1
		s0.1,0,0.1,0s0.1,0,0.2,0l0.1-0.1v-0.1H9H8.8c0,0-0.1,0-0.1-0.1L8.6,49v-0.1v-0.2h0.1H9h0.1l0.1-0.1v-0.2v-0.2c0,0,0.1-0.2,0.2,0
		s0.2,0.3,0.3,0.2S10,48.2,9.9,48s-0.1-0.3,0-0.4c0.1-0.1,0.2-0.2,0.3-0.3c0.1,0,0.2-0.2,0.2-0.3s0-0.3-0.1-0.3s-0.3,0-0.3,0
		s-0.1-0.3,0.1-0.4c0.2-0.2,0.3-0.3,0.3-0.4c0-0.1,0.1-0.2,0.1-0.2v-0.1h-0.1h-0.1l0,0l0,0l0,0l0,0c0,0-0.1,0-0.1,0.1l-0.1,0.1
		c0,0-0.1,0.1-0.2,0.1c-0.1,0-0.1-0.1-0.2-0.1l0,0l0,0l0,0l-0.2-0.1l-0.1,0.1c-0.1,0-0.2,0-0.3,0H9l0,0l0,0l-0.1-0.1l0,0l-0.1,0.1
		c-0.1,0-0.2,0.1-0.3,0l0,0c-0.1,0,0,0-0.1-0.1l0,0c-0.1,0-0.1,0-0.1-0.1c0,0,0-0.1,0-0.2"/>
	<path class="st0" d="M16.1,42.1c0,0,0-0.2,0.1-0.3s0.1-0.2,0.1-0.3S16,41.4,16,41.4l-0.1,0.3l-0.2,0.2c0,0-0.2,0-0.1-0.1
		c0.1-0.1,0.2-0.4,0.2-0.4s0-0.4,0.1-0.5s0.2-0.4,0.2-0.5s0-0.4,0-0.4S16,39.8,16,39.7s-0.1-0.2-0.1-0.3c0,0-0.1-0.2-0.1-0.3
		s0.1-0.2,0.1-0.3s0-0.2,0-0.3c-0.1-0.1-0.1-0.3-0.1-0.3s-0.2,0.2-0.3,0.2s-0.2-0.2-0.3-0.2c0,0-0.1-0.1,0-0.3
		c0.1-0.1,0.2-0.3,0.2-0.3l-0.1-0.3L15.2,37c0,0-0.1-0.2-0.1-0.1C15,37,14.9,37,14.9,37s-0.1,0-0.2,0l-0.2-0.1l-0.1-0.1l-0.2-0.1
		v0.1H14L13.9,37l-0.3,0.1c0,0-0.1,0-0.2,0c-0.1,0-0.2,0.1-0.2,0.1h-0.1c-0.1,0-0.2,0-0.3,0.1c-0.2,0.1-0.6,0.2-0.7,0.2L12,37.4
		h-0.1l0,0v0.2l0,0h-0.1l-0.1-0.2c-0.1,0-0.3,0.1-0.4,0.1c-0.1,0-0.1-0.1-0.2-0.1l-0.2-0.2h-0.1l-0.1-0.1l-0.1,0.1v0.2l-0.1-0.2
		h-0.1l-0.1-0.1h-0.2L10,37H9.8c-0.1,0-0.3-0.1-0.4-0.1H9.1"/>
	<path class="st0" d="M8.2,45.5c0,0,0.1-0.2,0.2-0.2c0.1,0,0.2-0.1,0.2-0.2c0-0.2,0-0.3,0-0.3s-0.1-0.1-0.2-0.1
		c-0.1,0.1-0.2,0.1-0.2,0.1S8,44.7,8,44.6c0-0.1-0.2-0.2-0.3-0.2c0,0-0.5-0.1-0.6,0c-0.1,0-0.4-0.1-0.2-0.1c0.2,0,0.3-0.1,0.3-0.2
		s-0.1-0.2-0.1-0.2v-0.2c0.1,0,0.1-0.1,0.1-0.1c-0.1,0,0-0.1,0.1-0.2c0-0.1,0.1-0.2,0.1-0.2s0.1,0.2,0.2,0.2s0.2-0.2,0.2-0.2
		s0.2,0,0.2,0.1s0,0.2,0.1,0.3c0.1,0.1,0.2,0,0.2,0.1s0.1,0.2,0.2,0.2c0.1,0,0.2,0.1,0.3,0.1c0.1,0,0.3,0,0.3,0s-0.2-0.2-0.2-0.3
		c-0.1,0-0.1-0.1,0-0.2c0-0.1,0.1-0.2,0.3-0.2s0.3,0,0.4-0.1c0.1-0.1,0.2-0.1,0.2-0.2c0.1,0,0.1-0.2,0-0.3s-0.2-0.3-0.3-0.3
		c0,0,0-0.2,0-0.3s-0.1-0.3,0-0.4c0.1-0.1,0.1-0.3,0.1-0.4c0-0.1,0.1-0.2,0.2-0.1c0.1,0,0.4,0.2,0.4,0.2l0.1-0.1
		c0-0.1,0.2-0.3,0.2-0.3s-0.2-0.2-0.3-0.2S10,40.7,10,40.7s0.1-0.2,0.2-0.2c0.2,0.1,0.2,0,0.3-0.1c0-0.1,0.3-0.2,0.3-0.1
		s0.2,0.2,0.3,0.2s0.3,0,0.3,0s0.1-0.1,0-0.2s0.2-0.2,0.2-0.1c0,0.1,0.1,0.3,0.1,0.3c0.1,0,0.3,0,0.3,0c0-0.1,0-0.3,0.1-0.3
		s0.3-0.3,0.4-0.3s0.4,0,0.4,0s0.3-0.4,0.3-0.5c0,0,0.3,0,0.4,0s0.4,0.1,0.3,0.2c-0.1,0.1-0.2,0.3-0.2,0.3v0.2
		c0,0.1-0.1,0.2-0.1,0.2s-0.3,0.2-0.3,0.3s-0.1,0.2-0.1,0.3s0,0.2,0.1,0.3s0.1,0.1,0.2,0.2c0.1,0,0,0.2-0.1,0.3L13.2,42v0.3
		c0.1,0,0.2,0.1,0.3,0.1s0.2,0.1,0.1,0.2c-0.1,0.1-0.3,0.7-0.4,0.7c0,0.1-0.1,0.3-0.1,0.5s0,0.4,0,0.4h0.2c0,0,0.1,0,0.1,0.1
		c0,0,0,0.2,0,0.3s0.2,0.1,0.2,0.1c0-0.1,0.1-0.1,0.2-0.2c0-0.1-0.1-0.1,0-0.3l0,0c0,0-0.1-0.1-0.1-0.2v-0.1
		c0.1-0.1,0.1-0.2,0.2-0.3l0.1-0.1c0.1-0.1,0.2,0,0.2-0.1c0.1-0.1,0.2-0.1,0.4-0.1c0.1,0,0.2,0.1,0.3,0.1s0.2-0.2,0.2-0.3
		s0-0.3,0.1-0.4l0,0c0.1,0,0.2-0.1,0.3-0.2c0,0,0-0.1,0.1-0.1l0,0c0.1-0.1,0.1-0.2,0.2-0.3l0,0c0.1,0,0.1,0,0.2,0.1l0,0
		c0.1-0.1,0-0.3,0-0.4c0,0,0-0.1,0.1-0.1l0,0l0,0c0,0,0,0,0.1,0l0.2-0.1h0.1l0.2,0.2c0,0,0.1,0.2,0.2,0.3S17,42,17,42l0.2-0.1
		c0,0,0.1-0.1,0.1-0.2v-0.2c0,0,0.3-0.2,0.3-0.3s0.1-0.3,0.1-0.4c0-0.1,0.2-0.2,0.2-0.2c0.1,0,0.1,0.2,0.1,0.2s0.4,0,0.4-0.1
		c0.1,0,0.3-0.1,0.3-0.2l0.5-0.4l0.4,0.4l0.1,0.4c0,0-0.1,0.2-0.2,0.3s0,0.2,0,0.2s0.2,0.2,0.2,0.3c0.1,0,0.1,0.2,0.2,0.3
		s0.2,0.5,0.2,0.5h0.2l0.1,0.1l-0.3,0.6c0,0-0.3,0.7-0.4,0.7s0.4,0.3,0.5,0.3c0.1,0.1,0.4,0.2,0.4,0.2"/>
	<path class="st0" d="M30.9,9.7c0,0,0.3,0,0.4,0s0.4,0.1,0.5,0.2c0.2,0.1,0.5,0,0.6-0.1c0.1-0.1,0.3-0.1,0.4-0.1
		c0.1,0.1,0.3,0,0.3,0c0.1-0.1,0.1-0.1,0.2,0s0.3,0.1,0.4,0c0.1-0.1,0.1-0.2,0-0.3c0-0.2-0.1-0.5-0.1-0.5V8.5c0,0,0-0.1,0.3-0.1
		s0.3,0,0.4-0.1C34.4,8.2,34.4,8,34.6,8S35,7.8,35,7.7c0.1,0,0.1-0.3,0.1-0.3c0-0.1,0.3-0.1,0.3-0.2c0,0,0.2-0.1,0.2-0.2
		s0-0.3,0.1-0.3s0.5-0.3,0.5-0.3"/>
	<path class="st0" d="M16.6,16.4l0.3,0.1c0,0,0.4,0,0.5,0s0.2,0.1,0.3,0.2c0.1,0.1,0.2,0.3,0.2,0.3s0.3,0,0.5,0s0.4,0.1,0.5,0.3
		c0.1,0.1,0.5,0.1,0.5,0.1s0.2-0.1,0.4,0c0.2,0,0.3-0.3,0.4-0.3c0.1-0.1,0.3-0.1,0.5,0s0.2,0.3,0.2,0.3s0.3,0.1,0.4,0.1
		s0.1-0.1,0.1-0.2c-0.1-0.1,0.2-0.1,0.3,0c0.1,0.1,0.3,0,0.4,0s0.2,0,0.2,0s0.1,0,0.4,0.1c0.2,0.1,0.4,0.2,0.4,0.2L23,18v0.2
		l0.2,0.1l0.1,0.1v0.2h0.2l0.2-0.1l0.2,0.1l0.2-0.2h0.1l0.1-0.1V18h0.5c0,0,0.2,0,0.4,0s0.3,0.1,0.4,0.2s0.5,0.3,0.6,0.4
		c0.1,0,0.4,0.1,0.4,0.1s0.2,0,0.3,0c0.1,0,0.3,0.1,0.4,0s0.2-0.2,0.3-0.1c0.1,0,0.3,0,0.3-0.1s0.2-0.8,0.2-0.8l0.4-0.8l0.5-0.5
		l0.1-0.3l0.1-0.1v-0.1c0.1-0.1,0.1-0.3,0.3-0.4c0.2-0.1,0.3-0.5,0.5-0.5s0.3-0.2,0.4-0.3s0.4-0.4,0.4-0.4v-0.4c0,0,0.2-0.3,0.3-0.4
		c0.1-0.1,0.3-0.6,0.3-0.7c0-0.1,0.1-0.2,0.3-0.2c0.2,0,0.3-0.1,0.4-0.2c0-0.2,0-0.5,0-0.5L32,11.6l0.1-0.4c0,0-0.1-0.1-0.2-0.1
		s-0.2,0-0.3-0.2c-0.1-0.2-0.4-0.3-0.5-0.4s0-0.4,0-0.4s-0.5-1-0.6-1.1c-0.1-0.1-0.3-0.3-0.4-0.2s-0.6,0.1-0.8,0.1
		c-0.1,0-0.5-0.1-0.5-0.1c-0.1,0-0.5,0.1-0.7,0.1s-0.4,0-0.4,0.1c-0.1,0.1-0.3,0.1-0.4,0.1S26.9,9,26.8,9s-0.2,0-0.2-0.2
		s0-0.5,0-0.5s-0.1-0.6,0-0.7s0-0.1,0-0.3c0-0.1-0.2-0.3-0.3-0.2c-0.1,0.1-0.3,0.2-0.4,0.1S25.8,7,25.8,6.9s-0.2-0.1-0.2-0.2
		s-0.1-0.2-0.1-0.2"/>
	<path class="st0" d="M28.9,29.3l0.2-0.4l0.1-0.2c0,0,0.1-0.2,0.2-0.3c0,0,0.1-0.1,0.2,0s0.2,0,0.2,0l-0.1-0.2c0,0-0.1,0-0.2-0.1
		h-0.4L28.9,28l-0.3-0.2h-0.2l-0.2,0.1c0,0-0.1,0-0.2-0.1s-0.3-0.1-0.3-0.1l0.1-0.2l-0.1-0.1c0,0-0.4,0.3-0.5,0.4
		c0,0.1-0.2,0.2-0.3,0.2c-0.1,0-0.3,0.1-0.3-0.1s-0.5-1.2-0.5-1.2l-0.3-0.1l-0.7-0.1c0,0,0-0.2-0.1-0.2c-0.1-0.1-0.1-0.1-0.1-0.1
		l-0.5-0.1l-0.2-0.3l-0.4-0.1l-0.2-0.4l-0.2-0.2H23l-0.6-0.4c0,0-0.1,0-0.2-0.1c-0.2-0.1-0.3-0.2-0.4-0.3c-0.1,0-0.3-0.2-0.3-0.2
		h-0.4L21,24.2l0.3,0.2l-0.4,0.1l-0.5,0.2v0.2L20.3,25l-0.2-0.1L20,25l-0.1-0.1l-0.2-0.2c0,0-0.4,0-0.5,0.1S19,24.9,18.9,25
		c-0.1,0.1-0.2,0.1-0.3,0.1c-0.1,0-0.2,0-0.2,0c-0.1,0.1-0.2,0.1-0.3,0.1s-0.3,0.1-0.3,0.1c0,0.1-0.5,0.1-0.5,0.1l-0.1,0.1
		c0,0-0.5,0-0.6-0.1s-0.5-0.2-0.5-0.1c-0.1,0-0.3-0.1-0.4,0c-0.1,0.1-0.1,0-0.1,0.1s-0.2-0.1-0.2-0.1v-0.1l-0.3-0.1"/>
	<polyline class="st0" points="23.4,25.2 24,24.1 24.7,23.2 25.1,22.9 25.7,22.1 25.9,22.2 26.2,21.8 26.3,21.1 26.3,20.6 
		26.8,20.5 26.8,19.1 27,18.5 	"/>
</g>
</svg>
