<?xml version="1.0" encoding="utf-8"?>
<!-- Generator: Adobe Illustrator 27.0.0, SVG Export Plug-In . SVG Version: 6.00 Build 0)  -->
<svg version="1.1" id="Layer_1" xmlns="http://www.w3.org/2000/svg" xmlns:xlink="http://www.w3.org/1999/xlink" x="0px" y="0px"
	 viewBox="0 0 52 52.3" style="enable-background:new 0 0 52 52.3;" xml:space="preserve">
<style type="text/css">
	.st0{fill:none;stroke:#FFFFFF;stroke-width:0.5;stroke-linecap:round;}
	.st1{fill:none;stroke:#FFFFFF;}
</style>
<g>
	<g id="Rivers">
		<path id="path79" class="st0" d="M50,50.9L49.8,51l-0.1,0l0-0.3l-0.1-0.1l-0.1,0c-0.1,0-0.2,0.1-0.2,0.1l-0.2,0
			c0,0-0.2-0.1-0.2-0.1c0,0-0.2-0.1-0.2-0.2c0,0-0.2,0-0.2,0l-0.1,0.1c0,0,0,0-0.1,0c0,0-0.1,0.1-0.1,0.2H48l-0.3-0.3l-0.2-0.1
			c0,0-0.1,0-0.2-0.1c-0.1,0-0.2-0.1-0.3-0.2c0,0-0.2,0-0.2,0c-0.1,0-0.3,0.2-0.4,0.3l-0.2-0.1L46,50.5l-0.1,0
			c-0.1,0-0.3,0.1-0.3,0.2c0,0-0.1,0.1-0.1,0.1l0,0c-0.1,0.1-0.2,0.2-0.2,0.2c0,0-0.2,0.1-0.2,0.2l0,0c-0.1,0-0.1,0-0.2,0
			c0,0-0.2,0.2-0.2,0.2c0,0-0.2,0-0.2,0.1c0,0-0.2,0.2-0.2,0.2c0,0-0.1,0-0.1,0l-0.6-0.1"/>
	</g>
	<g id="Coastline">
		<path id="path13_1_" class="st0" d="M25.6,15.9c-0.1,0-0.1,0.1-0.3,0.1c-0.2,0-0.1,0.1-0.1,0.2c0,0.1,0,0.1-0.1,0.2
			s-0.1,0.1-0.2,0c-0.1,0-0.2,0-0.3,0.1c-0.1,0.1-0.1,0.2-0.1,0.3c0,0.2,0.2,0,0.3,0.1c0.2,0,0.4,0,0.5,0c0.1,0,0.2,0,0.3-0.1
			c0.1,0,0.2,0,0.1,0.1c0,0.1,0,0.2,0.1,0.2c0.1,0,0.2-0.1,0.2-0.3s0.1,0,0.2,0.1c0,0.1,0,0.1-0.1,0.2c-0.1,0.1,0,0.2,0,0.3
			c0,0.1,0.1,0.1,0.1,0.2c0.1,0.1,0.2,0.3,0.2,0.3s0.1,0,0.3,0c0.2,0,0.2-0.1,0.2-0.1s0.1,0.2,0.1,0.3c0,0.1,0,0.1,0,0.4
			c-0.1,0.3,0,0.2,0.1,0.2c0.1,0,0.7,0,0.7,0s0.2-0.1,0.2-0.1c0.1,0,0.3,0,0.3,0s0.2,0,0.3-0.1c0.1-0.1,0.1,0.1,0,0.3
			c-0.1,0.2-0.1,0.2,0,0.3c0.1,0.1,0.1,0.2,0.1,0.3c0,0.1,0,0.3,0.1,0.5c0.1,0.2,0,0.3-0.1,0.5c-0.1,0.1,0,0.4,0,0.5
			c0,0.1,0.1,0.3,0,0.4c-0.1,0.1,0,0.2,0,0.4c0.1,0.1,0.1,0.2,0,0.3c0,0.1,0,0.4,0,0.5c0,0.1,0.2,0.5,0.2,0.5s0.1,0.2,0,0.4
			c-0.1,0.2,0.2,0.1,0.3,0.1c0.1-0.1,0.2,0.1,0.3,0.2c0.1,0.1,0.3,0.3,0.3,0.3s0.1,0,0.2,0c0.1,0,0.2,0.1,0.3,0.1c0.1,0,0.9,0,0.9,0
			s0.3-0.1,0.4-0.2c0.1,0,0.2-0.1,0.3-0.1c0.1,0,0.2-0.2,0.2-0.3c0.1-0.1,0.3,0,0.4-0.1c0.1-0.1,0.2,0.2,0.2,0.3
			c0,0.1,0.2,0.2,0.2,0.2c0.1,0,0.2,0,0.3,0c0.1,0,0.2-0.1,0.3-0.2c0-0.1,0.3-0.1,0.4-0.1c0.1,0.1,0.3,0.1,0.3,0
			c0.1-0.1,0.2-0.1,0.3-0.1c0.1,0,0.3,0,0.3,0s0.1-0.1,0.2-0.1c0.1-0.1,0.2-0.4,0.2-0.5c0-0.1,0.1-0.4,0.1-0.7
			c0-0.3-0.1-0.5-0.1-0.6c0-0.1-0.2-0.6-0.2-0.6S34.9,21,34.8,21c-0.1-0.1-0.3-0.4-0.4-0.5c0-0.1-0.2-0.3-0.4-0.5
			c-0.2-0.1-0.4-0.1-0.4-0.1s-0.4-0.2-0.5-0.3c-0.1-0.1-0.3-0.2-0.4-0.3c0-0.1-0.2-0.4-0.4-0.5c-0.2-0.2-0.4-0.6-0.4-0.7
			c0-0.1-0.2-0.3-0.3-0.4c-0.1,0-0.3-0.1-0.4-0.2c-0.1-0.1-0.2,0-0.4,0.1c-0.1,0.1-0.1,0.1-0.1,0.3c0,0.2,0.2,0.2,0.2,0.2
			s0,0.1-0.1,0.2c-0.1,0.1-0.1,0-0.2,0c-0.2,0-0.3-0.1-0.4-0.2s-0.1-0.1-0.3-0.2s-0.2,0-0.3,0.1c-0.2,0.1-0.2,0-0.1-0.1
			c0.1-0.1,0.1-0.1,0.1-0.2c0-0.1,0-0.2,0-0.4c-0.1-0.1-0.1-0.1-0.3-0.1c-0.1,0-0.1-0.1-0.1-0.1c0-0.1-0.1-0.2-0.1-0.3
			c0-0.1-0.1-0.1-0.2-0.1c-0.2,0-0.2-0.1-0.2-0.2c0-0.1-0.1-0.2-0.1-0.2c-0.1,0-0.1-0.1-0.1-0.1s-0.1-0.1-0.3-0.2
			c-0.2-0.1-0.2-0.1-0.3-0.1c-0.1,0-0.2,0-0.2,0s-0.3-0.1-0.4-0.2c-0.1-0.1-0.2-0.1-0.4-0.3c-0.2-0.1-0.2-0.2-0.4-0.2
			c-0.1,0-0.2-0.1-0.3-0.1c-0.1-0.1-0.2-0.1-0.4-0.1c-0.1,0-0.1,0-0.2-0.1c-0.1-0.1,0-0.1-0.2-0.1c-0.2,0-0.3-0.1-0.4-0.2
			c-0.1-0.1-0.5,0.1-0.4,0.2c0.1,0.1,0.1,0.2,0,0.3c-0.1,0.1-0.1,0.3,0,0.4c0.1,0,0.3,0.1,0.4,0.2C25.3,15.8,25.3,15.8,25.6,15.9
			C25.7,15.8,25.6,15.9,25.6,15.9z"/>
	</g>
	<g id="Province_borders">
		<path id="path113" class="st0" d="M36.5,35.8c0,0-0.1-0.2-0.1-0.2c0-0.1,0-0.2,0.1-0.3c0.1-0.1,0.2-0.2,0.2-0.4c0-0.1,0-0.3,0-0.4
			c0-0.1,0.2-0.5,0.2-0.6c0-0.1,0.1-0.2,0.1-0.3c0-0.1-0.3-0.8-0.3-0.8c0-0.1-0.1-0.2,0-0.3c0-0.1,0.1-0.2,0.1-0.2s0.2-0.1,0.3-0.3
			c0.1-0.1,0.1-0.1,0.1-0.2c0-0.1,0.1-0.3,0.3-0.4c0.2-0.1,0.2-0.1,0.2-0.3c0-0.1,0.2-0.4,0.2-0.4s0.2-0.2,0.2-0.2l0.4-0.2"/>
		<path id="path115" class="st0" d="M27.2,30c0,0,0,0,0.1,0.1c0,0.1,0.2,0.1,0.2,0c0.1-0.1,0.1-0.1,0.2-0.2c0.1,0,0.3,0,0.3-0.2
			c0-0.1,0-0.2,0.1-0.2c0.1,0,0.2-0.1,0.2-0.1s0.1-0.2,0.2-0.2c0,0,0.1-0.1,0.1-0.1c0-0.1,0-0.3,0-0.4c0-0.1,0-0.2,0.1-0.1
			c0.1,0.1,0.3,0,0.4,0c0.1,0,0.2-0.1,0.3-0.1c0.1,0,0.2,0,0.3,0c0.1,0,0.1,0,0.3,0c0.1,0,0.4,0,0.4,0c0.1,0,0.2-0.1,0.4-0.1
			c0.1,0,0.3,0,0.3,0c0.1,0,0.1-0.1,0.1-0.2c0-0.1,0,0,0.2,0.1c0.1,0.1,0.2,0.1,0.3,0.1c0.1,0,0.3-0.3,0.3-0.1
			c0.1,0.1,0.1,0.2,0.3,0.1c0.1-0.1,0.3-0.2,0.4-0.2c0.1,0,0.3,0,0.4-0.1c0.1,0,0.1-0.1,0.2-0.2c0-0.1,0.1-0.1,0.2-0.2
			c0.1,0,0.2-0.1,0.2,0c0,0,0.2,0.1,0.2,0.1s0.1-0.3,0.1-0.4c0.1-0.1,0.1-0.3,0.1-0.3s0.2,0,0.2,0c0.1-0.1,0.2-0.1,0.2,0
			c0,0.1,0.1,0.2,0.1,0.2c0.1,0,0.3,0.1,0.3,0.1"/>
		<path id="path117" class="st0" d="M16,22.8c0,0,0.3,0,0.3,0c0.1,0,0.2,0,0.2,0c0.1,0,0.2,0,0.3,0s0.3,0,0.3,0s0.1-0.1,0.1-0.1
			c0,0,0.2,0,0.2,0c0,0.1,0.1,0.1,0.2,0c0.1-0.1,0-0.2,0.2-0.1c0.2,0.1,0.2,0,0.3,0c0.1,0,0.1,0,0.1,0s0-0.1,0.1-0.1
			c0,0,0-0.1,0-0.1s0.1,0.1,0.2,0.1c0.1,0.1,0.2,0.1,0.2,0.2c0,0.1,0.1,0.3,0.1,0.3c0,0,0.1,0.2,0.1,0.3c0,0.1,0,0.1,0,0.2
			c-0.1,0-0.1,0.1-0.1,0.1l0,0.1c0,0,0.1,0,0.2,0c0.1,0,0.1,0,0.1,0.1c0,0,0,0.2-0.1,0.2c-0.1,0-0.1,0-0.1,0.1c0,0.1,0,0.1,0.1,0.1
			c0.1,0,0.1,0.1,0,0.1c-0.1,0-0.1,0.1-0.1,0.2c0,0.1,0,0.2,0,0.2c-0.1,0-0.1,0.1,0,0.1c0.1,0,0.2,0,0.3,0c0.1,0,0.2,0,0.2,0
			l0.1,0.1"/>
		<path id="path119" class="st0" d="M26.6,32.1c0,0-0.1-0.8,0-0.9c0-0.1,0.1-0.2,0.2-0.3c0-0.1,0-0.1,0.1-0.1c0.1,0,0.2,0,0.2-0.1
			c0-0.1-0.1-0.4,0-0.4c0.1-0.1,0.1-0.1,0.1-0.3c0-0.2,0.1-0.3,0.1-0.4c0-0.2,0-0.3-0.1-0.4c-0.1-0.2-0.1-0.4-0.1-0.5
			c0-0.1,0-0.2,0.1-0.3c0-0.1,0-0.2,0.1-0.2c0.1-0.1,0.1-0.1,0.1-0.3c0-0.1,0.1-0.1-0.1-0.1s-0.3,0.1-0.3,0
			c-0.1-0.1-0.2-0.1-0.3-0.1c-0.1,0-0.2,0.1-0.2-0.1c0-0.1,0-0.5,0-0.5c0-0.1,0.1-0.1-0.1-0.1c-0.2,0-0.3-0.2-0.4-0.2
			c0,0-0.2-0.2-0.2-0.3c-0.1-0.1-0.1-0.1-0.1-0.2c0-0.1,0-0.2,0.1-0.3c0.1-0.1,0.1-0.1,0.1-0.2c0,0,0-0.1-0.1-0.1
			c-0.1,0-0.2-0.1-0.2-0.1c0,0,0-0.1,0-0.1c0.1-0.1,0.2-0.2,0.2-0.4c0-0.2,0-0.4,0-0.4c0-0.1-0.1-0.3-0.1-0.3S25.5,24,25.5,24
			c-0.1,0-0.4-0.1-0.4-0.1s-0.1,0-0.3,0c-0.1,0-0.3,0.1-0.4,0.2c-0.1,0.1-0.2,0.1-0.3,0.1c-0.1,0-0.2,0.1-0.5,0.1
			c-0.3,0-0.4,0.2-0.6,0.2c-0.2,0-0.4,0.2-0.4,0.3c0,0.1-0.2,0.2-0.3,0.2c-0.1,0-0.2,0.1-0.3,0.1c-0.1,0-0.3,0.1-0.3,0.1
			c-0.1,0-0.3,0.1-0.3,0.1s0,0,0-0.1c0-0.1-0.1-0.1-0.1,0c-0.1,0-0.3,0.1-0.3,0.1s-0.4,0-0.4,0c0,0-0.1,0-0.2,0
			c-0.1,0-0.1,0.1-0.2,0c-0.1,0-0.2,0-0.3,0c-0.1,0-0.2,0-0.2,0s0-0.2,0-0.3c0-0.1,0-0.1,0-0.2c0-0.1-0.1-0.1-0.2-0.2
			c-0.1,0-0.1,0.1-0.1,0.1c0,0.1-0.1,0.1-0.3,0.2c-0.2,0.1-0.1,0.1-0.2,0.2c-0.1,0.1-0.2,0.1-0.2,0.2c-0.1,0.1-0.1,0.1-0.2,0.1
			c-0.1,0-0.2,0.1-0.3,0.1c-0.1,0-0.2,0.1-0.3,0.2c-0.1,0.1-0.2,0.1-0.2,0c0-0.1,0-0.2-0.1-0.1c-0.1,0.1-0.1,0.1-0.1,0
			c0-0.1-0.1-0.3-0.1-0.3l-0.2-0.2c0,0-0.3-0.1-0.3-0.1c-0.1,0-0.2,0-0.2,0s-0.1-0.2-0.1-0.2c0-0.1-0.1-0.1-0.2-0.2
			c-0.1-0.1,0-0.2,0-0.2c0.1-0.1,0-0.2,0-0.2l-0.1-0.1c0,0-0.1,0-0.1,0.1c0,0.1-0.1,0.1-0.1,0.1l-0.1,0"/>
		<path id="path121" class="st0" d="M14.9,27.1L14.9,27.1c0-0.1,0.1-0.6,0.1-0.7c0-0.1,0-0.3-0.1-0.4c-0.1-0.1-0.1-0.1-0.1-0.2
			c0-0.1,0-0.2-0.1-0.2c-0.1-0.1-0.2-0.2-0.2-0.3c0-0.1,0.1-0.3,0.2-0.3c0.1,0,0.3,0,0.3,0s0.1-0.1,0.1-0.1c0.1-0.1,0.2-0.3,0.2-0.3
			c0.1,0,0.3,0,0.3,0s0,0.1,0.1,0.1c0.1,0,0.2-0.1,0.2-0.1s0-0.1,0-0.2c0-0.1,0-0.4,0-0.4c0-0.1,0-0.4,0-0.4s-0.1-0.1-0.1-0.2
			c-0.1,0-0.1-0.1-0.2-0.2c0-0.1-0.1-0.1-0.1-0.1s-0.2,0-0.4,0c-0.1,0-0.2,0-0.2-0.1c0-0.1-0.2-0.3-0.2-0.3s0-0.1-0.1-0.1
			c-0.1,0-0.2-0.1-0.2-0.1s-0.1,0-0.2,0c-0.1,0-0.1,0-0.2-0.1C14,22.3,14,22.2,14,22.2c0-0.1-0.1-0.2-0.1-0.2s-0.2,0-0.3,0
			c-0.1,0-0.2,0-0.3,0c-0.1,0-0.2,0-0.2,0.1c0,0.1,0,0.2-0.1,0.3c0,0.1-0.1,0.1-0.2,0.1c-0.1,0-0.3,0-0.3,0s-0.3-0.2-0.3-0.2
			l-0.2-0.1l-0.2-0.2l-0.1,0.3c0,0,0,0.2,0.1,0.3c0.1,0.1,0.1,0.1,0.1,0.3c0,0.1,0,0.4-0.1,0.5c0,0.1,0.1,0.2,0.1,0.2
			s-0.2,0.1-0.3,0.1c-0.1,0-0.1,0-0.2,0c-0.1,0-0.4-0.1-0.5-0.1c-0.1-0.1-0.1,0-0.4,0.1c-0.3,0.1-0.4,0.1-0.4,0.1S10,23.5,10,23.5
			c-0.1-0.1-0.2,0.1-0.3,0.1c-0.1,0-0.2,0-0.2,0s-0.1,0.1-0.2,0.1c-0.1,0-0.2,0-0.3-0.1c-0.1-0.1-0.2-0.1-0.2-0.1s-0.3-0.3-0.3-0.4
			c0-0.1-0.2-0.3-0.3-0.3c-0.1,0-0.2-0.1-0.3-0.2c-0.1-0.1-0.2-0.2-0.2-0.2s-0.1-0.2-0.2-0.3c-0.1-0.1-0.2-0.4-0.2-0.4l-0.8,0
			c0,0-0.2-0.1-0.2-0.1c-0.1,0-0.2-0.1-0.2-0.1s0,0.2,0,0.3c0,0.1,0.1,0.1,0.1,0.1l-0.1,0.1c0,0-0.1,0.1-0.2,0.1c-0.1,0-0.2,0-0.2,0
			s-0.1-0.1-0.1-0.2c0-0.1-0.1-0.2-0.2-0.3c-0.1-0.1-0.3-0.3-0.3-0.3L4.9,22c0,0-0.1,0.1-0.2,0.1c-0.1,0.1-0.4,0.2-0.4,0.2"/>
		<path id="path123" class="st0" d="M3.4,18.9l0.4,0c0,0,0-0.2,0-0.3c0-0.1,0.1-0.2,0.1-0.2s0.2,0,0.3,0c0.1,0,0.4,0,0.4,0l0-0.4
			c0,0,0-0.1-0.1-0.1c0-0.1,0-0.2,0.1-0.2c0.1,0,0.3-0.2,0.3-0.2h1v-0.5c0,0,0.1,0.1,0.3,0.2c0.1,0.1,0.3,0.2,0.3,0.2l0.2,0.1
			c0,0,0.1-0.2,0.2-0.1C6.9,17.2,7,17.4,7,17.4s0.2,0,0.3,0c0.1,0,0.2,0,0.3,0.1c0.1,0.1,0.2,0.1,0.2,0.1c0.1,0,0.1-0.1,0.2-0.1
			c0.1,0,0.1-0.1,0.2,0c0.1,0,0.1,0.1,0.2,0.1c0.1,0,0.1-0.1,0.1-0.2c-0.1-0.1-0.1-0.2,0-0.2c0.1,0,0.3-0.1,0.3-0.1s0.2,0,0.2-0.1
			c0.1,0,0.2,0,0.2,0c0.1,0,0.2,0,0.1,0.1c0,0.1,0,0.2,0.1,0.2c0.1,0,0.3,0.1,0.3,0.1l-0.1,0.3L9.6,18c0,0,0,0.1,0.1,0.1
			c0.1,0.1,0.3,0.1,0.4,0c0.1-0.1,0.3-0.2,0.4-0.2c0.2,0,0.3,0,0.3,0s0.1,0,0.2-0.1c0.1-0.1,0.1-0.3,0.3-0.3
			c0.2-0.1,0.4-0.1,0.4-0.1s0.2-0.1,0.3-0.2c0.1-0.1,0.1-0.1,0.2-0.2c0.1-0.1,0.1-0.3,0.1-0.3s-0.1-0.1-0.2-0.1
			c-0.1,0-0.2-0.2-0.2-0.2s-0.2-0.3-0.1-0.4c0.1-0.1,0.2-0.2,0.2-0.3c0-0.1,0-0.2,0.1-0.3c0.1-0.1,0.1-0.3,0.1-0.3L12.2,15l-1.1-0.1
			l0-0.5L11,14.3l0-0.2c0,0-0.2-0.1-0.2-0.1c-0.1,0-0.2,0-0.2,0s-0.2-0.1,0-0.2c0.1-0.1,0.5-0.3,0.5-0.3s0.2-0.1,0.3-0.2
			c0.1-0.1,0.1-0.1,0.1-0.3c0-0.1,0-0.2,0.1-0.3c0.1-0.1,0.4-0.5,0.4-0.5s0.1-0.1,0-0.3c0-0.1-0.1-0.2-0.2-0.3
			c-0.1-0.1-0.2-0.1-0.3,0c-0.1,0.1-0.1,0.3-0.2,0.3c-0.1,0-0.3,0-0.3,0s-0.1,0-0.1-0.2c0-0.2,0-0.3,0-0.3l-0.1-0.2
			c0,0-0.1-0.1-0.1-0.2s-0.1,0-0.1,0s-0.2,0.1-0.4,0.1c-0.2,0-0.3-0.1-0.3-0.1S9.6,11,9.7,10.9c0.1-0.1,0.1-0.2,0-0.3
			c-0.1-0.1-0.3-0.4-0.3-0.4s-0.1-0.1,0-0.2c0.1-0.1,0.2-0.3,0.2-0.3l0.1-0.3l0.2-0.3c0,0,0.1-0.1,0.2-0.1c0.1,0,0.3,0,0.3,0
			s0,0.1,0.1,0.1c0.1,0.1,0.2,0,0.2-0.1c0-0.1,0.1-0.1,0.1-0.1c0.1,0,0.2,0,0.2,0s-0.2-0.2-0.2-0.3c0-0.1-0.1-0.3,0-0.3
			c0.2-0.1,0.3-0.1,0.3-0.2c0-0.1-0.1-0.2,0.1-0.3c0.1-0.1,0.1-0.1,0.1-0.2c0-0.1,0-0.2-0.1-0.2c-0.1,0-0.4-0.1-0.5-0.1
			c-0.1,0-0.5-0.1-0.5-0.1s-0.2,0-0.2-0.1c0-0.1,0-0.1,0.1-0.1c0.1,0,0.2,0,0.2,0s0.1-0.1,0.1-0.2c0-0.1-0.1-0.1-0.1-0.2
			c0-0.1,0.1-0.2,0-0.2c-0.1-0.1-0.3-0.2-0.4-0.3C10,6,9.7,5.8,9.7,5.8s0.1-0.1,0-0.2c0-0.1-0.1-0.1-0.1-0.2
			C9.5,5.4,9.4,5.4,9.4,5.4c-0.1,0-0.1,0-0.2-0.1C9,5.2,8.8,5.1,8.8,5.1s-0.1-0.3,0-0.4c0.1-0.1,0-0.3,0.1-0.4C8.9,4.2,9,4.2,9,4
			C8.9,3.9,9,3.7,9,3.7"/>
		<path id="path125" class="st0" d="M16,13.1c0,0,0.3,0,0.4,0s0.2,0,0.2-0.1c0.1-0.1,0.1-0.1,0.3-0.1s0.2-0.1,0.3-0.1
			c0.1-0.1,0.1-0.1,0.3-0.1c0.1,0,0.2,0,0.2,0.1c0,0.1,0.1,0.2,0.2,0.2c0.1,0.1,0.2,0.1,0.3,0.1c0.1-0.1,0.2-0.2,0.2-0.2
			s0.1-0.1,0.3-0.1c0.1,0,0.3,0,0.3,0s0.1,0.2,0.2,0.2c0.1,0,0.1-0.1,0.2,0c0.1,0.1,0.2,0.1,0.2,0.1c0.1,0,0.3,0.1,0.3,0.1
			s0.2,0.1,0.3,0c0.1-0.1,0.3,0,0.3,0s0.2,0.1,0.3,0.1c0.1,0.1,0.3,0.2,0.4,0.1c0.1-0.1,0.2-0.1,0.3-0.1c0.1,0,0.4,0.1,0.4,0.1"/>
		<path id="path127" class="st0" d="M15.9,23.4c0,0,0.1-0.2,0.1-0.3c0-0.1,0.1-0.3,0.1-0.3s0-0.2,0-0.2c0,0,0-0.1,0.1-0.1
			c0.1,0,0.1,0,0.1-0.1c0-0.1,0-0.3,0.2-0.3c0.2,0,0.1-0.1,0-0.2c-0.1-0.1-0.1-0.1-0.2-0.2c0-0.1-0.1-0.1-0.1-0.1
			c-0.1,0-0.3,0-0.3,0.1c0,0-0.1,0-0.1-0.1c0-0.1,0-0.5,0-0.5c0,0,0.1-0.2,0.2-0.2c0.1,0,0.1-0.1,0.2,0c0.1,0,0.2,0,0.2,0h0.1
			c0,0,0-0.1,0-0.2c0-0.1,0-0.5,0-0.5c0-0.1,0.1-0.1,0.1-0.2c0,0,0.2-0.3,0.2-0.3l0.2-0.2c0,0,0.2,0,0.3,0c0.1,0,0.2-0.3,0.3-0.3
			c0.1-0.1,0.2-0.2,0.1-0.3c-0.1-0.1-0.2-0.2-0.1-0.3c0.1-0.1,0.1-0.4,0.1-0.5c0-0.1-0.1-0.5-0.1-0.6c0-0.1,0.2-0.2,0.2-0.2l0.2-0.1
			c0,0,0.1-0.1,0-0.2c-0.1-0.1,0-0.3,0-0.3s0.1-0.1,0.2-0.1c0.1,0,0.1-0.2,0.1-0.3c-0.1-0.1,0-0.3,0-0.4c0-0.1-0.1-0.3-0.2-0.4
			c-0.1-0.1-0.1-0.1-0.2-0.1c-0.1,0-0.2,0-0.3,0.1c-0.1,0.1-0.2,0.1-0.3,0.1c-0.1,0-0.2,0-0.2-0.1c-0.1-0.1-0.3-0.1-0.3-0.1
			s0-0.2,0-0.3c0-0.1-0.2-0.2-0.3-0.2c-0.1-0.1-0.2-0.2-0.3-0.2c-0.1,0-0.1,0-0.1-0.1c0-0.1,0-0.1,0.1-0.2c0.1-0.1,0.1-0.2,0-0.3
			c-0.1-0.1-0.1-0.3-0.1-0.3c0-0.1,0.1-0.3,0.1-0.4c0-0.1,0-0.1-0.1-0.3c-0.1-0.1-0.3-0.2-0.3-0.3c-0.1-0.1-0.2-0.1-0.3-0.1
			c-0.1,0-0.1,0-0.2-0.2c-0.1-0.1-0.1-0.1-0.2,0c-0.1,0-0.2,0-0.2,0l-0.2-0.1c0,0-0.1,0-0.2-0.1C14.1,12,13.9,12,13.9,12
			s-0.2,0.1-0.3,0.1c-0.1,0,0,0.1,0,0.3c0,0.1-0.2,0.2-0.3,0.2c-0.1,0-0.2,0.1-0.3,0.1c-0.1,0-0.4-0.3-0.4-0.3s-0.1-0.1-0.1-0.3
			c0-0.1-0.1-0.1-0.2-0.1s-0.4,0.1-0.4,0.1"/>
		<path id="path129" class="st0" d="M23.7,2.8c0,0,0.1,0.1,0.1,0.2c0,0.1-0.1,0.1-0.3,0.1c-0.2,0-0.1,0.1-0.1,0.1l0,0.5
			c0,0,0,0.2,0.2,0.3c0.1,0.1,0.1,0.1-0.1,0.2c-0.1,0.1,0.1,0.3,0.1,0.3c0.1,0,0.2-0.1,0.3-0.1c0.1,0,0.3,0.1,0.3,0.3
			c0,0.2,0.1,0.2,0.2,0.3c0.1,0.1,0.1,0.3,0.1,0.3s-0.1,0-0.2,0c-0.1,0-0.2,0.2-0.2,0.2S24,5.8,23.8,5.8c-0.2,0-0.4,0.3-0.5,0.4
			c-0.1,0.1-0.4,0.1-0.4,0.1s-0.2-0.3-0.3-0.4c-0.1-0.1-0.2,0-0.3,0.1c-0.1,0.1-0.1,0.2-0.1,0.3c0,0.1-0.1,0.2-0.3,0.3
			c-0.2,0.1-0.1,0.3-0.1,0.3S21.8,7,21.9,7C22,7.1,22,7.1,22.1,7.2c0.1,0.1,0.1,0.3,0.1,0.3s0.1,0.1,0.2,0.2
			c0.1,0.1,0.1,0.1,0.2,0.1c0.1,0,0.3,0,0.4-0.1c0.1,0,0.3-0.2,0.3-0.2l0.2,0.1c0,0,0.1,0.1,0.1,0.2c0,0.1,0,0.1,0.1,0.3
			c0.1,0.1-0.1,0.4-0.1,0.4s-0.1,0.2-0.3,0.3c-0.1,0-0.1,0.1-0.1,0.2c0,0.1,0.1,0.1,0.1,0.2c0.1,0.1,0.1,0.3,0,0.3
			c-0.1,0.1,0,0.3,0,0.4c0,0.1,0,0.3,0,0.3l-0.3,0.5c0,0-0.3,0-0.4,0c-0.1,0-0.3,0-0.3,0.1c-0.1,0.1-0.2,0-0.3,0.1
			C21.8,11,21.7,11,21.6,11c-0.1,0-0.1,0.1-0.3,0.2c-0.1,0.1-0.2,0-0.3,0.1c-0.1,0.1,0.1,0.2,0.2,0.2c0.2,0,0.3,0.2,0.3,0.2l0.1,0.4
			l0.2,0.1c0,0,0,0.1,0,0.1c0,0.1,0,0.1,0.1,0.1c0.1,0.1,0.1,0.3,0.1,0.3c0,0.1,0,0.2-0.1,0.2c-0.1,0,0,0.2,0,0.2l-0.2,0.4l0.4,0.4
			c0,0,0,0.2,0,0.3c0,0.1,0,0.1-0.1,0.2c-0.1,0.1-0.2,0.1-0.2,0.1s0,0.3,0.1,0.4c0.1,0.1,0.1,0.2,0.1,0.3C22,15.5,22,15.6,22,15.7
			c0,0.1,0,0.2,0,0.3c0,0.1,0.1,0.3,0.1,0.3s0.6,0.1,0.7,0.1c0.1,0,0.1,0.1,0.2,0.2c0,0.1,0.2,0.5,0.2,0.5s0.1,0.1,0.1,0.2
			c0,0.1,0,0.2-0.1,0.2c-0.1,0-0.1,0.2-0.1,0.2s0.1,0.3,0.1,0.4c0,0.1,0.3,0.1,0.3,0.1l0.3,0.1c0,0,0.1,0.1,0.1,0.2
			c0.1,0.1,0.1,0.2,0,0.3c-0.1,0.1,0,0.2-0.1,0.3c-0.1,0.1,0,0.2,0,0.3c0,0.1,0,0.1,0,0.3c0,0.1,0.1,0.6,0.1,0.7s0.2,0.4,0.2,0.4
			l0.1,0.3c0,0,0.1,0.1,0.1,0.2c0.1,0.1,0,0.2,0,0.2l0.1,0.3l-0.2,0c0,0-0.1,0.2-0.1,0.3c0,0.1,0.1,0.3,0.1,0.4
			c0,0.1,0.1,0.3,0.2,0.4c0.1,0.1,0.1,0.3,0.2,0.3c0.1,0.1,0.2,0.3,0.2,0.3l0.2,0l0.1,0.3c0,0,0.2,0.1,0.2,0.2c0,0.1,0,0.1,0.1,0.1
			c0.1,0,0.2,0.2,0.1,0.3"/>
		<path id="path131" class="st0" d="M22.2,14.1c0,0,0.1-0.1,0.2-0.2s0.1,0,0.2,0.1c0,0.1,0,0.1,0.2,0.1c0.1,0,0.2,0.1,0.3,0
			c0.1-0.1,0-0.2,0.1-0.2s0.2-0.1,0.3,0c0.1,0,0.2,0.1,0.3,0s0.1-0.2,0.2-0.3c0-0.1,0.1,0,0.2,0s0.3,0.1,0.3,0.1s0.2,0.2,0.3,0.3
			c0.1,0.1,0.1,0.1,0.2,0.1c0.1,0,0.2,0,0.3,0.1c0.1,0.1,0.4,0.2,0.5,0.3c0.1,0.1,0.1,0,0.2-0.1s0.3-0.4,0.4-0.4
			c0.1-0.1,0.1-0.1,0.3-0.2c0.2-0.1,0.2-0.2,0.2-0.3c0-0.1,0-0.4,0-0.5c0-0.1,0-0.1,0.1-0.2c0.1,0,0.3,0,0.4,0c0.1,0,0.2,0,0.3,0
			s0.3,0,0.3-0.1c0-0.1,0-0.2,0.1-0.3s0.2-0.1,0.2-0.1s0.1,0.1,0.2,0.1c0.1,0.1,0.2,0.1,0.3,0.1c0.1-0.1,0.1-0.2,0.2-0.1
			c0.1,0.1,0.1,0.2,0.2,0.1s0.2,0,0.3,0.1c0,0.1,0.2,0.3,0.3,0.4s0.3,0.3,0.3,0.3c0.1,0,0.2,0.1,0.2,0.1s0.3,0.2,0.3,0.3
			c0.1,0.1,0.3,0.2,0.3,0.2l0,0.2l0.2,0.2"/>
	</g>
	<g id="States">
		<path id="path99" class="st0" d="M25.5,5.8c-0.1-0.2-0.1-0.8,0-1c0-0.1,0.2-0.1,0.3-0.1l0.1,0c0,0,0,0,0,0l0.1,0.1c0,0,0,0,0,0.1
			l0,0.1c0,0.1,0,0.2-0.1,0.3c0,0-0.1,0.1-0.1,0.1c0,0,0,0.1,0,0.2c0,0-0.1,0.2-0.1,0.3c0,0-0.1,0.1-0.1,0.1
			C25.6,5.9,25.5,5.8,25.5,5.8z"/>
		<path id="path101" class="st0" d="M28.4,6.7c-0.1,0.1-0.1,0.1-0.2,0.2L28.2,7c0,0.1,0,0.2,0,0.2c0,0,0,0.1,0.1,0.1
			c0,0,0,0.1,0,0.1c0,0,0.1,0.1,0.1,0.1l0,0c0.1,0,0.3,0,0.4,0c0.1,0,0.1,0.1,0.2,0.1l0.1,0c0,0,0.2,0,0.2,0c0,0,0.1-0.1,0.1-0.1
			l0-0.2c-0.1-0.1-0.1-0.1-0.2-0.2C29.1,7.2,29,7.1,29,7.1c0,0-0.1-0.1-0.1-0.2c0,0-0.1-0.1-0.1-0.1C28.5,6.7,28.6,6.7,28.4,6.7z"/>
		<path id="path107" class="st1" d="M43.5,51.8l0-0.1l0-0.2c0-0.2,0.1-0.3,0.1-0.5c0-0.1,0-0.1,0-0.2c0,0,0-0.1,0-0.1
			c0,0-0.2-0.5-0.2-0.5c0,0,0-0.1,0-0.1c0-0.1-0.1-0.1-0.1-0.2c-0.1-0.1-0.1-0.3-0.1-0.4c-0.1-0.1-0.1-0.2-0.2-0.4
			c0-0.1,0-0.2-0.1-0.3c0,0,0-0.1,0-0.1c0-0.1-0.1-0.2-0.1-0.3l0-0.1c0-0.1,0-0.3,0-0.4l0-0.1c0,0-0.1-0.1-0.1-0.1
			c-0.1-0.1-0.2-0.2-0.2-0.3c0-0.1,0-0.1,0-0.2c0,0,0-0.1,0-0.1c0-0.1,0-0.2-0.1-0.3c0-0.1-0.2-0.1-0.2-0.2
			c-0.1-0.1-0.3-0.1-0.4-0.2c0,0,0-0.1,0-0.1c0-0.1-0.1-0.2-0.1-0.3c0,0,0-0.1,0-0.1c0,0,0-0.1,0-0.1c0-0.1,0.1-0.2,0-0.3
			c0-0.1-0.2-0.2-0.2-0.3c0,0,0,0,0-0.1c0,0,0-0.1,0-0.1c0,0,0-0.2,0-0.2c0,0,0-0.1,0.1-0.1c0,0,0-0.1,0-0.1c0-0.1-0.2-0.2-0.2-0.2
			c0-0.1,0-0.3,0-0.4c0-0.1,0-0.2-0.1-0.2c0-0.1,0-0.3,0-0.4c0-0.1,0-0.4,0.1-0.5v-0.8l-0.4-0.3c-0.2-0.1-0.4-0.3-0.6-0.4
			c-0.1,0-0.1-0.1-0.2-0.1c-0.1-0.1-0.2-0.1-0.3-0.1c-0.1-0.1-0.2-0.1-0.3-0.2c0,0,0,0,0,0c0,0-0.3-0.1-0.3-0.1c-0.1,0-0.2,0-0.2,0
			l-0.5-0.1l-0.1,0c0,0-0.1-0.1-0.1-0.1l-0.1-0.1c0,0-0.1-0.2-0.1-0.2c0,0,0-0.1,0-0.1l0-0.2c0-0.1,0-0.1,0.1-0.1l0.1-0.3
			c0.1-0.1,0.2-0.3,0.3-0.4c0-0.1,0-0.1,0.1-0.2c0.1-0.1,0.2-0.4,0.2-0.5c0-0.1,0-0.1-0.1-0.2c0,0-0.1-0.1-0.2-0.2l0-0.1l0-0.1
			l0-0.7l0-0.1c0,0,0-0.1,0-0.1c-0.1-0.2-0.2-0.3-0.3-0.4c0,0-0.1-0.1-0.1-0.1c-0.1-0.1-0.1-0.2-0.1-0.3c0-0.1-0.2-0.2-0.3-0.2
			c0,0-0.1,0-0.1,0c0,0-0.4-0.1-0.4-0.1c-0.1,0-0.1-0.1-0.2-0.1l-0.4-0.2l-0.1,0l-0.1,0.1l-0.1,0.1l-0.2,0.2c0,0,0,0.1-0.1,0.1
			c0,0-0.1,0-0.1,0.1l-0.2,0.1c0,0-0.2,0.1-0.3,0.1c0,0-0.1,0-0.1,0c0,0-0.3,0-0.3,0c-0.1,0-0.1,0.1-0.2,0.1l-0.3,0.2
			c-0.2,0.1-0.4,0.1-0.5,0.2c0,0-0.1,0.1-0.2,0.2l-0.4,0.5c0,0-0.1,0.1-0.1,0.1c0,0-0.2,0.1-0.2,0.1c-0.1,0-0.4,0-0.5,0
			c0,0-0.1-0.1-0.1-0.1c0-0.1-0.1-0.3-0.2-0.4l-0.1-0.1l0,0c0,0-0.3,0-0.3,0l-0.3-0.2c-0.1,0-0.1-0.1-0.2-0.1c0,0-0.1,0-0.1,0
			c-0.1,0-0.4-0.1-0.6-0.2c0,0-0.1-0.1-0.1-0.1c0,0,0-0.1,0-0.1c0,0-0.4-0.7-0.4-0.7L30,35.7l-0.2,0c0,0-0.1,0-0.1,0l-0.2,0
			l-0.1,0.1c0,0,0,0,0,0c0,0-0.1,0.1-0.1,0.1c0,0-0.1,0.1-0.1,0.2c0,0.1-0.1,0.2-0.1,0.3c0,0-0.2,0-0.2,0c0,0-0.2-0.1-0.2-0.1
			c0,0-0.1-0.1-0.1-0.2c0,0-0.1-0.3-0.1-0.3c0-0.1,0.1-0.2,0.1-0.3c0,0-0.1-0.3-0.1-0.3c0-0.1,0.1-0.3,0.1-0.3c0,0,0-0.2,0-0.2
			c0-0.1,0-0.3,0-0.3c0,0-0.1-0.3-0.1-0.3c0,0-0.2-0.3-0.2-0.3c0,0-0.2-0.2-0.3-0.2l-0.1-0.1L27.8,33c0-0.1-0.3-0.4-0.3-0.5
			c0,0-0.1-0.1-0.1-0.1c-0.1-0.1-0.2-0.2-0.3-0.2c0,0-0.2-0.1-0.2-0.1l-0.1,0l-0.2,0c0,0-0.1,0-0.1,0l-0.1,0.1L26,32.5
			c-0.1,0.1-0.1,0.1-0.2,0.2l-0.2,0.1l-0.3,0.3l-0.4,0.2c0,0-0.4,0.1-0.5,0.1c-0.1,0-0.3-0.2-0.4-0.4c-0.1-0.2-0.2,0-0.2,0
			s-0.1,0.1-0.3,0.1c-0.2,0-0.4,0.1-0.4,0.1c-0.1,0-0.1,0-0.2,0l-0.4,0c0,0-0.2,0-0.2,0l-0.5,0.1l-0.1,0.1"/>
		<path id="path109" class="st1" d="M25.5,0.8c0,0-0.1,0-0.1,0l-0.1,0.1C25.1,0.9,25,1,24.9,1.1c-0.1,0-0.1,0.1-0.2,0.1
			c0,0-0.1,0.1-0.1,0.1c0,0.1,0,0.1,0,0.2l-0.1,0.1l0,0.1c-0.2,0-0.4,0-0.7-0.1c-0.1,0-0.2,0.1-0.3,0c-0.1-0.1-0.2-0.2-0.3-0.3
			c0,0-0.2,0-0.3,0c-0.1,0-0.2-0.1-0.3-0.1c-0.1-0.1-0.1-0.2-0.2-0.4c0,0-0.1,0-0.1,0l-0.2,0.3c0,0,0,0.1,0,0.1l0.1,0.1l0,0.1
			c-0.1,0-0.2,0.1-0.2,0.2c0,0,0.1,0.1,0.1,0.2c0.1,0.1,0.2,0.3,0.3,0.4c0,0,0.1,0.1,0.1,0.1c0,0,0,0,0,0c0,0,0.3,0.1,0.3,0.1
			c0,0,0.1,0.1,0.1,0.1l0.1,0l0,0l0.4,0.1l0.1,0.2l-0.2,0c-0.1,0-0.3-0.1-0.4-0.1c-0.1,0-0.1,0-0.2,0c0,0,0,0,0,0l-0.2-0.1
			c-0.1,0-0.2-0.1-0.3-0.1l-0.1,0c0,0,0,0,0,0l-0.1,0l0,0l-0.1,0c-0.1,0-0.2,0.1-0.3,0.1c0,0,0,0-0.1,0c-0.1,0-0.2,0-0.3,0
			c0,0-0.1,0.1-0.1,0.1l-0.1,0l-0.1,0l-0.1,0l0-0.2c0,0-0.1-0.1-0.1-0.1l-0.1,0c0,0,0,0,0,0c-0.1,0-0.1,0-0.2,0.1c0,0-0.1,0-0.2,0
			c-0.1-0.1-0.1-0.2-0.1-0.2c0,0-0.1,0-0.1,0l-0.5,0c-0.1,0-0.2-0.1-0.3-0.1l0,0.2c0,0-0.1,0.4-0.1,0.5c0,0.2-0.3,0.1-0.3,0
			s0-0.2,0-0.2l-0.3,0.1c0,0,0,0.1-0.2,0.2c-0.1,0.1-0.2,0.1-0.3,0s-0.1-0.2-0.1-0.2l0.1-0.2l-0.1-0.2c0,0-0.2,0.2-0.3,0.3
			c-0.1,0.1-0.2,0.3-0.3,0.4c-0.1,0.1-0.4,0.2-0.7,0.1c-0.2-0.1-0.6-0.2-0.6-0.2L16,2.8c-0.1-0.1-0.2-0.2-0.3-0.3
			c-0.1,0-0.1-0.1-0.2-0.1l-0.4-0.2l0,0l-0.1,0c0,0-0.1,0-0.2,0.1c-0.1,0.1-0.1,0.2-0.1,0.3c0,0,0,0.1,0,0.1c0,0,0,0.1,0,0.1l-0.1,0
			c0,0-0.1,0-0.1,0c-0.1,0-0.2-0.1-0.3-0.1c0,0-0.3,0-0.3,0c-0.1,0-0.2,0-0.3,0l-0.1,0c0,0-0.1,0-0.1-0.1c0-0.1,0-0.3-0.1-0.3
			c0,0,0,0,0,0l-0.1-0.1c0,0-0.1-0.1-0.2-0.1C13.1,2,13.1,2.1,13,2.2c-0.1,0-0.2,0-0.3,0c0,0,0,0,0,0c-0.1,0-0.1-0.1-0.2-0.2
			c0,0-0.1,0-0.1,0c-0.2,0.2,0,0.3,0,0.5l-0.1,0.3l-0.1,0.1l-0.1,0c-0.1,0.1-0.3,0.2-0.5,0.2c-0.2,0-0.4,0-0.7,0c-0.2,0-0.3,0-0.5,0
			c0,0,0,0,0,0c-0.1,0-0.2,0.1-0.3,0.2l-0.1,0c0,0-0.1,0-0.2,0c0,0-0.2,0.1-0.2,0.1c0,0-0.2,0.1-0.2,0.1L9.5,3.6L9.3,3.8
			c-0.1,0-0.2,0-0.3,0C9,3.7,8.9,3.7,8.8,3.6l-0.1,0c0,0-0.4,0-0.4,0c-0.2,0-0.3,0-0.5,0c-0.1,0-0.4,0-0.5,0c-0.1,0-0.2,0-0.2,0
			c0,0-0.3,0.1-0.3,0.1c-0.1,0-0.1,0.1-0.2,0.1L6.3,4.1C6.2,4.1,6.1,4.1,6,4.2L6,4.2c0,0,0,0,0,0c0,0,0,0.1-0.1,0.1
			c0,0-0.2,0.3-0.2,0.3c0,0-0.1,0-0.1,0l-0.1,0l-0.2,0c-0.1,0-0.1-0.1-0.2-0.1c0,0,0,0,0,0c0,0-0.2-0.1-0.2-0.1
			C4.8,4.4,4.8,4.4,4.7,4.3C4.6,4.2,4.5,4.2,4.4,4.2l0,0l-0.1,0c-0.1,0-0.2,0.1-0.2,0.2c0,0-0.2,0.1-0.3,0.1c0,0-0.3,0-0.4,0
			c-0.1,0-0.1-0.1-0.2-0.1C3.2,4.2,3.1,4.2,3.1,4.1L2.9,4c0,0,0,0-0.1-0.1c0,0-0.2,0-0.2,0c-0.1,0-0.2,0-0.3,0C2.2,4,2.1,4,2,4.1
			c-0.1,0-0.2,0.1-0.3,0.1c-0.1,0-0.1,0.1-0.2,0.1c0,0-0.1,0-0.1,0c-0.1,0-0.2,0-0.2,0"/>
		<path id="path111" class="st1" d="M25.5,0.8c0,0,0.1,0.1,0.1,0.1c0.1,0.1,0.1,0.3,0.1,0.4c0,0,0,0,0,0c0.1,0.1,0.2,0.3,0.3,0.4
			c0,0,0.1,0.1,0.1,0.1c0,0.1,0,0.2,0,0.3c0,0-0.1,0.3-0.2,0.3c0,0-0.4,0.3-0.4,0.3c0,0.1,0,0.1,0,0.2c0,0,0.1,0.1,0.1,0.1
			c0.1,0,0.3,0,0.4,0c0.1,0,0.5,0.1,0.6,0.1c0.1,0,0.3-0.2,0.4-0.3c0,0,0,0,0.1,0c0,0,0.1,0,0.2,0c0,0,0.1,0,0.1,0l0.2,0.2
			c0,0,0.1,0.2,0.1,0.3s0.3,0.1,0.3,0.1l0.2,0.2c0,0,0.2,0,0.4,0s0.1,0.2,0.1,0.2s0,0.2-0.1,0.4s-0.1,0.2-0.1,0.2S28.2,4.6,28,4.6
			c-0.2,0-0.4,0-0.4,0c0,0-0.1,0-0.1,0l-0.8,0.1l-0.1,0c-0.1,0-0.2,0.2-0.2,0.2c0,0.1,0,0.1,0,0.2c0,0,0,0,0,0.1c0,0.1,0,0.1,0,0.2
			c0,0,0,0.1,0,0.1c0,0.1-0.1,0.1-0.1,0.2c0,0,0,0.1,0,0.1c0,0,0.1,0.2,0.1,0.2c0,0,0,0,0,0c0.1,0,0.1-0.1,0.2-0.1
			c0,0,0.1-0.1,0.1-0.1l0.1,0c0.1,0,0.2,0,0.2,0.1c0.1,0,0.2-0.1,0.2-0.1l0.1-0.3l0-0.1c-0.1,0-0.2-0.1-0.2-0.1c0,0,0-0.1,0-0.1
			c0,0,0.1,0,0.1,0c0.1,0,0.4,0,0.4,0l0.1,0.1c0,0.1,0,0.5,0,0.6c0,0,0,0.1,0,0.1c0,0.1,0.1,0.1,0.1,0.2L28.1,6c0.1,0,0.2,0,0.2-0.1
			c0.2,0.1,0.4,0.2,0.5,0.4c0,0.1,0.1,0.1,0.1,0.2c0,0,0,0.1,0.1,0.2l0.6,0.2c0,0-0.1-0.4-0.1-0.4c0,0,0.2-0.1,0.2-0.1
			c0.1,0,0.1-0.1,0.2-0.1c0,0,0.1,0,0.1,0c0.1,0,0.1-0.1,0.2-0.1c0,0,0,0,0,0c0,0,0,0.1,0.1,0.2c0.1,0.1,0.2,0.4,0.3,0.5
			c0.1,0,0.2,0,0.3,0c0,0,0.1,0,0.1,0L31.2,7c0,0,0.1,0,0.2-0.1c0-0.1,0.2-0.2,0.2-0.2l0.2,0l0.1-0.3c0,0,0.1,0,0.2,0.1
			c0.1,0,0.2,0,0.3,0.1s0.1,0.3-0.1,0.4s-0.1,0.4,0,0.5s0.2,0.2,0.2,0.2l0.3-0.2c0.1,0,0.2,0.1,0.2,0.2c0,0.1,0,0.2,0,0.3L33,8
			l0.1,0.1c0,0,0.1,0,0.1,0l0,0c0,0.1,0,0.2-0.1,0.3c0.1,0,0.2,0,0.2,0c0.1,0,0.1,0,0.1,0l0.1,0.3l0.1,0c0,0,0.1,0,0.1,0
			c0.1,0,0.2,0,0.2,0c0.1,0,0.2,0.1,0.2,0.1l0.1,0.1l0.2-0.1c0,0,0.1,0,0.1,0.1c0,0,0.1,0.1,0.1,0.1c0,0,0,0.1,0,0.1
			c0,0.1,0,0.3,0,0.4c0,0.2-0.1,0.6-0.2,0.7c0,0-0.2,0.2-0.2,0.2c-0.1,0-0.1,0.1-0.1,0.1l-0.3,0.2c-0.2,0.1-0.4,0.3-0.6,0.5
			c-0.3,0.2-0.6,0.4-0.8,0.6c-0.1,0-0.1,0.1-0.2,0.1c-0.1,0-0.2,0.1-0.3,0.1c0,0-0.1,0-0.1,0.1L32,12.4c0,0,0,0,0,0
			c0,0.1-0.1,0.4-0.2,0.5c0,0-0.1,0.1-0.1,0.1c-0.1,0.1-0.2,0.2-0.2,0.3c0,0.1-0.1,0.1-0.1,0.2l-0.2,0.3c0,0,0,0.2,0,0.2
			c0,0,0,0.1,0,0.1c0.1,0,0.1,0.1,0.2,0.1l0.1,0.1l0,0.1c0,0,0,0.1,0,0.1c0,0.1,0,0.2,0,0.3c0,0,0.1,0.1,0.1,0.1
			c0,0,0.1,0.1,0.2,0.1L32,15c0.1,0.1,0.2,0.1,0.3,0.2c0,0,0.1,0,0.1,0c0.1,0.1,0.1,0.2,0.2,0.4c-0.1,0.1-0.1,0.3-0.2,0.4
			c0,0,0,0.1,0,0.1l0.1,0.2c-0.1,0.1-0.1,0.2-0.2,0.3c0,0,0,0.2,0,0.2c0,0,0,0.2,0,0.2c0,0,0.1,0.1,0.1,0.1l0.4,0.3
			c0.1,0.1,0.1,0.1,0.2,0.2c0,0,0.6,0.1,0.6,0.1c0,0,0.3,0.2,0.3,0.2c0,0,0.1,0.2,0.1,0.2c0,0.1,0.1,0.4,0.2,0.4
			c0.1,0.1,0.1,0.1,0.2,0.2l0.4,0.3c0.1,0.1,0.2,0.2,0.3,0.3c0.1,0.1,0.1,0.2,0.2,0.3c0.1,0.1,0.2,0.2,0.3,0.3c0.1,0,0.3,0,0.4,0
			c0.1,0,0.2,0,0.3,0.1l0.6,0.2c0.1,0,0.2,0.1,0.3,0.1c0.1,0,0.1,0.1,0.2,0.1l0.5,0.2c0.1,0.1,0.3,0.2,0.4,0.3c0.2,0,0.2,0,0.3,0.1
			h0.3c0.1,0,0.2,0.1,0.3,0.2c0.1,0.1,0.1,0.2,0.2,0.2c0.1,0,0.4,0,0.5,0c0.1,0,0.1-0.1,0.2-0.1c0.1,0.1,0.2,0.3,0.3,0.4
			c0.1,0.1,0.2,0.1,0.3,0.1c0,0.1,0,0.2,0,0.3c0,0.1,0,0.1-0.1,0.2c-0.1,0-0.2-0.1-0.3-0.1c-0.1-0.1,0,0.2,0,0.2
			c0,0,0.1,0.1,0.1,0.1c0.1,0.1,0.4,0.3,0.4,0.3c0.1,0.1,0.1,0.3,0,0.4C41,23.5,41,24,41,24.2c0,0.2-0.1,0.2-0.2,0.3
			c-0.1,0.1,0,0.4,0,0.5c0,0.1,0,0.2-0.1,0.2c0,0-0.1,0-0.1,0c-0.1,0-0.1,0-0.2,0c-0.1,0-0.2,0-0.3,0.1c-0.1,0.1-0.2,0.2-0.3,0.2
			c-0.2,0,0,0.2,0.1,0.3c0,0.1,0.1,0.2,0.1,0.3c0,0-0.2,0.3-0.2,0.4c-0.1,0.1-0.2,0.4-0.2,0.6c0,0.1-0.1,0.2-0.2,0.2
			c-0.1,0-0.1,0.1-0.2,0.1c-0.2,0-0.2,0.3-0.3,0.4c0,0.1-0.1,0.2-0.2,0c0-0.1-0.1-0.1-0.1-0.2c-0.1-0.1,0-0.2-0.2-0.2
			c-0.1,0-0.1-0.1-0.1-0.2c-0.1-0.1-0.1-0.1-0.2-0.1c-0.1,0-0.4,0-0.5-0.1c-0.1,0-0.2-0.1-0.2-0.1c-0.2,0-0.5,0-0.7,0
			c-0.2,0-0.3,0.1-0.4,0.2c-0.1,0.1-0.4,0.1-0.6,0.1c-0.1,0-0.3,0.1-0.4,0.1c-0.1,0-0.2,0.1-0.2,0.2c0,0,0.2,0.3,0.2,0.3
			c0,0,0.2,0.2,0.2,0.2c0.1,0,0.3,0,0.4,0.1c0.1,0,0.1,0,0.2,0.1c0,0,0.1,0,0.1,0l0.9,0.3c0,0,0.1,0.1,0.2,0.1c0,0,0.2,0,0.2,0
			c0.1,0,0.5,0,0.6,0.1c0.1,0,0.3,0.2,0.4,0.3c0.1,0.1,0.2,0.3,0.2,0.4c0,0.1-0.1,0.3-0.2,0.3c-0.1,0,0,0.2,0,0.2
			c0.1,0,0.1,0.1,0.1,0.2c0,0,0.2,0.6,0.2,0.6c0,0.1,0,0.3,0,0.4c0,0.1,0.1,0.1,0.1,0.2c0,0,0.1,0.1,0.1,0.1l0.4,0.1
			c0.1,0,0.1,0,0.2,0.1c0.1,0,0.3,0.1,0.4,0.2c0.2,0.1,0.3,0.1,0.5,0.2c0.1,0,0.2,0.1,0.4,0.1l0.5,0.2c0,0,0.1,0.1,0.1,0.1
			c0,0.1,0,0.2,0,0.3c0,0,0,0.1,0,0.1c0,0.1,0.1,0.1,0.1,0.2c0,0,0.1,0,0.1,0.1c0,0,0.1,0.2,0.2,0.2c0,0,0,0.1,0,0.1
			c0,0,0,0.1,0,0.1c0,0,0,0,0,0.1c0,0,0,0.1,0,0.1c0,0,0.3,0.2,0.4,0.2c0,0,0,0,0.1,0c0.1,0,0.1,0.1,0.1,0.2c0,0.1-0.1,0.1-0.2,0.2
			c0,0,0,0.1,0.1,0.1c0,0,0.1,0.1,0.1,0.1c0,0,0.1,0,0.1,0c0.1,0,0.2,0,0.3,0c0.1,0,0.2,0.2,0.3,0.2c0,0,0,0.1,0.1,0.1
			c0,0,0.1,0,0.1,0.1c0,0,0,0,0.1,0.1c0.1,0.1,0.2,0.1,0.3,0.2c0.2,0.1,0.3,0.1,0.4,0.4c0,0.1,0,0.2,0,0.3c0,0,0,0.1,0,0.1
			c0,0,0,0.1,0,0.1c0,0,0,0.1,0.1,0.1c0,0.1-0.1,0.2-0.1,0.3c0,0,0.1,0.1,0.1,0.1c0,0,0.1,0,0.1,0c0.1,0,0.1,0,0.1,0
			c0,0,0.1-0.1,0.1-0.1c0,0,0.2,0,0.2,0c0.1,0,0.3,0,0.3-0.1c0.1,0,0.1-0.1,0.2-0.1c0,0,0,0,0.1,0c0.1,0,0.1-0.1,0.2-0.1
			c0,0,0.1,0,0.1,0c0.1,0,0.1-0.1,0.2-0.1c0,0,0.1,0,0.1-0.1c0.1,0,0.1-0.1,0.2-0.1c0,0,0.1-0.1,0.2-0.1c0.1-0.1,0.2-0.1,0.3-0.2
			c0.2-0.1,0.4-0.1,0.6-0.1c0,0,0.1,0,0.1,0c0,0,0.1,0,0.1,0c0,0,0.1,0.1,0.1,0.1c0,0,0,0.1,0,0.1c0.1,0.1,0.1,0.1,0.2,0.1
			c0.1,0.1,0.1,0.1,0.1,0.2c0.1,0,0.2-0.2,0.3-0.3c0,0,0.1,0,0.2,0l0.1,0.1c0,0,0,0.1,0,0.1c0,0.1,0,0.2,0,0.3c0,0,0,0.1,0,0.1
			c0,0,0,0.1,0,0.1c0,0,0,0.1,0,0.1c0,0,0,0.1,0,0.1c0,0.1,0.1,0.1,0.1,0.2c0,0,0.1,0,0.2,0l0-0.1l0.1,0l0.1,0c0,0,0.1,0.1,0.2,0.1
			c0.1,0,0.1-0.1,0.2-0.2c0.1,0,0.2,0,0.3,0c0.1,0,0.1,0,0.2,0c0.1,0,0.2,0.1,0.3,0.1c0.1,0,0.2,0.1,0.3,0.1c0.1,0,0.3,0,0.3,0.1
			c0,0.1,0.1,0.1,0.1,0.2c0,0.1,0.1,0.1,0.1,0.3l0,0c-0.1,0-0.1,0-0.2,0c-0.1,0-0.2,0-0.2,0.1c0,0.1-0.1,0.1-0.1,0.2
			c0,0-0.1,0.1-0.1,0.1c-0.1,0.1-0.2,0.1-0.2,0.1c0,0,0,0-0.1,0c-0.1,0-0.1,0.1-0.1,0.2c0,0,0.1,0.2,0.1,0.2
			c0.1,0.1,0.2,0.3,0.3,0.3c0.1,0.1,0.3,0.2,0.3,0.4c0,0-0.1,0-0.1,0c-0.1-0.1-0.3-0.1-0.4-0.1c-0.1-0.1-0.2-0.3-0.3-0.2
			c0,0-0.1,0.1-0.1,0.1c-0.1,0.1-0.2,0.3-0.3,0.4c0,0,0,0,0,0.1c0,0,0,0,0,0c0,0-0.1,0-0.1,0c-0.1,0-0.5-0.1-0.5-0.1
			c0,0-0.1,0-0.1,0c0,0,0,0-0.1,0c-0.1,0-0.1,0-0.2,0.1c0,0-0.1,0.1-0.1,0.1c0,0,0,0.1,0,0.1c0,0,0,0.1,0,0.2c0,0-0.1,0.1-0.2,0.2
			l0,0c0,0.1,0.1,0.2,0.1,0.3c0,0.1,0.1,0.1,0.1,0.2c0,0,0,0.1,0,0.1c0,0,0,0.1,0,0.1c0,0.1,0,0.2,0.1,0.3c0.1,0.1,0.1,0.2,0.2,0.3
			c0,0.1,0.1,0.1,0.2,0.2c0.1,0.1,0.2,0.1,0.3,0.2c0.1,0.1,0.3,0.3,0.5,0.3c0.2,0,0.2-0.2,0.4-0.3l0.1,0c0,0,0.1,0.1,0.1,0.2
			c0.1,0.1,0.1,0.1,0.1,0.2c0,0,0,0.1,0.1,0.1c0.1,0.1,0.1,0.1,0.2,0.2c0,0,0,0.1,0,0.1c0,0.1-0.1,0.2-0.1,0.2
			c0,0.1,0.1,0.5,0.1,0.5c0,0,0,0,0.1,0.1c0,0,0,0.1,0,0.1c0,0,0.1,0.1,0.1,0.1c0,0,0.1,0,0.1,0c0,0,0.1,0,0.1,0
			c0.1,0,0.1,0.1,0.2,0.1c0,0,0,0.1,0,0.1c0,0.1,0.1,0.2,0.1,0.3c0,0,0.1,0.1,0.1,0.1c0.1,0,0.2,0,0.2,0c0.1,0,0.2,0,0.3,0
			c0,0,0,0.1,0,0.1c0,0-0.1,0.1-0.1,0.1c-0.2,0.1-0.3,0-0.5,0.1c0,0-0.1,0-0.1,0.1c-0.2,0.1-0.3,0.2-0.4,0.4c0,0,0,0.1-0.1,0.1
			c0,0.1-0.1,0.1-0.2,0.1c-0.1,0.1-0.1,0.1-0.1,0.2c0,0-0.1-0.1-0.1-0.1c0-0.1,0-0.1,0-0.2c0,0,0-0.1,0-0.1c0-0.1,0-0.2,0-0.3
			c0-0.1,0-0.1-0.1-0.1l-0.1,0c0,0-0.1,0-0.2,0.1c0,0.1-0.1,0.1-0.1,0.2c0,0.1-0.1,0.2-0.2,0.2c-0.1-0.1-0.3-0.2-0.4-0.2
			c0,0-0.1,0-0.1,0c0,0-0.1,0-0.1,0c0,0-0.1,0-0.1,0c-0.1,0.1-0.1,0.2-0.1,0.3c0,0.1,0,0.2,0,0.3c0,0,0,0.1,0,0.1
			c0,0.1,0.1,0.3,0.1,0.3c0.1,0,0.1,0,0.2,0c0.1,0,0.1,0.1,0.2,0.1c0.1,0,0.2-0.1,0.2-0.1c0,0,0.1,0,0.1,0.1c0,0.1-0.2,0.2-0.1,0.3
			c0,0.1,0.1,0.1,0.1,0.1c0,0,0,0,0.1,0c0,0,0.1,0,0.1,0.1c0,0,0,0.1,0,0.1c0,0,0,0,0,0c0,0,0,0.2,0.1,0.2c0,0,0.1,0,0.1,0.1
			c0,0,0.1,0.1,0.1,0.1c0.1,0.1,0.1,0.2,0.2,0.3l0,0.1c-0.1,0-0.2,0.1-0.2,0.2l0,0.1c0,0,0.1,0.1,0.1,0.1c0,0,0.1,0,0.1,0
			c0.1,0,0.2,0,0.2,0.1c0,0,0,0.1,0,0.1c0,0.1,0,0.1-0.1,0.2c0,0,0,0.1,0,0.1c0,0,0,0.1,0,0.1c0,0.1-0.1,0.2-0.1,0.3
			c0,0,0,0.1,0,0.1c0,0.1-0.1,0.1-0.1,0.2c0,0.1,0,0.1,0,0.2c0,0,0,0,0,0c0,0.1,0.1,0.2,0.1,0.3c0,0.1-0.1,0.1-0.1,0.2
			c0,0-0.1,0.1-0.1,0.2c0,0,0,0.1,0,0.1c0,0.1,0.1,0.4,0.2,0.4c0.1,0.1,0.1,0.2,0.2,0.3c0,0,0,0.1,0,0.1c0,0,0,0.1,0,0.2
			c0,0.1,0,0.1,0,0.2c0,0.1,0,0.2,0.1,0.3l0.1,0.1"/>
		<path id="path141_00000031195441589514112190000007279094062513997244_" class="st1" d="M21.8,33.6L21.8,33.6c-0.1,0-0.1,0-0.1,0
			c0,0-0.1,0-0.1-0.1l0,0c-0.1-0.1-0.1-0.2-0.2-0.4l-0.1,0l0,0c0,0,0,0,0,0c0,0,0,0-0.1,0l-0.1,0c-0.1,0-0.1-0.3-0.1-0.4l-0.1-0.1
			c-0.3,0.1-0.3,0-0.4-0.2c0-0.1,0.1-0.2,0.1-0.3c-0.3,0.2-0.4,0.1-0.7-0.1l-0.1-0.1c0,0-0.1-0.1-0.1-0.1c-0.1-0.1-0.4-0.2-0.3-0.3
			l0.1-0.1c-0.1,0-0.2,0.1-0.4,0l0,0c-0.1-0.1-0.1-0.4-0.1-0.5c0,0,0-0.1-0.1-0.1l0,0c-0.1-0.1-0.2-0.1-0.3-0.3
			c-0.2-0.2-0.1-0.3-0.1-0.5l0-0.1l0-0.1l-0.2-0.2c0,0,0-0.1-0.1-0.1c0,0,0,0-0.1,0l-0.1,0c0,0,0,0-0.1,0l0,0
			c-0.2-0.1-0.2-0.3-0.3-0.4c-0.1-0.2-0.2-0.3-0.3-0.5c-0.3,0-0.3-0.1-0.5-0.3c-0.2-0.1-0.4-0.3-0.5-0.4l-0.6,0c0,0-0.1,0-0.1,0
			l-0.6-0.6c-0.1,0-0.3-0.1-0.4-0.1c0,0-0.1,0-0.1,0c-0.1,0.1-0.2-0.1-0.2-0.2c-0.1,0-0.1,0-0.2-0.1l0,0c-0.2,0.1-0.4,0-0.6,0.1
			c-0.1,0-0.1,0.1-0.2,0.1l0,0c-0.1,0-0.1,0-0.2,0c-0.1,0-0.2,0-0.2,0c0,0,0,0-0.1,0c0,0,0,0,0,0.1l0,0c-0.1,0.1-0.2,0.1-0.2,0.2
			c-0.2,0-0.2-0.1-0.2-0.1c-0.1,0-0.2,0-0.3,0c-0.2,0.1-0.3,0.1-0.4-0.1l-0.1,0c-0.3,0-0.2,0.1-0.5,0c-0.3-0.1-0.3-0.2-0.6-0.2
			c-0.1,0-0.1,0-0.2,0C10,26.8,9.9,27,9.8,27c-0.2,0.1-0.1,0.2-0.3,0.2c0,0-0.1,0-0.1,0.1c-0.1,0.1-0.2,0.1-0.4,0c-0.3,0-0.6,0-1,0
			l0,0c0,0,0,0-0.1,0l-0.1,0l-0.1,0c-0.3-0.1-0.4-0.3-0.6-0.4c-0.2-0.1-0.4-0.2-0.5-0.3c-0.4-0.1-0.5-0.2-0.8-0.5
			c-0.3,0-0.5,0.1-0.8,0c-0.1,0-0.2-0.1-0.3-0.2c0,0,0,0,0,0l0,0l0,0c-0.2-0.1-0.4-0.1-0.6-0.3C4,25.4,3.8,25,3.9,24.9l0-0.1l0-0.1
			c0,0,0-0.1,0-0.1l0,0l0.1-0.2l0,0c0.1,0,0.2-0.1,0.2-0.1l0,0c0.2,0,0.3-0.1,0.5-0.1c0,0,0,0,0,0l0,0l0,0l0,0l0,0l-0.1-0.1l0,0
			c-0.1-0.1-0.1-0.2-0.1-0.3l0-0.1l0,0c-0.2-0.2-0.3-0.1-0.4-0.4c-0.3-0.3-0.1-0.7,0.1-0.4l0.1,0c0,0,0-0.1,0.1-0.1l0,0
			c-0.1-0.1-0.1-0.2,0-0.3c0,0,0,0,0-0.1c-0.1,0-0.2-0.1-0.2-0.2c-0.1,0-0.1,0.1-0.2,0c-0.1,0-0.3-0.1-0.2-0.2l0-0.1
			c-0.2-0.1-0.2-0.1-0.1-0.3l0,0l0,0c-0.1,0-0.1-0.1-0.1-0.2l-0.2-0.2C3.2,21,3.1,20.8,3,20.5c0,0,0-0.1,0-0.1l0-0.1
			c0,0,0-0.1,0-0.1c0-0.2,0.1-0.2,0.1-0.4c0-0.1,0.1-0.2,0.2-0.3l0,0l0,0c0-0.1-0.1-0.3,0-0.4c-0.1-0.1-0.1-0.1-0.1-0.2
			c-0.1,0-0.2-0.1-0.2-0.2c-0.1,0-0.1-0.1-0.2-0.2c0,0-0.1,0-0.1-0.1c-0.2,0-0.2,0-0.3,0c-0.1,0-0.1-0.1-0.2-0.2c0,0,0-0.1,0-0.1
			c0,0,0,0,0,0c-0.1-0.3,0.1-0.3,0.2-0.5c0-0.1,0-0.1,0.2-0.2c0.1,0,0.1-0.1,0.2-0.1C3,17,2.9,17.1,3.1,17c0.1-0.1,0.1-0.2,0.2-0.2
			c0.1-0.1,0.2-0.2,0.3-0.2c0,0,0-0.1,0-0.1c0-0.1,0.1-0.1,0.2-0.1c0-0.1,0-0.1,0-0.2l0-0.1c0-0.1,0-0.1,0-0.2L4,16c0,0,0,0,0.1,0.1
			L4.2,16l0,0c0-0.1,0-0.1,0.1-0.2c0,0,0,0,0.1-0.1l0.1,0c0,0,0.1-0.2,0.1-0.2c0,0,0-0.2,0.1-0.2c0-0.1,0.2-0.2,0.2-0.2
			c0,0,0-0.2,0-0.2c0.1-0.1,0.2-0.2,0.2-0.3c0-0.1,0-0.2,0-0.2c0,0,0.1-0.2,0.1-0.2c0,0,0,0,0,0l0,0l0.1,0c0.1-0.1,0.1-0.2,0.1-0.2
			l0-0.1l0,0c0,0-0.1-0.1-0.1-0.1c0-0.1,0-0.1,0-0.2c0-0.1-0.1-0.1-0.1-0.2c0-0.1,0.1-0.3,0.2-0.4c0,0,0-0.1,0-0.1c0,0,0-0.1,0-0.1
			c0-0.1-0.1-0.2-0.1-0.4c-0.1-0.3-0.3-0.7-0.4-1c0-0.1,0-0.1-0.1-0.2c0,0-0.1-0.1-0.1-0.1c-0.1-0.1-0.2-0.2-0.3-0.3
			c-0.1-0.1-0.1-0.1-0.2-0.2l-0.1-0.1c0-0.1,0-0.2,0-0.3c0,0,0,0,0-0.1c0,0-0.1-0.3-0.1-0.3l0-0.1c0-0.1,0-0.2,0-0.3
			c0-0.1,0.1-0.1,0.1-0.2C4.5,8.9,4.4,8.8,4.4,8.7c0-0.1,0.1-0.2,0.1-0.2c0,0-0.1-0.1-0.1-0.1C4.3,8.3,4.1,8.2,4,8C4,8,4,8,3.9,7.9
			C3.9,7.9,3.8,7.8,3.7,7.8C3.6,7.7,3.6,7.6,3.5,7.6c0,0,0,0,0,0C3.3,7.4,3.3,7.3,3.1,7.2c0,0-0.1-0.1-0.1-0.1c0,0-0.1,0-0.1,0
			c0,0-0.1,0-0.1,0c-0.1,0-0.2,0-0.3-0.1C2.4,7.1,2.3,7,2.2,7C2.1,6.9,2,6.8,1.8,6.7C1.7,6.7,1.4,6.6,1.4,6.6c0,0-0.1-0.1-0.1-0.1
			l0,0l0-0.1c0-0.1,0-0.2,0-0.2c0-0.1,0-0.2,0-0.3c0,0,0,0,0,0c0,0,0-0.1,0-0.1C1.1,5.6,1,5.5,0.9,5.4c0-0.1-0.1-0.2-0.1-0.3
			c0,0,0,0,0-0.1l0-0.1C1,4.8,1.1,4.5,1.2,4.3"/>
		<path id="path141_00000047741610755257146090000014057139568007158199_" class="st1" d="M50.1,51c-0.3,0.2-0.2,0.2-0.5,0.1
			c-0.1,0-0.1-0.3-0.1-0.3l0,0l0,0c-0.2,0.1-0.4,0.1-0.6,0.1l-0.1,0c-0.1,0-0.1,0-0.1-0.1l-0.1-0.1l-0.1-0.1c0,0-0.1,0-0.1,0
			c0,0-0.1,0-0.1,0.1c-0.1,0-0.1,0.2-0.2,0.2H48c0,0-0.1,0-0.1,0l-0.3-0.3l-0.1-0.1c0,0,0,0-0.1,0l-0.1,0c-0.1,0-0.2-0.1-0.3-0.2
			l-0.1,0l-0.1,0c-0.1,0.1-0.4,0.3-0.5,0.3l-0.1,0c-0.2,0.1-0.1,0.1-0.3,0l0,0c-0.2,0.1-0.2,0.1-0.3,0.3l0,0
			c-0.2,0.2-0.2,0.3-0.5,0.4c0,0-0.2,0-0.2,0.1l-0.1,0.1l-0.1,0.1c0,0-0.1,0.1-0.1,0.1l-0.1,0c0,0,0,0,0,0l-0.1,0.1l-0.1,0.1
			c0,0-0.1,0-0.1,0l0,0c-0.1,0-0.2,0-0.3,0c-0.2,0-0.3,0-0.4,0l-0.2-0.1"/>
		<path id="path147" class="st0" d="M25,31.6c-0.1,0-0.3,0-0.3,0.1c0,0.1,0,0.2,0.1,0.2c0.1,0,0.3,0,0.3,0s0-0.1,0-0.2
			S25.1,31.6,25,31.6z"/>
	</g>
</g>
</svg>
