<?xml version="1.0" encoding="utf-8"?>
<svg xmlns="http://www.w3.org/2000/svg" viewBox="0 0 60 40">
  <rect width="60" height="40" fill="#DE2910"/>
  <!-- Large yellow star (top-left area) -->
  <polygon fill="#FFDE00" points="12,5 13.5,9.8 18.6,9.8 14.5,12.6 16,17.4 12,14.6 8,17.4 9.5,12.6 5.4,9.8 10.5,9.8"/>
  <!-- Four small yellow stars -->
  <polygon fill="#FFDE00" points="23,3 23.8,5.4 26.4,5.4 24.3,6.9 25.1,9.3 23,7.8 20.9,9.3 21.7,6.9 19.6,5.4 22.2,5.4"/>
  <polygon fill="#FFDE00" points="27,8 27.8,10.4 30.4,10.4 28.3,11.9 29.1,14.3 27,12.8 24.9,14.3 25.7,11.9 23.6,10.4 26.2,10.4"/>
  <polygon fill="#FFDE00" points="27,15 27.8,17.4 30.4,17.4 28.3,18.9 29.1,21.3 27,19.8 24.9,21.3 25.7,18.9 23.6,17.4 26.2,17.4"/>
  <polygon fill="#FFDE00" points="23,20 23.8,22.4 26.4,22.4 24.3,23.9 25.1,26.3 23,24.8 20.9,26.3 21.7,23.9 19.6,22.4 22.2,22.4"/>
</svg>
