<?xml version="1.0" encoding="utf-8"?>
<!-- Generator: Adobe Illustrator 27.0.0, SVG Export Plug-In . SVG Version: 6.00 Build 0)  -->
<svg version="1.1" id="Layer_1" xmlns="http://www.w3.org/2000/svg" xmlns:xlink="http://www.w3.org/1999/xlink" x="0px" y="0px"
	 viewBox="0 0 67.2 57.1" style="enable-background:new 0 0 67.2 57.1;" xml:space="preserve">
<style type="text/css">
	.st0{fill:#FDFCEA;stroke:#FFFFFF;}
	.st1{fill:none;stroke:#FFFFFF;stroke-width:0.5;stroke-linecap:round;}
	.st2{fill:none;stroke:#FFFFFF;stroke-width:1.5;stroke-linejoin:round;stroke-miterlimit:3.8637;}
	.st3{fill:none;stroke:#FFFFFF;}
</style>
<g>
	<g id="Provinces_00000114048057799092096180000005425689154284205230_">
		<path class="st0" d="M1.8,46.4c0-0.2,0-0.4,0-0.4H2h0.1v0.1L2,46.2L1.8,46.4L1.8,46.4z"/>
		<path class="st0" d="M1.3,49.9L1.3,49.9l0.1-0.2v-0.2v-0.1l0,0l0,0c0-0.1,0-0.1,0-0.1v-0.1v-0.1C1.3,49,1.1,48.8,1,48.7
			c0.2-0.2,0.3-0.4,0.4-0.5l0.1,0.1c0.1,0,0.1-0.1,0.1-0.1v-0.1V48v-0.1l0,0l0,0V48v0.3l-0.1,0.4v0.4v0.2v0.5L1.3,49.9L1.3,49.9
			L1.3,49.9z"/>
	</g>
	<g id="Province_borders_00000078021258283937621380000012140856534177702047_">
		<path id="path64_00000113335750339786878290000006846996395478864046_" class="st1" d="M36.3,23.8c0.1,0.1,0.2,0.1,0.3,0.2
			s0.2,0.2,0.4,0.3c0.1,0.1,0.2,0.2,0.4,0.2l0.1,0.1l0.8,1.6l-0.1,0.9c2.4,3.2,4.7,6.4,7.1,9.7"/>
		<path id="path66_00000079481699863749574370000011622924049516125329_" class="st1" d="M41.7,10.3c-0.6,2.5-1.2,5-1.8,7.5l0,0
			c0.2,0,0.2,0.2,0.5,0.2c-1.4,1.9-2.8,3.8-4.2,5.8"/>
		<path id="path68_00000183958765456277044990000005438400571730985869_" class="st1" d="M38.2,7.8c0,0.1,0.1,0.2,0.1,0.3l0,0
			c0.1,0,0.1,0.1,0.1,0.2c0,0.1,0,0.2,0,0.2c0,0.1,0.2,0.2,0.3,0.3s0.2,0.2,0.2,0.3c0.1,0.1,0.3,0.2,0.5,0.2c0.1,0,0.2,0,0.3,0
			s0.2-0.1,0.3-0.1c0.2,0,0.8,0.3,0.9,0.4H41c0.1,0,0.2,0.1,0.3,0.1s0.3,0.2,0.3,0.3l0.1,0.1v0.2"/>
		<path id="path70_00000176018068936857383340000015072258702361858182_" class="st1" d="M41.7,10.3c0,0.1,0.1,0.3,0.2,0.4
			c0.1,0.1,0.3,0.5,0.4,0.5v0.1c0.1,0.1,0.1,0.2,0.2,0.3c0.1,0.1,0.3,0.4,0.4,0.4l0.1,0.1c1.5,1.4,3,2.7,4.4,4.1c1,1,2,1.9,3.1,2.9
			c0,0,0.2,0.1,0.3,0.2l0,0c0,0,0,0,0.1,0.1c0.2,0.2,0.1,0.2,0.4,0.3c0.2,0.1,0.4,0.2,0.6,0.3c0.1,0,0.7,0.2,0.9,0.2
			c0.7,0.1,1.4,0.1,2,0.1c0.1,0,0.1,0,0.2,0c0.1,0,0.2,0,0.3,0c0.4,0,0.7,0.1,1.1,0.1"/>
		<path id="path72_00000055702274266495339460000004510973654498947480_" class="st1" d="M26.6,21.7c-0.2-0.1-0.3-0.3-0.5-0.5
			c-0.1-0.1-0.6-0.6-0.7-0.6c-0.1-0.1-0.4-0.4-0.5-0.5c0,0,0-0.1-0.1-0.1c-0.1-0.1-0.3-0.2-0.4-0.4c-0.1-0.2,0.1-0.8,0.1-1
			c0-0.1,0.1-0.5,0.1-0.6s0.1-0.3,0.2-0.4l0,0c0.1-0.1,0.1-0.3,0.2-0.4l0,0l0.1-0.1c0.1-0.1,0.1-0.2,0.2-0.3c0,0,0-0.1,0.1-0.1
			c0.1-0.1,0.2-0.1,0.2-0.2c0.1-0.1,0.1-0.2,0.1-0.3s0.1-0.2,0.1-0.3c-0.1-0.1-0.3-0.2-0.4-0.3s-0.3-0.4-0.3-0.4
			c-0.1-0.1-0.2-0.2-0.3-0.3c-0.1-0.2-0.1-0.2-0.1-0.4c0-0.1,0-0.3,0-0.4c0-0.1,0.2-0.3,0.3-0.4c0-0.1,0.1-0.2,0.1-0.3
			c0.1-0.1,0.2-0.3,0.3-0.4c0.2-0.1,0.5-0.2,0.6-0.3c0.1,0,0.2,0,0.3-0.1c0.2,0,0.7,0,0.8,0c0.4,0,0.8-0.1,1.1-0.2
			c0.1,0,0.1-0.1,0.2-0.1c0.1-0.1,0.3-0.2,0.4-0.2C28.9,12,29,12,29.1,12l0.6-0.4c0.1-0.1,0.5-0.6,0.6-0.7c0.1-0.1,0.1-0.4,0.2-0.5
			c0-0.1,0.1-0.5,0.1-0.6c0-0.2,0-0.4,0-0.6V9.1V8.7c0-0.1-0.1-0.1-0.2-0.1c-0.2,0-0.3,0.4-0.6,0.3c-0.2-0.1-0.3-0.5-0.2-0.6
			c0.1-0.1,0.6-0.1,0.7-0.1c0.1-0.1,0-0.6,0-0.6c0.1-0.4,0.1-0.6,0-0.9"/>
		<path id="path74_00000079459404678565672740000002882476030407056818_" class="st2" d="M27.2,22.3c0,0-0.1-0.2-0.2-0.2
			c-0.1-0.1-0.3-0.2-0.5-0.4"/>
		<path id="path76_00000033358746426993547270000016612033561423434388_" class="st1" d="M36.3,23.8L36,23.7c-0.1,0-0.2-0.1-0.2-0.1
			c-0.2-0.1-0.4-0.1-0.6-0.2c-0.2,0-0.4-0.1-0.5-0.1c-0.2,0-0.4,0-0.7-0.1c-0.1,0-0.3-0.1-0.4-0.1c-0.2-0.1-0.4-0.2-0.6-0.2
			c-0.1,0-0.3,0-0.5-0.1c-0.2,0-0.5-0.1-0.7-0.2c-0.2,0-0.3,0-0.5-0.1c-0.1,0-0.3-0.1-0.4-0.1c-0.3,0-0.6-0.1-1-0.1
			c-0.1,0-0.3,0-0.5,0s-0.4,0-0.6,0c-0.1,0-0.1,0-0.2,0c-0.2,0-0.4,0-0.7,0c-0.1,0-0.2,0-0.3,0c-0.1,0-0.2,0-0.3,0l0,0"/>
		<path id="path78_00000168108639271021783960000010351094708189999501_" class="st1" d="M8.1,27.7L8.1,27.7c0.1,0,0.1,0.1,0.1,0.1
			l-0.1,0.1l0,0l0,0c0.1,0.1,0.2,0,0.2,0.1v0.1v0.1l0,0c0.1,0,0.2-0.3,0.3-0.3h0.1l0.1,0.2h0.1c0.1,0,0.1,0.1,0.2,0.1l0.1-0.1h0.1
			l0,0c0-0.1,0-0.2,0.1-0.3l0,0c0-0.1,0-0.2,0.1-0.3c0,0,0.1-0.1,0.2-0.1c0.1-0.1,0.1-0.3,0.3-0.3h0.1c0.1,0,0.1,0.1,0.1,0.1
			s-0.1,0.1-0.1,0.2c0,0,0.1,0,0.2,0c0,0,0,0.1,0.1,0.2h0.2c0.1,0,0.2-0.2,0.3-0.2l0.2,0.1c0.1,0,0.1,0,0.2,0c0,0,0.1,0,0.2,0
			l0.2-0.1l0,0h0.1c0,0,0.1,0,0.1-0.1l0,0c0.1,0,0.1,0,0.2,0c0.1,0,0.1-0.1,0.1-0.1h0.1h0.1l0.1-0.1c0.1,0,0.1,0,0.2,0
			c0.1,0,0.2,0,0.2,0L13,27c0.1,0,0.2,0,0.3,0h0.1l0.2-0.1c0.2,0,0.4,0,0.5,0.2c0,0.1,0,0.2,0.1,0.3l0.1,0.1v0.1c0,0,0,0,0.1,0
			l0.1,0.2l0.2,0.2c0,0.1,0,0.2,0.1,0.2s0.3-0.2,0.4-0.2l0,0c0,0,0.1,0,0.1-0.1c0.1,0,0.1-0.1,0.2-0.1c0.1-0.1,0.3,0,0.4-0.1v-0.1
			c0.1-0.1,0.2-0.1,0.3,0l0,0c0.1,0,0.1,0,0.2,0.1l0,0c0-0.2,0-0.3,0.3-0.3c0.4-0.1,0.3,0.2,0.5,0.3c0.1,0,0.1,0.1,0.2,0.1h0.1
			c0.2-0.1,0.1-0.1,0.2-0.3l0.1-0.1c0,0,0-0.2,0.1-0.2c0.2-0.1,0.2,0,0.4,0l0,0c0-0.1,0-0.1,0-0.2h0.1c0.1,0,0.2,0.1,0.3,0.1
			c0.1,0,0.2-0.1,0.3-0.2h0.1h0.1l0,0l0,0h0.1c0.1,0,0.2,0,0.2,0c0.1,0.1,0.1,0.3,0.3,0.2h0.1c0.1-0.1,0-0.2,0-0.3
			c0-0.1,0-0.3,0-0.5c0.1-0.2,0.2-0.2,0.4-0.3c0.1-0.1,0.2-0.2,0.4-0.2c0,0,0.2,0,0.3,0c0.2,0,0.3-0.1,0.5-0.2c0.1,0,0.2,0,0.2,0
			c0.1,0,0.3-0.1,0.4-0.1l0,0c0.4-0.1,0.3,0.2,0.5,0.3c0.1,0,0.1,0,0.2,0s0.2,0,0.3,0.2v0.1l0.1,0.1c0,0.1,0,0.1,0.1,0.2
			c0,0.1,0,0.2,0.1,0.3c0.1,0.1,0.1,0.1,0.2,0.1c0.2,0.1,0.4,0.3,0.6,0.5c0.1,0.1,0.1,0.1,0.1,0.2s0.1,0.1,0.1,0.1s0,0.1,0.1,0.1
			c0,0.1,0.1,0.1,0.1,0.2c0,0,0.1,0.1,0.1,0h0.1l0.2-0.2v-0.1c0-0.1,0.1-0.1,0.1-0.2v-0.2c0-0.1,0.1-0.3,0.2-0.3v-0.2
			c0.1-0.1,0.2-0.3,0.4-0.3c0.3-0.1,0.5-0.2,0.8-0.3c0.2-0.1,0.5-0.1,0.7-0.2c0-0.1,0-0.3,0-0.4c0-0.4,0.2-0.6,0.4-0.9
			c0,0,0,0,0-0.1c0.3-0.5,0.2-1,0.2-1.5c0-0.1,0-0.2,0-0.2v-0.1"/>
		<path id="path80_00000150089957927163743700000001820617225671127224_" class="st1" d="M16.8,20.5L16.8,20.5
			c0.1,0,0.2,0.1,0.3,0.1c0.1,0,0.4,0.1,0.5,0.2s0.2,0.1,0.3,0.2c0.1,0.1,0.5,0.1,0.6,0.1s1-0.1,1.1-0.1c0.2,0,0.4-0.1,0.5,0
			c0.1,0,0.1,0.1,0.2,0.1c0.2,0.2,0.5,0.3,0.7,0.5c0.1,0.1,0.4,0.2,0.5,0.2c0.2,0,0.3,0,0.5,0h0.1c0.2,0,0.4,0.1,0.5,0.1
			s0.2,0,0.3,0c0.2,0,0.3,0,0.5,0c0.1,0,0.2,0,0.2,0c0.2,0,0.3,0,0.5,0h0.1c0.2,0,0.4,0,0.6,0.1c0.1,0,0.7,0,0.9-0.1
			c0.3,0,0.7-0.1,0.9,0"/>
		<path id="path82_00000100376307823206626120000009210166847445224838_" class="st1" d="M6.2,30.6c0-0.1,0-0.2,0-0.3
			c0.1-0.2,0.2-0.3,0.3-0.5c0.1-0.1,0.2-0.3,0.3-0.4c0-0.1,0-0.2,0.1-0.2L7,29.1c0.2-0.4,0.3-0.2,0.4-0.3c0-0.2,0.3-0.3,0.4-0.4
			c0.1-0.2-0.2-0.5,0.4-0.6"/>
		<path id="path84_00000052101123817078241720000017326429079925105572_" class="st1" d="M7.5,24.1c0,0.1,0,0.2,0,0.3
			c0,0.1,0,0.2,0,0.3c0,0.1,0,0.2,0,0.3c0,0.2,0,0.3,0,0.5l0,0c0,0.1,0,0.2,0,0.3l-0.1,0.1V26c0,0.1-0.2,0.1-0.2,0.2l0,0
			c-0.1,0-0.1,0-0.2,0v0.1c-0.1,0-0.1,0-0.2,0l-0.1,0.1c-0.1,0-0.2-0.1-0.3,0l0,0.1c0,0.1,0,0.2,0,0.3c0,0.1,0.1,0.1,0.1,0.1
			c0.1,0,0.3,0.1,0.4,0.1c0,0,0,0,0.1,0s0.2,0,0.4-0.1h0.1c0,0.1,0.1,0.1,0.1,0.2s0,0.2,0.1,0.3c0.1,0.2,0.3,0.1,0.4,0.3"/>
		<path id="path86_00000168816642242337973660000012012736695930145949_" class="st1" d="M7.5,24.1C7.4,24.1,7.4,24.1,7.5,24.1
			c-0.2-0.1-0.3-0.2-0.4-0.2S7,23.9,7,24c-0.1,0.1-0.2,0.1-0.3,0.1c-0.3,0.1-0.6,0-1,0c-0.1,0-0.2,0.1-0.3,0.1H5.3l-0.1-0.1
			c-0.1-0.1-0.3-0.2-0.4-0.3c-0.1-0.1-0.2-0.1-0.3-0.1"/>
		<path id="path88_00000166644163939166075030000002552989231247716519_" class="st1" d="M7.5,18.2c-0.1,0-0.2,0.1-0.2,0.2
			s0,0.1,0,0.2s-0.1,0.2-0.2,0.2H6.9c0,0-0.1,0.1-0.1,0.2s0.1,0.2,0.2,0.2c0.1,0.1,0.1,0.1,0.1,0.2l0,0c0,0.1,0,0.2,0,0.3
			c0,0.3,0,0.5,0,0.8c0,0.1,0,0.2-0.1,0.3c0,0.2,0,0.4-0.1,0.5c0,0.1-0.1,0.2-0.1,0.4c0,0.1,0.1,0.4,0.1,0.5S7,22.3,7,22.4
			s0,0.1,0,0.2s0,0.1,0.1,0.2v0.1c0.2,0.5,0.2,0.7,0.2,1.2"/>
		<path id="path90_00000035532080577227832170000011498877579909142919_" class="st2" d="M7.5,18.2L7.5,18.2
			c0.1-0.1,0.3-0.1,0.3-0.3v-0.1c-0.1-0.1-0.2,0-0.3,0c-0.1,0-0.1,0-0.2,0H7.2c0,0-0.1,0-0.2,0s-0.4,0.2-0.5,0v-0.1
			c0-0.1,0.1-0.1,0.1-0.2"/>
		<path id="path92_00000161613535777257613390000000333124777605473409_" class="st1" d="M16.8,20.5L16.8,20.5
			c-0.3,0.1-0.2,0.2-0.3,0.4c0,0.1-0.1,0.2-0.1,0.2v0.1c0,0.1-0.1,0.1-0.1,0.1c-0.2,0.1-0.3,0.1-0.4,0.1c-0.1,0.1-0.1,0.3-0.2,0.4
			c-0.1,0.1-0.1,0.1-0.2,0.3v0.1c0.1,0.1,0.2,0.1,0.3,0c0-0.1,0.1-0.2,0.2-0.2c0,0,0,0,0.1,0c0.2,0,0.1,0.3,0.1,0.4s0,0.2,0,0.3l0,0
			c0,0-0.1-0.1-0.2-0.1c-0.1,0-0.2,0.1-0.3,0.3C15.6,23,15.4,23,15.3,23c-0.2,0-0.3,0.1-0.5,0v-0.1v-0.1c0-0.1-0.1-0.3,0-0.3
			c0-0.1,0.1-0.1,0.1-0.2c0.1-0.1,0-0.4-0.1-0.4l0,0c-0.1,0.1-0.1,0.2-0.1,0.2c-0.1,0.1-0.2,0.1-0.2,0.2c-0.1,0.1-0.1,0.2-0.1,0.3
			c0,0-0.2,0-0.3,0H14c0,0,0-0.1-0.1-0.1s-0.1-0.1-0.2-0.1c0,0,0-0.1-0.1-0.2l-0.1-0.1c-0.1-0.1-0.2-0.2-0.3-0.2S12.8,22,12.6,22
			c-0.1,0-0.2,0-0.3,0s-0.2,0.1-0.2,0.1h-0.2c-0.3,0-0.5,0-0.8-0.1c-0.1,0-0.2-0.1-0.4-0.1c-0.1,0-0.2,0-0.2,0
			c-0.2,0-0.3-0.1-0.3-0.3l-0.3-0.2c-0.1,0.1-0.4,0.3-0.6,0.2l-0.1-0.1C9.1,21.4,9.1,21.2,9,21c0-0.1-0.1-0.2-0.1-0.2L9,20.7
			c0-0.1,0-0.3,0-0.4s0-0.1,0-0.2c0,0-0.1-0.2-0.1-0.3c0-0.3,0.1-0.5,0.2-0.8v-0.1c0-0.1,0.1-0.4,0-0.5s-0.5,0-0.6-0.1
			c0-0.1-0.1-0.2-0.1-0.3c-0.3-0.1-0.3,0.2-0.6,0c-0.1,0-0.1-0.1-0.2-0.1l0,0"/>
		<path id="path94_00000097482930716718748390000002247006320393514642_" class="st1" d="M11.5,12c0.1,0,0.3-0.1,0.4-0.1
			c0.1,0,0.1,0.1,0.2,0c0.1,0,0.2-0.2,0.3-0.2c0.2,0,0.1,0.3,0.2,0.4c0.1,0.1,0.2,0.1,0.3,0.2c0,0,0,0,0,0.1l0.1,0.1
			c0.1,0.1,0.1,0.2,0.2,0.3c0,0,0,0.1,0,0.2c-0.1,0.2-0.2,0.2-0.3,0.4l-0.1,0.1c0,0-0.1,0-0.1,0.1c-0.1,0.1-0.1,0.1-0.1,0.2
			c0,0-0.1,0-0.1,0.1L12.4,14c-0.1,0-0.1,0.1-0.2,0.1l-0.1,0.1c0.1,0.2,0.1,0.1,0.2,0.2c0,0.1,0,0.1,0,0.2c0,0,0,0,0.1,0.1
			s0.2,0.1,0.3,0.2c0.2,0.1,0.4,0.1,0.6,0.2h0.1c0.2,0.1,0.3,0.1,0.3,0.4c0,0.1,0,0.2,0,0.3s0,0.1,0,0.2c0,0.1,0.1,0.2,0.2,0.2
			c0.1,0.2,0.3,0.3,0.4,0.5v0.1c0,0,0.2,0.1,0.2,0.2v0.2c0,0,0.1,0.1,0.2,0.1c0,0.1,0.1,0.1,0.1,0.2c0.1,0.1,0.3,0.1,0.4,0.2l0,0
			c0.1,0.1,0.1,0.2,0.2,0.2c0.1,0.1,0.4,0.1,0.4,0.4c0,0.1-0.1,0.3-0.2,0.3c-0.1,0-0.3,0.1-0.2,0.2s0.1,0.2,0.1,0.4v0.1
			c0,0,0.1,0.1,0.1,0.2s0,0.2,0,0.3c0.1,0,0.2,0,0.2,0.1c0,0.3,0.2,0.2,0.4,0.3c0.1,0,0.1,0.1,0.2,0.2l0,0h0.1c0,0,0.1,0,0.1,0.1
			h0.1c0,0,0.1,0,0.1,0.1"/>
		<path id="path96_00000004513211647267307820000001789791861584508331_" class="st1" d="M11.1,35.4c0,0,0.2-0.2,0.3-0.2h0.1h0.2
			c0.1,0,0.3,0.2,0.4,0.2c0.1,0,0.2,0,0.3,0s0.3,0.1,0.4,0c0.2-0.1,0.5-0.3,0.7-0.3l0,0c0.1,0.1,0.5,0.6,0.6,0.7
			c0.1,0.1,0.3,0.3,0.3,0.4c0,0,0.1,0.1,0.1,0.2c0,0.1,0.4,0.6,0.4,0.6l0.1,0.1c0,0,0.1,0,0.1,0.1c0.1,0.1,0.1,0.2,0.1,0.2
			c0.1,0.1,0.5,0.3,0.6,0.4c0.1,0.1,0.5,0.2,0.5,0.3c0.1,0,0.1,0.1,0.2,0.2c0.2,0.1,0.5,0,0.6,0c0,0,0.1,0.1,0.1,0.2l0,0
			c0,0.1,0.4,0.7,0.4,0.7s0.1,0.2,0.2,0.2c0.1,0.1,0.1,0.1,0.2,0.2c0.1,0,0.1,0,0.1,0.1c0.1,0.1,0.2,0.2,0.3,0.3l0,0
			c0.2,0.1,0.2,0.2,0.3,0.3c0.1,0.1,0.2,0.1,0.2,0.1s0.3,0.2,0.4,0.3c0,0,0.3,0.2,0.4,0.3c0,0,0.2,0.2,0.3,0.3
			c0.1,0.1,0.1,0.3,0.2,0.3c0,0.1,0.1,0.4,0.2,0.5v0.1c0.1,0.2,0.2,0.3,0.3,0.5c0.1,0.1,0.1,0.1,0.1,0.2c0.1,0.1,0.2,0.2,0.4,0.3
			c0.1,0.1,0.2,0.1,0.2,0.1l0.1,0.1l0.5,0.3c0.1,0,0.2,0.1,0.4,0.1h0.1c0.1,0,0.2,0,0.2,0c0.2,0.1,0.3,0.2,0.4,0.3l0,0
			c0.1,0,0.3,0.2,0.4,0.3c0.1,0,0.1,0.1,0.2,0.1c0.1,0.1,0.2,0.3,0.3,0.3c0,0,0,0,0.1,0c0.1,0.1,0.4,0.4,0.5,0.5s0.2,0.1,0.3,0.2
			c0.1,0,0.1,0.1,0.2,0.1c0.1,0.1,0.2,0.1,0.3,0.2l0,0c0.1,0.1,0.6,0.5,0.6,0.5c0.2,0.1,0.3,0.2,0.5,0.3c0,0,0.3,0.2,0.4,0.3
			c0.1,0,0.1,0.1,0.2,0.2c0.1,0.1,0.2,0.1,0.3,0.2"/>
		<path id="path98_00000030446090322025390810000004244697955208121522_" class="st1" d="M10.5,46.6L10.5,46.6c0.2-0.1,0.3,0,0.4,0
			c0.1,0,0.7-0.1,0.9-0.1c0.1,0,0.2,0,0.3,0c0.2,0,0.6-0.2,0.8-0.2c0.1,0,0.2,0.2,0.3,0.3c0.2,0.1,0.2,0.1,0.4,0.2l0.1,0.1
			c0,0.1,0,0.1,0,0.2l0,0l0.1,0.1c0.1,0.1,0.2,0.2,0.3,0.3s0,0.3,0.1,0.4l0.1,0.1c0.2,0.1,0.5,0.1,0.7,0.1c0.1,0,0.2,0.1,0.3,0.1
			l0.1,0.1c0.1,0,0.1,0,0.2,0.1c0,0.1,0,0.2,0,0.2c0,0.1,0.1,0.1,0.2,0.2l0.1,0.1c0,0.1,0,0.2,0.1,0.2s0.1,0,0.2,0.1l0.1,0.1
			c0.1,0,0.1,0.1,0.2,0.1c0.2,0,0.2-0.2,0.3-0.2c0.1,0,0.2,0.1,0.3,0.1l0.1,0.1c0.2,0.2,0.1,0.7,0.2,0.8l0.1,0.1
			c0.1,0.1,0.1,0.1,0.2,0.2c0.1,0,0.1,0.1,0.1,0.2l0.1,0.1c0.1,0.1,0.6,0.5,0.6,0.6c0.1,0.1,0.1,0.1,0.1,0.2
			c0.1,0.1,0.3,0.3,0.4,0.3c0.1,0.1,0.2,0.2,0.3,0.3"/>
		<path id="path100_00000042703530035646954740000001899279942368589742_" class="st1" d="M10.5,46.6c0,0-0.1,0.1-0.2,0.1
			c-0.1,0-0.2-0.1-0.3-0.1s-0.1,0.1-0.2,0.1c-0.1,0.1-0.3,0.2-0.2,0.3c0,0.1,0,0.1,0,0.2c0,0.1,0,0.1,0,0.2c0,0.1,0.1,0.2,0.1,0.4
			c0,0.1,0,0.2,0,0.3l0.1,0.1c0.1,0,0.2-0.1,0.3-0.1h0.1c0.1,0.1,0,0.2,0,0.3s0.1,0.2,0.1,0.2c-0.1,0.1-0.2,0-0.3,0s-0.3,0-0.4,0
			c-0.1,0-0.1,0-0.2,0c-0.1,0-0.3,0-0.4,0.1l-0.1,0.1c-0.1,0-0.1,0.1-0.2,0.1L8.6,49c0,0.2-0.2,0.3-0.3,0.4c0,0.1,0.1,0.2,0.1,0.2
			c0,0.1,0,0.1-0.1,0.2c-0.1,0.1,0,0.2,0,0.3s0,0.2,0,0.3s0.2,0.3,0.2,0.3c0,0.1-0.1,0.2-0.1,0.2c0,0.1,0,0.3,0,0.4
			c0,0.1,0.2,0.3,0.1,0.4c-0.1,0-0.1,0-0.1,0.1s0,0.3,0.1,0.4c0.1,0.1,0.1,0,0.2,0c0,0,0,0,0.1,0h0.1c0.1,0.1,0.5-0.1,0.5,0.3
			c0,0.1,0,0.2-0.1,0.2c0,0-0.1,0-0.1,0.1l-0.1,0.1c-0.1,0-0.2,0-0.2,0.1C8.8,53.1,9,53.2,9,53.2c0,0.1-0.1,0.2-0.1,0.3l0,0
			c0.2,0.1,0.5,0,0.6,0l0.1,0.1h0.1c0.1,0,0.1,0,0.2,0c0.1,0,0.1,0.1,0.1,0.2v0.1c-0.1,0.1-0.2,0.2-0.1,0.3c0.1,0.1,0.2,0.2,0.3,0.3
			s-0.1,0.5-0.1,0.7c0,0.1,0,0.3,0.1,0.4c0,0.2-0.2,0.3,0,0.4"/>
		<path id="path102_00000096742532827469948760000008745909177444836257_" class="st1" d="M3.5,45.1c0.1,0,0.1,0.1,0.2,0.1
			c0,0.1,0.1,0.1,0.2,0.1L4,45.4l-0.1,0.1c-0.1,0.1-0.1,0.4,0,0.5l0,0c0,0,0-0.1,0.1-0.1c0-0.1,0.3,0,0.4,0c0.1,0,0.2,0,0.2,0
			c0.1,0.1,0,0.2,0,0.2c0,0.1,0,0.2,0,0.3c0.1,0.1,0.2,0,0.2,0.1c0,0,0.1,0.1,0.1,0.2l0,0c0,0,0.1,0,0.2,0c0.3,0,0.4-0.3,0.7-0.3
			c0.2,0,0.4,0.1,0.5,0c0.1,0,0.2-0.1,0.2-0.1c0.2,0.1,0.4,0,0.5,0s0.1-0.1,0.1-0.1c0-0.1,0.1-0.1,0.1-0.2c0-0.1-0.1-0.3,0-0.4
			c0,0,0,0,0.1,0c0,0,0.1,0.2,0.2,0.2c0.1,0.1,0.1,0.1,0.2,0.1c0,0,0,0.1,0,0.2c0.1,0.2,0.3,0,0.4,0.3c0,0,0.1,0,0.1,0.1l0.1,0.1
			c0,0,0.3,0.1,0.4,0.1c0.1-0.1,0-0.2,0.1-0.3s0.2-0.2,0.3-0.3c0,0,0,0,0.1,0c0,0,0.4-0.2,0.4-0.3l0.1-0.1c0,0,0,0,0.1,0
			c0.2-0.1,0.2,0.1,0.3,0.3c0,0,0,0.1,0.1,0.1c0.1,0.1,0.3,0.3,0.3,0.4c0,0.1,0,0.1,0,0.2v0.1l0,0"/>
		<path id="path120_00000167375789903169463490000004350532609340612795_" class="st1" d="M8,42.5l-0.3,0.2l-0.2,0.1
			c0,0-0.2,0.1-0.1,0.2c0.1,0.1,0.1,0.2,0.2,0.3c0,0.1,0.1,0.3,0.1,0.3s0,0,0.2,0c0.1,0,0.4,0.2,0.4,0.2l0.2-0.1l0.1-0.3l0.1-0.3
			c0-0.1-0.1-0.2-0.1-0.2l-0.2-0.3l-0.1-0.1C8.2,42.5,8,42.5,8,42.5z"/>
		<path id="path122_00000010268433106508419160000001580483230143028365_" class="st2" d="M4.4,49.4c0,0,0.4-0.6,0.5-0.7
			c0,0,0.1-0.3,0-0.3s-0.2-0.2-0.2-0.3s-0.1-0.3,0.1-0.4s0.3-0.2,0.3-0.3S5,47.2,4.9,47.2s-0.2,0-0.2-0.2s0-0.4,0-0.4"/>
	</g>
	<g id="State_borders_00000052078771281834604230000004354389820798696608_">
		<path id="path46_00000124861366732098107170000006502183142503015075_" class="st3" d="M4.3,16.3l0.1,0.1c0.2,0,0.5-0.3,0.7-0.2
			c0.1,0,0.1,0.1,0.1,0.2v0.2c0,0.1-0.1,0.2,0,0.3c0,0,0.3,0,0.4,0S5.8,17,6,17c0.1,0,0.1,0,0.2,0c0,0,0,0,0.1,0
			c0.1,0.1,0.1,0.1,0.1,0.3l0.1,0.2l0.1,0.1l0.1-0.2v-0.1v-0.4c0-0.1,0-0.1-0.1-0.2l0,0c0-0.1,0-0.1,0.1-0.2
			c0.1-0.2,0.2-0.4,0.5-0.5c0.2,0,0.2,0.1,0.3,0.1c0.1,0,0.2,0,0.3-0.1l-0.1-0.2c0-0.1,0.1-0.2,0.2-0.3c0.1,0,0.2,0.1,0.3,0.1
			c0.1,0,0.4,0,0.4-0.2c0-0.1,0-0.1,0-0.2c0-0.2,0.2-0.1,0.1-0.5l0.1-0.2c0-0.1-0.1-0.1-0.1-0.2c0-0.1,0-0.1,0-0.2l0.1-0.3
			c0-0.1-0.1-0.2-0.1-0.3s0.1-0.2,0.1-0.2h0.1v-0.1c0-0.1-0.1-0.2-0.1-0.3h0.1c0.1,0,0.2,0.1,0.3,0.2c0.1,0,0.2,0,0.3,0.1
			c0.2,0,0.2-0.2,0.2-0.3l0,0h0.1c0.1-0.1,0.2-0.1,0.3-0.1l0.1,0.1c0,0,0.2-0.1,0.3,0c0.2,0.1,0.2,0.2,0.4,0.2L11,13h0.3
			c0.1-0.1,0.1-0.1,0.2-0.2c0,0,0-0.1,0.1-0.1c-0.1-0.1-0.1-0.2-0.1-0.2c0-0.1,0.1-0.1,0.1-0.2c0-0.1-0.2-0.1-0.3-0.1
			c0-0.1,0-0.2,0-0.3s-0.2-0.1-0.3-0.1s-0.1,0.1-0.3,0.1l0,0c0-0.1,0.1-0.2,0.2-0.3c0,0,0-0.2-0.1-0.2v-0.2c-0.1,0-0.3,0.1-0.3-0.1
			V11l-0.1-0.1c0-0.1,0-0.1,0-0.2l0,0c0,0,0-0.2,0-0.3l-0.1-0.2v-0.1l0,0c0.1,0,0.2-0.1,0.3-0.2c0,0,0.1-0.1,0.1-0.2
			c0-0.1,0-0.1,0-0.2c0-0.1,0.1-0.2,0.1-0.3V9.1c0-0.1-0.2-0.4-0.1-0.5c0-0.2,0.1-0.3,0.2-0.4C11,8.2,11.1,8,11.1,8
			c0-0.1,0.1-0.1,0.1-0.2c0-0.2,0-0.1-0.1-0.3c-0.1-0.1,0.1-0.3,0.2-0.4l0,0c0.1-0.1,0.2-0.2,0.3-0.3c0,0,0,0,0-0.1l-0.1-0.2
			l0.1-0.1l0.1,0.1c0.2,0,0.4,0.1,0.6,0.2c0.2,0.1,0.4,0.2,0.6,0.3c0.2,0.1,0.5,0.1,0.7,0.2s0.4,0,0.6,0c0.1,0.1,0.3,0.1,0.4,0.2
			c0.1,0.1,0.1,0.1,0.2,0.2c0.1,0.1,0.3,0.1,0.4,0.2c0,0,0.1,0,0.1,0.1S15,8.4,15,8.6l0.2,0.1l0.1,0.1c0.1,0,0.2,0.3,0.3,0.2h0.1
			c0-0.1,0.1-0.3,0.2-0.4c0,0,0.2-0.1,0.3,0c0.1,0,0.2,0.1,0.2,0.1c0.1,0.1,0.4-0.1,0.5-0.1H17c0.3,0,0.5,0,0.9,0.1
			c0.1,0,0.3,0,0.4,0c0.2-0.4,0.3-0.4,0.5-0.4c0.2,0,0.3,0.1,0.5,0.1l0,0l0.2-0.1c0.1-0.1,0.2-0.2,0.3-0.3c0.1-0.1,0.3-0.2,0.4-0.2
			c0.2-0.1,0.4-0.2,0.6-0.2c0.1,0,0.1-0.1,0.2-0.1c0.1-0.2,0.3-0.2,0.4-0.2s0.2-0.1,0.4-0.1c0.2,0,0.4,0.1,0.6,0
			c0.1,0,0.2-0.1,0.2-0.1C22.8,7,22.9,7,23.1,6.9c0.1,0,0.3-0.1,0.4-0.1c0.3-0.1,0.5-0.3,0.8-0.4h0.1l0.3-0.1l0.1-0.1
			C24.8,6.1,24.9,6,25,6c0.1-0.1,0.4-0.2,0.5-0.2c0,0,0.3-0.1,0.5-0.2c0.1,0,0.2-0.2,0.3-0.1c0.1,0,0.2,0,0.3,0
			c0.1,0,0.2-0.1,0.4-0.1c0.1,0,0.2,0,0.3,0.1c0.1,0,0.1,0,0.2,0s0.6,0.1,0.6,0.1c0.1,0,0.2,0,0.3,0c0.1,0,0.3,0.1,0.4,0.2
			s0.3,0.1,0.4,0.2c0.1,0,0.2,0.1,0.3,0.1c0.1,0.1,0.3,0.1,0.4,0.2l0,0l0.2,0.2l0.1,0.1c0.1,0.1,0.2,0.2,0.2,0.2
			c0,0.1,0.1,0.1,0.1,0.2c0.1,0.1,0.2,0.2,0.3,0.3c0.2,0,0.4,0.2,0.6,0.3c0.1,0,0.3,0.1,0.4,0.1c0.2,0,0.4,0,0.7,0l0,0
			c0.3,0,0.6,0,0.9,0c0.1,0,0.2,0,0.3,0c0.2,0,0.3,0,0.5,0s0.4,0,0.6,0.1c0.2,0,0.4,0.1,0.6,0.1C35.6,8,35.8,8,36,8.1
			c0.1,0,0.7-0.1,0.9-0.2c0.1,0,0.3-0.1,0.4-0.1c0.3,0,0.5,0,0.8-0.1c0.1,0,0.1-0.1,0.2-0.1h0.1c0.1,0,0.2,0,0.3,0s0.3,0,0.5-0.1
			c0.2,0,0.3-0.1,0.5-0.1s0.4,0,0.6-0.1c0.2,0,0.4-0.2,0.6-0.2c0.3,0,0.9,0,1.1-0.1c0.2-0.1,0.3-0.2,0.5-0.2
			c0.2-0.1,0.5-0.1,0.7-0.2c0.2,0,0.4-0.2,0.6-0.3c0.1,0,0.2,0,0.3-0.1c0.1,0,0.1-0.1,0.2-0.1L44.4,6c0.1,0,0.3-0.1,0.4-0.1
			c0.1,0,0.2,0,0.2,0c0.1,0,0.1,0,0.2,0c0.2,0,0.4-0.2,0.5-0.2c0.1-0.1,0.2-0.1,0.3-0.2c0,0,0.1,0,0.2-0.1c0.2-0.1,0.3-0.2,0.5-0.3
			C46.8,5.1,46.9,5,47,5s0.2-0.1,0.3-0.1c0.2-0.1,0.3-0.3,0.5-0.4s0.6-0.1,0.8-0.2c0.1,0,0.2,0,0.2,0c0.1,0,0.2-0.1,0.3-0.2
			c0.1,0,0.1-0.1,0.2-0.1c0.1,0,0.3-0.1,0.3-0.1c0.1-0.1,0.3-0.1,0.4-0.2l0.1-0.1c0.2-0.2,0.3-0.3,0.4-0.3s0.2,0,0.3-0.1
			c0.1,0,0.3-0.1,0.4-0.2h0.4l0.1,0.1c0.1,0,0.2,0,0.2,0L52,3c0.2-0.1,0.5-0.1,0.8-0.1l0,0c0.3,0.1,0.5,0.2,0.8,0.2
			c0.1,0,0.2,0,0.3,0c0.1,0.2,0.3,0.2,0.5,0.2c0,0,0.4,0,0.5,0s0.2,0.1,0.3,0.1l0.1,0.1h0.1c0.1,0,0.2,0,0.2,0
			c0.1,0,0.2-0.1,0.3-0.1c0.2,0,0.6,0,0.8,0c0.4,0,0.7,0,1.1,0c0.1,0,0.3,0,0.4,0c0.2,0,0.4,0,0.5-0.1c0,0,0.2,0,0.3-0.1
			c0.2,0.1,0.4,0,0.6-0.1c0.1,0,0.2,0,0.3,0l0,0c0.1,0,0.3,0,0.4,0c0.2,0,0.4-0.1,0.6-0.1l1.8-0.4c0.1,0,0.3-0.1,0.4-0.2
			c0.1,0,0.3-0.1,0.4-0.1s0.1-0.1,0.2-0.1c0.1,0,0.2-0.1,0.3-0.1s0.1-0.2,0.2-0.2c0,0,0.1-0.1,0.2-0.2l0.1-0.1
			c0.1-0.1,0.3-0.2,0.4-0.3C65,1.2,65.1,1,65.2,0.9c0,0,0.1,0,0.2,0l0,0c0,0.1-0.1,0.2-0.1,0.3v0.1h0.1h0.1c0.1,0,0.2,0,0.3,0.1h0.1
			l-0.1-0.1c0.2,0.2-0.1,0.1,0.3,0.3c0,0.1,0.1,0.2,0.3,0.2v0.1c0.1,0.1,0,0.3-0.1,0.3c-0.1,0.2,0,0.3,0.1,0.5c-0.1,0.1,0,0.2,0,0.4
			"/>
		<path id="path54_00000030461170941322297470000014614443967185151912_" class="st3" d="M2.8,45.1C2.9,45.1,3,45,3.1,45
			c0,0,0.1-0.1,0.2-0.1c0,0,0-0.3,0.1-0.4c0-0.2,0.3-0.3,0.4-0.4c0.1,0,0.2-0.1,0.3-0.2l0.1-0.1c0.1-0.1,0.3-0.2,0.3-0.3v-0.3
			l-0.1-0.1l0.1-0.2c0.1,0,0.1,0,0.2,0c0,0,0-0.1,0.1-0.1s0.1,0.1,0.2,0c0,0,0.1-0.1,0.2-0.1h0.1l0.1-0.1c0-0.1,0.2-0.2,0.2-0.3
			c0.1,0-0.1-0.2-0.2-0.2l-0.2-0.2H5.1c-0.1,0-0.1-0.1-0.2-0.2l-0.1-0.1l0,0c-0.2,0.1-0.1,0-0.2,0s-0.2-0.1-0.2-0.2l0.1-0.1
			c0,0,0-0.1,0.1-0.1c0,0,0.1,0,0.2-0.1l0.1-0.2c0,0,0-0.1-0.1-0.1c0-0.1,0.2-0.1,0.2-0.2l0.1-0.3c0.1-0.1,0.1-0.1,0.1-0.2V40
			c0.1,0,0.1,0.1,0.1,0.1s0.1-0.1,0.2-0.2c0.1-0.1,0.1-0.2,0.1-0.3l0.1-0.1c0.1,0,0.1,0.1,0.2,0.1l0.2-0.1v-0.1c0,0,0.2,0,0.3,0
			c0.1,0,0.1-0.2,0.2-0.2s0,0.1,0.1,0.2l0,0c0,0,0.4,0,0.4,0.1l0.1-0.1h0.2c0-0.1,0-0.1,0.1-0.2c0,0,0,0,0.1,0
			c0.2,0.1,0.2,0,0.3,0.1C8,39.3,8,39.4,8,39.4s0.1,0,0.2,0c0.1,0,0.1,0.1,0.2,0.1h0.1c0.1,0,0.2,0,0.2,0.1c0.2,0,0.3-0.1,0.3-0.1
			c0-0.1,0.1-0.2-0.1-0.3c0,0-0.1,0-0.1-0.1V39c-0.1,0-0.2,0-0.3,0c-0.3,0-0.1-0.2-0.3-0.2c-0.1,0-0.3-0.1-0.3-0.1
			c0-0.1,0.2-0.4,0.2-0.5s0.1,0,0.1-0.1c0,0,0-0.1,0.1-0.1c0-0.1,0.1-0.1,0.2-0.2l0.1-0.1c0.1-0.1,0.1,0.1,0.2-0.1
			c0.1,0,0.1,0,0.1-0.1s0-0.1,0.1-0.2h0.1v-0.2h0.1L9.3,37c0.1,0.1,0.2,0.1,0.3,0.1c0,0,0.2,0,0.2,0.1l0.1-0.1H10
			c0,0,0.1-0.3,0.2-0.3c0,0-0.1-0.1,0-0.2c0,0,0.1-0.1,0.2-0.1l0.1-0.2c0,0,0.1,0,0.2,0l0.1-0.1c-0.1-0.1-0.1-0.1,0-0.1
			c0.1-0.1,0.1-0.2,0.2-0.3l0.1-0.1c0.1,0,0.1,0,0.2-0.1l0,0c0,0-0.1-0.1-0.2-0.2c-0.1,0-0.2,0-0.2-0.1s0-0.1,0-0.2
			c0-0.1-0.1-0.2-0.1-0.3l0.2-0.1l0.1-0.1c0-0.1,0-0.1-0.1-0.1c0,0-0.2,0-0.3-0.1l0,0v-0.1c-0.1-0.1-0.1-0.1-0.1-0.2
			c0-0.1,0-0.1-0.1-0.2c0,0,0,0,0-0.1c0,0,0.3-0.2,0.3-0.4s-0.2-0.1-0.2-0.2c0,0-0.1-0.1-0.2-0.1c0,0,0,0,0-0.1l-0.1-0.1h-0.1
			L10,32.8c-0.1,0-0.2,0-0.2-0.2s-0.1,0-0.1-0.1s0-0.2,0-0.2H9.6c-0.1,0-0.1,0-0.1,0c-0.1,0-0.2,0.1-0.3,0.1s-0.1,0-0.2,0l-0.1-0.1
			c-0.5-0.2-0.5-0.1-0.6-0.2C8.2,32,8.2,32,8.2,31.9v-0.1l0.3-0.1c0.1,0,0.5-0.3,0.5-0.3c0-0.1-0.1-0.2-0.1-0.3c0-0.2,0.1-0.2,0-0.2
			c0,0,0.1-0.1,0.2,0C9.3,31,9.2,31,9.2,31.1h0.2c0.1-0.1,0-0.3,0.1-0.3c0,0,0.1-0.1,0-0.2c-0.2,0.1-0.2,0.1-0.3,0.2c0,0,0,0-0.1,0
			c0,0-0.1-0.1-0.2-0.2H8.8c-0.1,0-0.3-0.1-0.4-0.3l0,0c0,0,0-0.1-0.1-0.1c-0.1,0-0.1,0-0.2-0.1c-0.1,0-0.1,0-0.2,0.1v0.1
			c0,0.1,0.1,0.1,0,0.1v0.1c0,0-0.1,0.1-0.1,0.2H7.6l-0.2-0.1l-0.1,0.1l0,0c-0.1-0.1-0.2-0.1-0.2-0.1H7l-0.1,0.1c0,0-0.1,0-0.1-0.1
			H6.6l-0.2-0.1l0,0l-0.1,0.1H6.2l-0.1,0.1c0,0-0.1-0.1-0.1,0c0,0,0,0-0.1,0H5.8H5.7l0,0H5.6l-0.3-0.1l0,0c-0.1,0-0.1,0-0.1,0H5.1
			c0,0,0,0.1-0.1,0.1"/>
		<path id="path21_00000106856299024494699200000011142295315983766962_" class="st3" d="M4.8,30.5L4.8,30.5c0-0.1,0-0.2-0.1-0.2
			l0,0c0-0.1,0-0.1-0.1-0.2L4.5,30c0-0.1,0-0.2-0.1-0.3c0-0.1-0.1-0.1-0.1-0.2c-0.1-0.2,0-0.3,0-0.5c0-0.1-0.1-0.2-0.2-0.3v-0.1l0,0
			c0,0,0,0,0-0.1c0,0,0,0,0-0.1v-0.1C4.1,28.2,4,28.1,4,28v-0.1c0-0.1-0.1-0.3-0.1-0.3l0,0c0,0-0.1,0-0.1-0.1c0.1,0,0.1,0,0.1,0l0,0
			c0,0,0,0-0.1,0l0,0c0,0,0.1,0,0.1-0.1c0,0,0-0.2,0-0.3c0,0,0,0,0-0.1s0.1-0.1,0-0.1l0,0c0-0.1,0-0.1,0-0.2s0.2-0.1,0.2-0.2v-0.1
			v-0.1c0-0.1,0-0.1,0-0.2l0,0C4,26,4,25.9,4.1,25.8C4.2,25.7,4,25.7,4,25.6s0.1-0.1,0.1-0.2c0.2,0,0.1-0.1,0.2-0.2l0.1-0.1
			c0-0.1,0-0.2,0.1-0.3c0.1-0.1,0.3-0.1,0.3-0.2c0,0,0-0.1,0-0.2v-0.1c0-0.1-0.1-0.1-0.1-0.2s-0.2-0.2-0.2-0.4
			c0-0.1,0.1-0.3,0.1-0.4s0-0.1,0-0.2s0-0.2,0-0.3c0-0.1-0.1-0.3-0.1-0.5c0,0,0-0.1,0.1-0.1c0-0.1-0.1-0.1-0.1-0.2
			c-0.1-0.1-0.2-0.1-0.2-0.2c0,0-0.1-0.1-0.1-0.2s-0.1-0.1-0.1-0.2c-0.1,0-0.2-0.1-0.2-0.1s0,0-0.1,0v-0.1l0,0c-0.1,0-0.1,0-0.1,0
			c-0.1,0-0.2-0.1-0.2,0c0,0-0.1,0-0.1,0.1l0,0l0,0c-0.1-0.1,0.1-0.2,0.1-0.4c0-0.1-0.3-0.2-0.4-0.2c0-0.1,0.1-0.1,0.1-0.2l0,0l0,0
			c0,0-0.1,0.1-0.2,0.1l0,0c0.1-0.1,0.3-0.1,0.4-0.3h0.1v-0.1l0.1-0.1c0-0.1,0-0.2,0-0.2l0,0c0,0,0,0-0.1-0.1l0,0v-0.1
			c0.1-0.2,0.1-0.1,0.2-0.1c0,0,0.1-0.2,0.2-0.3c0,0,0,0,0.1,0c-0.6-0.6-0.6-0.7-0.6-0.7c0-0.1,0.1-0.1,0.1-0.2l0,0
			c0,0-0.1-0.2-0.1-0.3c0,0,0,0,0-0.1c0,0,0-0.1-0.1-0.1v-0.1c0,0,0-0.1-0.1-0.1c0-0.1,0-0.1,0-0.2l-0.1-0.1v-0.1L3,17.2
			c0,0,0.1,0,0.2,0c0,0,0,0,0.1,0s0.2,0,0.3,0c0-0.1,0.1-0.1,0.2-0.2c0,0,0.1-0.2,0.1-0.3v-0.1L4,16.5c0,0,0.1,0,0.1-0.1
			c0,0,0.1-0.1,0.1-0.2"/>
		<path id="path50_00000130645389297342100820000000146394260959359399_" class="st3" d="M31.9,44.6c0.4-0.3,11.4-6.8,11.7-6.9h0.1
			c0.1-0.1,3.3-2,4.7-2.8c0.4-0.2,1.5-0.9,1.6-0.9s0.9-0.1,1.1-0.1c0.2,0,1.3-0.3,1.8-0.4c0.2-0.3,0.1-0.3,0.4-0.4
			c0-0.1,0-0.1,0-0.2h0.1c0.1-0.2,1.1-2.4,1.1-2.4c0.2-0.3,0.9-1.2,1-1.3c-0.1-0.8-0.2-3.5-0.2-4l0,0c0-0.2,0.1-0.5,0.1-0.7
			c0-0.1,0-0.3,0-0.5c0-0.1,0.4-1.4,0.4-1.4c0-0.4,0-1.1,0-1.1s0.9-1.5,1-1.7c0-0.4,0-2.4,0-2.4c-0.1-0.2-1-2.2-1.1-2.4
			c0.1-0.7,0.3-2.5,0.3-2.7s0-0.3,0-0.5c0.2-0.3,0.6-1.1,0.7-1.1c0,0,0.4-0.7,0.4-0.8c0.7-0.1,3.8-0.7,4-0.7c0,0,0,0,0.1,0
			c0.2-0.2,0.8-0.7,1-0.9c0,0,4-4,4.3-4.4c0.1-0.2-0.1-0.1-0.2-0.2V3.6V3.5l0.1-0.2"/>
		<path id="path62_00000054234418224080876740000002161211948409933480_" class="st3" d="M2.7,51.6c0,0,0.2,0,0.3,0l0.1-0.1
			c0,0,0,0.3,0.1,0.2h0.2l0.1,0.1c0.1,0,0-0.1,0.1-0.1l0.1,0.1l0.1-0.1c0.1,0,0.1,0,0.1,0.1c0,0,0,0,0,0.1h0.2v-0.1c0,0,0.2,0,0.3,0
			c0.1,0,0.1,0.1,0.1,0.1V52h0.2c0,0,0.1,0.1,0.1,0.2l-0.2,0.1c0.1,0.1,0,0.1,0.2,0.1c0.1,0,0.2,0,0.2,0s0.1,0,0.2,0
			c0,0,0.1,0,0.1,0.1v0.2c0,0.1,0,0.2,0,0.3v0.1c0,0,0,0,0,0.1c0.1,0,0.3,0.2,0.3,0.2l0.1,0.1c0,0.1,0,0.2,0.1,0.3v0.1v0.2L6.2,54
			h0.3c0,0,0,0.1,0.1,0.1S6.8,54,6.9,54c0,0,0.1,0,0.1,0.1l0.1,0.2l0,0c0.1,0,0.2,0,0.2,0s0.1,0.1,0.2,0.1s0.4,0.3,0.5,0.3
			c0.2,0.2,0.9,0.8,0.9,0.9c0.1,0,0.7,0.1,0.8,0.1c0,0,0.1,0.1,0.2,0.1l1.8,0.2c0.1,0.1,0.1,0.1,0.2,0.2l0.1-0.1
			c0.1,0,0.8,0.2,1.1,0.2c0.1-0.1,0.2-0.3,0.4-0.4c0.1-0.1,5.8-3.6,6-3.8c0.2-0.1,4.1-2.4,4.9-2.9c1.6-1,7.5-4.6,7.6-4.6"/>
	</g>
</g>
</svg>
