<?xml version="1.0" encoding="utf-8"?>
<!-- Generator: Adobe Illustrator 27.0.0, SVG Export Plug-In . SVG Version: 6.00 Build 0)  -->
<svg version="1.1" id="Layer_1" xmlns="http://www.w3.org/2000/svg" xmlns:xlink="http://www.w3.org/1999/xlink" x="0px" y="0px"
	 viewBox="0 0 52.3 52.3" style="enable-background:new 0 0 52.3 52.3;" xml:space="preserve">
<style type="text/css">
	.st0{fill:none;stroke:#FFFFFF;}
	.st1{fill:none;stroke:#FFFFFF;stroke-width:0.5;stroke-linecap:round;}
</style>
<g id="layer3" transform="translate(-8.811185e-5,-1195.935)">
	<g>
		<g id="g6446" transform="matrix(3.987853,0,0,3.987853,-3648.298,-5462.912)">
			<path id="path10882" class="st0" d="M915.6,1670.1c-0.5,0.3-0.2,0.7-0.1,1.1c0,0.3-0.4,0.7-0.2,1c0.1,0.3,0.2,0.8,0.3,1.1
				c0.1,0.4,0,0.8,0.1,1.1c0,0.8,0,1.5,0.1,2.3c0,1.6,0.1,3.2,0.1,4.8c0,0.1,0,0.9,0.1,0.9c0,0,0,0,0,0h1.1h3.1h1.6h0.5
				c0.3,0,0.5,0.1,0.6-0.2c0-0.1,0.1-0.1,0.1-0.1c0,0,0,0,0.1,0c0,0.1,0,0.2,0,0.2c0.1,0,0.2,0,0.3,0c0.2,0,0.5,0,0.7,0
				c0.3,0,0.7-0.1,0.9,0c0.3,0.1,0.8,0.6,1,0c0.1-0.3,0.1-0.3,0.4-0.4c0.3,0,0.3-0.2,0.4-0.4c0-0.1,0.1-0.4,0.3-0.3
				c0.2,0.1,0.4-0.3,0.5-0.4c0,0,0-0.1-0.1-0.1c-0.1-0.3-0.2-0.6-0.1-1c0.1,0,0.2,0.1,0.3,0.1c-0.1-0.2-0.3-0.2-0.5-0.4
				c-0.1-0.2-0.3-0.4-0.4-0.6c-0.3-0.6-0.6-1.1-0.9-1.7c-0.1-0.2-0.2-0.3-0.3-0.5c0-0.1-0.2-0.2-0.2-0.3c0-0.1,0.1-0.1,0-0.2
				c-0.1-0.1-0.1-0.2-0.2-0.3c-0.1-0.2-0.2-0.4-0.3-0.5c-0.1-0.1,0-0.3-0.1-0.4c0.2,0.2,0-0.1,0-0.2c-0.1-0.1-0.2-0.2-0.3-0.3
				c-0.2-0.2-0.4-0.5-0.6-0.8c-0.2-0.3-0.2-0.6-0.4-0.9c-0.1-0.2,0-0.5,0.1-0.6c0.1,0.3,0.2,0.7,0.4,0.9c0.1,0.2,0.4,0.4,0.4,0.7
				c-0.1,0.3,0.3,0.4,0.5,0.6c0.1,0.2,0.2,0.3,0.4,0.4c0.1,0.1,0.3,0.1,0.4,0.2c-0.1-0.2,0.2-0.3,0.2-0.5c0-0.2,0-0.3,0.1-0.5
				c0.1-0.3,0-0.8,0.3-1.1c0.2-0.2-0.2-0.8-0.3-1c-0.2-0.4-0.3-0.9-0.5-1.4c-0.1,0.1-0.3,0.2-0.5,0.2c-0.2,0.1-0.4,0-0.6,0.1
				c0.1-0.2-0.2,0-0.3,0c-0.3,0-0.4-0.2-0.7-0.3c0.3,0.1-0.1,0.3-0.1,0.3c-0.1-0.1,0-0.2-0.2-0.2c-0.2,0,0-0.3-0.1-0.4
				c0.1,0,0.2,0.1,0.3,0.2c-0.1-0.1-0.1-0.2-0.2-0.2c-0.1,0-0.2,0.1-0.4,0.1c-0.2,0-0.4-0.3-0.7-0.2c0.3,0-0.4,0.2-0.4,0.3
				c0.1-0.1,0.2-0.2,0.3-0.2c-0.2,0-0.4,0.2-0.5,0.1c0,0.1-0.1,0.2-0.2,0.3c0.1,0,0.1,0,0.1,0c-0.1,0-0.2-0.1-0.3-0.1
				c-0.1,0.1-0.2,0.2-0.3,0.3c-0.2,0.2-0.5,0.4-0.8,0.3c-0.3,0-0.5-0.3-0.8-0.3c-0.1,0-0.2,0-0.3,0c-0.1,0-0.1-0.1-0.2-0.1
				c-0.1,0-0.2,0-0.3,0c-0.1,0-0.2-0.2-0.3-0.2c-0.3-0.1-0.6-0.2-0.9-0.2c-0.3,0-0.5-0.1-0.8,0
				C915.9,1670.3,915.6,1670.4,915.6,1670.1z M927.5,1681c0,0.1,0.1,0.2,0.2,0.3C927.6,1681.2,927.5,1681.1,927.5,1681z"/>
		</g>
	</g>
</g>
<path class="st1" d="M3.2,20.2c1.3,0,1.8-0.1,3.1-0.1c1.2-0.1,2.3,0,3.5,0c1.8,0,3.6,0,5.4,0c1.6,0,3.4-0.3,4.9,0c0-0.1,0.9,0,0.9,0
	c0,0,2.8,0.3,4.8,0.6c0.4,0.1,1.1,0.1,1.4,0.4c0.4,0.4,0.6,1.2,1,1.7c0.4,0.4,0.8,0.6,1.3,0.9c0.5,0.4,0.7,0.8,0.9,1.4
	c0.1,0.4,0.2,1.1,0.4,1.4c0.2,0.3,0.8,0.4,1.1,0.8c0.2,0.2,0.3,0.4,0.4,0.6c0.5,0.6,1.1,0.9,1.8,1.1c1,0.4,1.5-0.5,2.4-0.2
	c0.9,0.2,0.8,1,0.7,1.5c-0.3,1-0.9,1.8-1.1,2.9c-0.1,0.9,0,0.9,0.7,1.4c1.7,1.1,1.3,1.8,0.7,3.5c-0.1,0.3-0.2,1.2-0.6,1.4
	c-0.4,0.2-0.8,0-1.1,0.3c-0.3,0.4,0.2,1.3,0.1,1.8c0,0.2-0.3,0.4-0.3,0.6c-0.1,0.4,0.1,1,0,1.4c-0.2,1.3-0.7,1.4-1.8,1.5
	c-1.2,0.2-1.4,0.6-2.1,1.4c-0.3,0.4-0.9,0.7-1.2,1c-0.5,0.6-0.6,2.1-0.6,2.9"/>
<path class="st1" d="M22.3,4.5C21.9,5.4,22,7.4,22.9,8c0.8,0.5,2.2,0.8,2.7,1.6c-1.4,1-3,1.7-4.4,2.7c-0.6,1-1.2,2.8-2.3,3.3
	c-0.8,0.4-1.6,0.1-2.4,0.5c-0.8,0.5-1.9,0.8-2.3,1.5c-0.3,0.5-0.5,2-0.8,2.5"/>
<path class="st1" d="M45.3,11.9c-3.1-0.8-4.8-1.6-7.3-2c-1.2-0.2-1.7-0.2-2.4,1"/>
<path class="st1" d="M37.3,9.8c-0.9-2.3-1.7-4.2-2-5.7"/>
<path class="st1" d="M26.5,3c-0.4,1,0.6,2.8,1.1,3.8c0.2,0.5,0.4,0.7,0.8,1.1c0.6,0.5,1.3,0.8,1.5,1.6c0.3,1,0,2.1-0.2,3.1
	c-0.2,0.9-0.5,1.6-0.8,2.4c-0.3,0.8-0.2,1.7-0.2,2.5c0,1.4,0,4.7,0,6"/>
<path class="st1" d="M29.6,12.6c0.5,0.4,2,1.8,2.5,2.1c0.6,0.3,0.3,0.1,0.8,0c0.9-0.3,1.7-1.1,2.7-1"/>
<path class="st1" d="M28.8,7.9c1.8,0.1,3.4,0.1,4.6,0.2c0.7,0,2.5,0.2,3.2,0.2"/>
<path class="st1" d="M32.6,8.9c0,1.9,0.1,3.7-0.1,5.5"/>
<path class="st1" d="M28.7,15c-0.5,0-1.7-0.2-2.2-0.3c-1.2-0.1-2.3,0-3.4-0.1c-0.6,1.8-2,3.6-3.3,5.5"/>
</svg>
