<?xml version="1.0" encoding="utf-8"?>
<!-- Generator: Adobe Illustrator 27.0.0, SVG Export Plug-In . SVG Version: 6.00 Build 0)  -->
<svg version="1.1" id="Layer_1" xmlns="http://www.w3.org/2000/svg" xmlns:xlink="http://www.w3.org/1999/xlink" x="0px" y="0px"
	 viewBox="0 0 47.7 52.3" style="enable-background:new 0 0 47.7 52.3;" xml:space="preserve">
<style type="text/css">
	.st0{fill:none;stroke:#FFFFFF;stroke-width:0.5;stroke-linecap:round;}
	.st1{fill:none;stroke:#FFFFFF;}
</style>
<path id="path2720" class="st0" d="M6.1,28.5l0.1-0.3c0,0,0-0.2,0-0.3c0-0.1-0.1-0.3-0.1-0.3s-0.1-0.2-0.1-0.2l-0.2-0.2L5.6,27
	l-0.1-0.1"/>
<polyline id="polyline2759" class="st0" points="11.9,15 12,15 12.1,15 12.3,15.1 12.4,15.1 12.3,15.3 12.2,15.5 12.3,15.6 
	12.6,15.8 12.9,15.8 12.9,15.7 13,15.6 13.1,15.6 13.3,15.8 13.4,15.9 13.8,15.9 14.4,15.8 14.7,15.8 15,15.9 15.3,16.2 15.5,16.2 
	15.7,16.1 15.8,16 16.2,16 16.6,16 16.8,16 17,16.1 17.1,16.3 17.2,16.5 31,21.1 "/>
<polyline id="polyline2761" class="st0" points="11.9,15 11.9,15 11.9,15.2 11.9,15.4 11.8,15.6 11.7,15.6 11.5,15.6 11.4,15.7 
	11.1,16 11,16.2 11,16.4 11,16.5 11.1,16.6 11.2,16.7 11.4,16.8 11.5,16.9 11.5,16.9 11.6,17.1 11.7,17.1 11.8,17.3 12,17.5 
	12.1,17.6 12.2,17.8 12.4,18 12.6,18 12.7,18 12.9,17.9 13.1,17.9 13.3,17.9 13.5,17.9 13.6,17.7 13.7,17.6 13.8,17.6 14,17.6 
	14.1,17.8 14.4,17.7 14.7,17.6 14.8,17.5 14.8,17.4 14.9,17.2 15.1,17.1 15.3,17.1 15.5,17.2 15.7,17.3 15.9,17.3 16,17.2 
	16.3,17.2 16.4,17.2 16.5,17.3 16.6,17.4 16.8,17.5 17.1,17.8 17.4,18.1 17.6,18.4 17.9,18.7 17.9,18.8 17.8,18.8 17.7,18.9 
	17.5,19 17.3,19.1 17.2,19.2 17,19.3 17,19.5 17,19.6 17.1,19.7 17.2,19.8 17.3,19.9 17.4,20 17.5,20.1 17.7,20.3 17.8,20.4 
	17.9,20.5 18,20.5 18.1,20.6 18.3,20.8 18.5,20.8 18.6,20.9 18.7,20.9 19.6,20.3 22.7,23.5 "/>
<polyline id="polyline2763" class="st0" points="13,11.1 13.1,11.3 13.1,11.6 13.1,12.1 13.1,12.3 13,12.5 12.8,12.4 12.8,12.3 
	12.7,12.3 12.5,12.2 12.4,12.2 12.3,12.3 12.2,12.4 12.2,12.5 12.3,12.6 12.4,12.8 12.5,12.9 12.4,13 12.3,13.1 12.2,13.4 
	12.1,13.7 11.7,13.9 11.5,14.1 11.5,14.1 11.6,14.3 11.7,14.5 11.8,14.6 11.9,14.8 11.9,15 "/>
<polyline id="polyline2765" class="st0" points="12.3,13.2 12.1,13.2 12,13.2 11.8,13.2 11.8,13 11.7,13 11.7,13 11.6,13 11.5,13.1 
	11.2,13.3 11,13.4 "/>
<polyline id="polyline2767" class="st0" points="9,15.4 8.8,15.6 8.8,15.6 9,15.6 9,15.6 9.1,15.6 9.2,15.5 9.3,15.5 9.3,15.6 
	9.4,15.6 9.7,15.6 9.9,15.5 10,15.5 10.2,15.6 10.3,15.6 10.4,15.7 10.4,15.7 10.4,15.9 10.5,15.9 10.5,16 10.7,16.1 10.8,16.2 
	11,16.3 "/>
<polyline id="polyline2769" class="st0" points="8.3,15.1 8.1,15.1 7.9,15.1 7.7,15.1 7.4,15.1 "/>
<polygon id="polygon2771" class="st0" points="11,13.4 11,13.3 11.1,13.3 11,13.2 11,13.1 10.9,13 10.9,12.9 10.9,12.9 10.8,12.8 
	10.7,12.8 10.6,12.8 10.7,12.7 10.8,12.5 10.7,12.4 10.6,12.4 10.5,12.4 10.5,12.5 10.4,12.7 10.3,12.8 10.1,12.8 9.7,12.8 
	9.6,12.8 9.4,12.8 9.3,12.9 9.3,13 9.3,13.1 9.1,13.1 8.9,13.1 8.8,13 8.7,13 8.5,13 8.4,13.1 8.1,13.7 8,14 8,14.3 8.2,14.5 
	8.3,14.7 8.3,15 8.4,15.3 8.6,15.4 8.8,15.4 9,15.4 9.2,15.1 9.3,15 9.3,14.9 9.6,14.9 9.7,14.8 10,14.8 10.2,14.7 10.2,14.5 
	10.2,14.3 10.2,14 10.3,13.8 10.5,13.7 10.7,13.5 11,13.4 "/>
<polyline id="polyline2773" class="st0" points="11.4,16.8 11.2,16.9 11.1,17 10.9,17.3 10.7,17.4 10.4,17.4 10.3,17.4 10.2,17.5 
	10.1,17.7 10.1,17.8 10.1,17.9 10,18 9.7,18.2 9.5,18.3 9.3,18.4 8.9,18.5 8.7,18.7 8.5,18.8 8.6,19 8.8,19.1 9,19.2 9.2,19.3 
	9.3,19.4 9.3,19.5 9.1,19.6 9.1,19.8 9,19.9 9,20 9.1,20.1 9,20.2 "/>
<polyline id="polyline2775_00000017481847249040262610000012297741358406643892_" class="st0" points="6.5,23.9 7,23.9 7.4,24.3 
	7.5,24.3 7.9,24.6 8.2,24.6 8.5,24.7 8.7,24.7 9,24.5 9.2,24.5 9.5,24.5 9.8,24.6 10.1,24.7 10.4,24.5 10.4,24.3 10.5,24.2 
	10.6,23.8 10.8,23.6 10.9,23.4 10.9,23.3 10.8,23.3 10.8,23.2 10.7,23.1 10.8,23 10.8,22.8 10.7,22.6 10.5,22.4 10.2,22.2 
	10.2,22.1 10.1,21.9 10,21.6 10,21.4 10.2,21.2 10.4,21.1 10.4,20.9 10.4,20.6 10.4,20.3 10.4,20.1 10.3,20 10.2,19.9 10.1,20 
	10.1,20 9.7,20.1 9.4,20.1 9.2,20.2 9,20.2 8.7,20.2 8.5,20.2 8.3,20.3 8.2,20.4 8.2,20.6 8.2,20.8 8.2,21 8.1,21.1 7.7,21.3 
	7.5,21.3 7.1,21.5 6.8,21.4 "/>
<polyline id="polyline2777" class="st0" points="10.1,24.7 10.2,24.8 10.3,25.1 10.4,25.4 10.4,25.6 10.3,25.8 10.2,26 10.2,26.2 
	10.2,26.4 10.4,26.5 10.8,26.5 25.4,26.5 "/>
<polyline id="polyline2779" class="st0" points="12.3,32.5 14.6,28.5 13.7,27.6 13.7,26.5 "/>
<path id="path2781" class="st0" d="M4.4,33.1L4.4,33.1l0.2,0.2l0.3,0.2l0.1,0.1l0.3,0.1l0.2,0.1L5.4,34l0,0.2l0.2,0.1l0.4,0.1
	l0.1-0.1l0.1,0l0.1,0.1l0.6,0.1l0.5,0l0.3,0l0.2,0l0.2,0.1c0,0,0,0,0.1,0c0,0,0,0,0.1,0c0,0,0.1,0,0.1-0.1c0.1,0,0.1-0.1,0.1-0.1
	l0.3,0c0,0,0.1,0,0.2,0c0.1,0,0.2,0,0.2,0c0,0,0.2,0,0.3-0.1c0.1,0,0.3-0.1,0.3-0.1l0.4-0.1l0-0.1l0.1-0.1l0.2,0l0.3,0l0.3,0.1
	l0.2,0.1l1-1.7"/>
<path id="path2783" class="st0" d="M9.2,51.1l-0.3-2.8l-0.1-0.9l-0.1-0.7l-0.1-0.6l-0.1-0.6L8.2,45l-0.1-0.4l-0.3-0.3L7.7,44l0-0.2
	l-0.1-0.4l-0.1-0.3l-0.2-0.2l-0.4-0.3c0,0-0.1,0-0.1,0c0,0-0.1,0-0.1-0.1c0,0-0.1,0-0.1-0.1c0,0,0,0-0.1,0c0,0-0.1,0-0.1,0
	c-0.1,0-0.2,0-0.2,0l-0.3,0l-0.4,0l-0.3,0.1L5,42.4l-0.2-0.1l-0.1-0.2l-0.2-0.3l-0.1-0.3l0-0.3L4.4,41l0.1-0.3c0,0,0-0.3,0-0.3
	c0,0,0,0,0-0.1c0,0,0,0,0-0.1c0,0,0-0.1,0-0.1l0.2-0.2l0.2-0.2l0.2-0.3l0.1-0.2l0-0.2l0-0.2l0-0.2l-0.1-0.3l-0.2-0.9l0.7-1.3l0-0.5
	l0-0.1L6,35.4l0.1-0.2l0-0.1l0-0.3l0-0.4"/>
<path id="path2815" class="st1" d="M8.2,9.1C8.2,9.1,8.2,9.1,8.2,9.1C8.3,9.2,8.3,9,8.4,9c0,0,0,0,0,0c0,0.1,0.1,0,0.2,0
	c0,0,0-0.1,0-0.1c0,0,0.1-0.1,0.1-0.1c0,0,0.1-0.1,0.1-0.1c0,0,0.1,0,0.1,0c0,0,0.1-0.1,0.2-0.1c0,0,0,0,0,0c0.1,0,0.1-0.1,0.1-0.1
	c0,0,0.1,0,0.1,0c0,0,0.1-0.1,0.1-0.1c0,0.1,0.1,0,0.1,0c0,0,0-0.1,0.1-0.1c0,0,0.1,0,0.1,0l0,0c0,0,0.1,0,0.1,0c0,0,0.1,0,0.1,0
	c0,0,0.1-0.1,0.1-0.1h0c0,0,0,0.1,0,0.1c0,0,0,0.1,0,0.1c0,0,0.1,0,0.1,0c0,0,0,0.1,0,0.1c0.1,0,0.1,0,0.2,0c0,0,0.1,0.1,0.1,0.1
	c0.1,0,0-0.1,0.1-0.1c0,0,0.1,0.1,0.1,0.1c0,0,0.1-0.1,0.1-0.1c0,0,0.1,0,0.1,0c0,0,0,0,0,0.1c0,0,0,0.1,0,0.1c0,0,0.2-0.1,0.2-0.1
	c0,0,0.1,0.1,0.1,0.1c0,0,0.1,0,0.1,0c0,0,0.1,0,0.1,0c0,0,0.1,0.2,0.1,0.2c0,0,0,0.1,0,0.1c0,0,0,0,0,0c0,0,0.1,0.1,0.1,0.1
	c0,0,0.1,0,0.1,0c0,0,0.1,0,0.1,0c0,0,0,0,0,0c0,0,0.1,0.1,0.1,0.1c0,0-0.2,0-0.2,0c0,0,0.1,0.1,0.1,0.1c0,0,0.2,0.1,0.3,0.1
	c0,0,0.1,0,0.1,0c0,0,0.2,0,0.2,0c0,0,0,0.1,0.1,0.1c0,0,0,0.2,0,0.2c0,0,0,0,0,0c0,0.1,0,0.2,0,0.3c0,0,0,0.1,0,0.1c0,0,0,0,0,0.1
	l0.3,0.2c0,0,0.1,0.1,0.1,0.1c0,0,0,0.1,0,0.1c0,0,0,0,0,0.1c0,0,0,0.1,0.1,0.1c0,0,0,0.1,0,0.1c0,0,0,0.2,0,0.2c0,0,0,0,0,0
	c0,0,0.2,0,0.2-0.1c0,0,0.3-0.1,0.3-0.1c0,0,0.1,0,0.1,0c0.1,0,0.1,0,0.2,0c0,0,0.1,0,0.1,0c0,0,0.1,0.1,0.1,0.1
	c0,0,0.2-0.1,0.2-0.1c0,0,0.1-0.1,0.1,0c0,0,0.1,0.1,0.1,0.1c0,0,0,0.1,0,0.1c0,0,0.1,0.1,0.1,0.1l0,0c0.1,0,0.1,0,0.2,0
	c0,0,0.1-0.1,0.1-0.1c0,0,0.2,0.1,0.2,0.1c0.1,0,0.3,0.2,0.3,0.2c0,0,0.1,0.1,0.1,0.1c0,0,0.1,0.1,0.1,0.1c0.2,0.2,0.4,0.4,0.5,0.5
	c0.1,0.1,0.2,0.2,0.2,0.2c0.1,0.1,0.2,0.1,0.3,0.2c0.1,0,0.8,0.1,0.8,0.1c0.1,0,0.1,0.1,0.2,0.1c0,0,1.2,0.1,1.3,0.1
	c0,0,0.1,0,0.1,0c0.1,0,0.3,0,0.4,0.1l0,0c0,0,0.2,0,0.2,0c0.1,0,0.1,0,0.1,0.1c0,0,0.1,0.1,0.1,0.1c0,0,0.1-0.1,0.1-0.1
	c0.1,0,0.2,0,0.2,0c0.2,0,0.5,0.1,0.7,0.1c0.1,0,0.2,0,0.3,0c0.1-0.1,0.2-0.2,0.3-0.3c0,0,0.1-0.1,0.1-0.1c0.1-0.1,0.8-0.5,1-0.7
	c0.4-0.2,0.7-0.5,1.1-0.7l0.5-0.3c0.1,0,0.2-0.1,0.2-0.1c0.1,0,0.3-0.2,0.4-0.2c0.2-0.1,0.4-0.3,0.6-0.4c0.1-0.1,0.2-0.1,0.3-0.2
	c0.6-0.4,1.2-0.7,1.8-1.1c0.3-0.2,0.5-0.3,0.8-0.5c0.2-0.1,0.5-0.3,0.7-0.4c0.1,0,0.1-0.1,0.2-0.1c0.1-0.1,0.2-0.1,0.3-0.2l1.5-0.9
	c0.2-0.1,0.5-0.3,0.7-0.4c0.5-0.3,1-0.6,1.5-0.9c0.2-0.1,0.3-0.2,0.5-0.3c0.3-0.2,0.6-0.4,0.9-0.6c0.6-0.3,1.1-0.7,1.7-1
	c0.9-0.6,1.8-1.1,2.7-1.7c0.1-0.1,0.5-0.3,0.6-0.4l2-1.2c0.1-0.1,0.3-0.2,0.4-0.3"/>
<polyline id="polyline2819" class="st1" points="46,15.5 47.1,14.6 46.6,13.1 44.3,13.7 43.7,11.6 44.8,11.3 41.6,0.7 41.6,0.7 "/>
<path id="path2823_00000147901828098116680370000000821510368146354622_" class="st1" d="M46,15.5c0,0-0.3,0.2-0.4,0.3
	c-0.3,0.3-0.6,0.5-0.9,0.8c-0.3,0.3-0.6,0.5-0.9,0.8c0,0-0.1,0-0.1,0c0,0,0,0,0,0l-0.2,0c-0.1,0-0.3,0.1-0.4,0.1
	c-0.6,0.2-1.2,0.3-1.8,0.5c-0.3,0.1-0.7,0.2-1,0.3c-0.5,0.1-1,0.3-1.6,0.4c-1,0.3-2,0.5-2.9,0.8c-0.6,0.2-1.3,0.4-1.9,0.5
	c-0.1,0-0.2,0.1-0.3,0.1c-0.5,0.2-1,0.3-1.5,0.4c-0.5,0.1-0.9,0.3-1.4,0.4c-0.3,0.1-0.5,0.2-0.8,0.2l-1.4,0.4
	c-0.2,0.1-0.5,0.2-0.7,0.2c-0.3,0.1-0.5,0.1-0.8,0.2c-1.4,0.4-2.8,0.8-4.3,1.2c0.6,0.6,1.1,1.3,1.7,1.9c0.2,0.2,0.4,0.5,0.7,0.7
	c0.1,0.1,0.2,0.2,0.3,0.3c0,0,0,0,0.1,0.1c0,0,0.1,0.1,0.1,0.1c0.1,0.1,0.1,0.2,0.2,0.2l0,0c0.2,0.3,0.5,0.5,0.7,0.8
	c0.5,0.6,1,1.1,1.5,1.7c0.1,0.1,0.1,0.1,0.2,0.2c0,0,0.2,0.2,0.2,0.2c0.1,0.1,0.1,0.2,0.2,0.2c0.1,0.1,0.1,0.1,0.2,0.2
	c0.6,0.7,1.2,1.4,1.9,2.1c0.1,0.1,0.1,0.1,0.1,0.2c0.1,0.1,0.1,0.2,0.2,0.3c0.1,0.1,0.1,0.1,0.2,0.2c0.2,0.2,0.4,0.5,0.6,0.7
	c0,0,0.1,0.1,0.1,0.1c0.2,0.2,0.4,0.4,0.5,0.6c0.3,0.4,0.6,0.8,1,1.1l0,0c-0.2,0.1-0.3,0.2-0.5,0.3c-0.4,0.3-0.9,0.5-1.3,0.8
	c-0.6,0.3-1.1,0.7-1.7,1c-0.3,0.6-0.6,1.3-0.8,1.9c-0.1,0.3-0.3,0.6-0.4,0.9c-0.2,0.4-0.4,0.8-0.6,1.2c0,0,0,0,0,0
	c-0.3,0.1-1.7,0.3-2.1,0.4c-0.6,0.1-1.2,0.2-1.9,0.4c-1.3,0.3-2.6,0.5-4,0.8c-0.1,0.2-0.2,0.3-0.3,0.5c-0.1,0.2-0.3,0.4-0.4,0.7
	c-0.1,0.2-0.2,0.4-0.3,0.6c-0.2,0.4-0.5,0.8-0.7,1.1c-0.2,0.3-0.8,1.4-1,1.6c0,0-2.4,2-2.7,2.2c-0.6,0.5-1.3,1.1-1.9,1.6
	c-0.3,0-0.6-0.1-0.9-0.1c-0.3-0.1-0.6-0.1-0.9-0.2c-0.3-0.1-0.5-0.1-0.8-0.2c-0.2,0-0.3-0.1-0.5-0.1c-0.1,0-0.2,0-0.3,0
	c-0.3,0-0.6-0.1-0.8-0.1c-0.6-0.1-1.1-0.2-1.7-0.3c0,0-0.1,0-0.1,0c-0.2,0-0.3,0-0.5-0.1c-0.2,0-0.4-0.1-0.5-0.1
	c-0.4-0.1-0.7-0.1-1.1-0.2C4,50.2,3.4,50.1,2.8,50c-0.4-0.1-0.8-0.1-1.1-0.2c-0.1,0-0.2,0-0.3,0c0,0,0,0,0,0c-0.1,0-0.3,0-0.4-0.1
	L1,48.6l0.3-1L1,47.3c0-0.1,0.1-0.2,0.1-0.3c0-0.1,0.1-0.1,0.1-0.2c0-0.1,0.1-0.1,0.1-0.2c0,0,0.2-0.1,0.2-0.2l0.1-0.2
	c0-0.1,0-0.2,0-0.2c0-0.1,0-0.2,0-0.3c0,0,0-0.4,0-0.4c0-0.1,0.2-0.8,0.2-0.8c0-0.1,0-0.1,0-0.2c0,0,0,0,0,0c0-0.1,0-0.1,0-0.2
	c0,0,0-0.2,0-0.2c0,0,0,0,0,0l0.3-0.6c0,0,0-0.7,0-0.7c0,0,0-0.2,0-0.3c0,0,0.2-0.8,0.2-0.9c0,0,0.8-1.2,0.8-1.2
	c-0.1-0.5-0.2-1-0.3-1.5l0.2-0.4c0-0.1,0-0.2,0-0.2c0,0,0.1-0.2,0.1-0.2c0-0.1,0.2-0.2,0.2-0.3c0,0,0-0.1,0-0.1c0,0,0-0.2-0.1-0.2
	c-0.1-0.2-0.2-0.5-0.4-0.7c0,0,0-0.2,0-0.2c0-0.1,0.1-0.1,0.1-0.2c0,0,0.1-0.2,0.1-0.2c0-0.1,0.2-0.8,0.2-1.1c0,0,0-0.2,0-0.2
	c0-0.1,0.3-0.6,0.3-0.6c0,0,0.1-0.1,0.2-0.1c0-0.1,0-0.2,0.1-0.3c0-0.1,0.3-0.5,0.3-0.5S4.5,33,4.5,33c0,0,0-0.5,0-0.5
	c0,0,0.1-0.3,0.1-0.3c0,0,0,0,0.1-0.1L4.7,32l0.2-0.1c0-0.1,0.1-0.2,0.1-0.2c0,0,0,0,0-0.1c0,0,0-0.1,0-0.1l0-0.1c0,0,0,0,0-0.1
	C5,31.2,5,31.2,5,31.1l0.2-0.4c0.2-0.1,0.4-0.3,0.6-0.4l0-0.3c0,0-0.1-0.2-0.1-0.2c0-0.1,0-0.1,0-0.2c0,0,0-0.2,0-0.2
	c0,0,0.3-0.5,0.3-0.5c0,0,0.1-0.1,0.1-0.1c0-0.1,0.1-0.5,0.1-0.5c0,0,0-0.2,0-0.2c0-0.1,0-0.2-0.1-0.3c0,0-0.1-0.2-0.1-0.2l-0.3-0.4
	C5.8,27,5.7,27,5.7,26.9c0-0.1-0.1-0.2-0.1-0.3c0-0.1,0-0.2,0.1-0.2c0-0.1,0.1-0.1,0.1-0.2c0-0.1,0.1-0.2,0.1-0.2l0.3-0.5
	c0.1-0.1,0.1-0.1,0.1-0.2c0-0.1,0.2-0.5,0.2-0.5c0-0.1,0-0.2,0-0.2c0-0.3,0-0.9,0-0.9c0-0.2,0-1,0-1s0.4-1.4,0.6-1.8l0.2-0.4l0-0.1
	c0-0.1-0.1-0.6-0.1-0.7l0.1-0.2c-0.1-0.2-0.1-0.2,0-0.4C7,19,7,18.9,6.9,18.9c0-0.1,0-0.2-0.1-0.4c0-0.1,0.2-0.2,0.2-0.2l0.1-0.4
	C7.1,17.7,7,17.6,7,17.3c0,0,0.1-0.1,0.1-0.1c0-0.1-0.1-0.1-0.1-0.2l0-0.3l0-0.2l0-0.1c0,0,0-0.1,0-0.1c0,0,0.1-0.1,0.1-0.1
	c0-0.2,0-0.2,0.1-0.3c0-0.1,0.1-0.1,0.1-0.1l0-0.1c0.1-0.4,0-0.5,0.2-0.8c0,0,0-0.1,0-0.1l0,0c0,0,0-0.1,0-0.1c0-0.1,0-0.2-0.1-0.4
	c0-0.1,0-0.2,0-0.4l-0.1-0.2l0,0c0-0.1,0-0.2,0-0.3l0-0.1c-0.1-0.2,0-0.3,0-0.5c-0.1-0.2-0.1,0-0.1-0.4c0,0,0,0,0-0.1
	c-0.1-0.1-0.1-0.2,0.1-0.2c0-0.2-0.1-0.3,0.1-0.4c0-0.1,0-0.2,0.1-0.2c-0.2-0.1,0-0.4,0.1-0.5c-0.1,0-0.1-0.1-0.1-0.1
	c-0.2-0.1-0.2-0.1-0.1-0.3c0,0,0.1,0,0.1,0l0,0l0,0c-0.1-0.1-0.1-0.3,0.1-0.2c0,0,0-0.1,0.1-0.1l0,0l0-0.1c0-0.1,0-0.2,0-0.3
	c0,0,0,0,0,0c0,0-0.1,0-0.1-0.1l0,0c0-0.1,0-0.2,0-0.3c0,0,0.1-0.1,0.1-0.2l0.1-0.1c0,0,0.1-0.1,0.1-0.1l0-0.1l0.1,0
	c0-0.1,0-0.1,0-0.2c0,0,0.1-0.1,0.1-0.1c0.1,0,0.1-0.1,0.2-0.1"/>
<polyline id="polyline2825" class="st0" points="5.3,30.6 5.4,30.7 5.5,30.8 5.6,30.9 5.7,30.9 5.8,31 5.9,31 5.9,31 6,31 6,31 
	6.1,30.9 6.2,30.9 6.3,30.8 6.3,30.7 6.3,30.7 6.3,30.6 6.3,30.6 6.2,30.5 6.2,30.4 6.2,30.4 6.2,30.4 6.3,30.3 6.4,30.1 6.4,30 
	6.4,30 6.4,29.9 6.4,29.8 6.4,29.7 6.4,29.6 6.5,29.6 6.6,29.6 6.6,29.5 6.6,29.6 6.7,29.6 6.8,29.5 6.9,29.4 7,29.4 7,29.5 
	7.2,29.6 7.2,29.6 7.4,29.6 7.4,29.6 7.5,29.7 7.5,29.7 7.6,29.7 7.7,29.7 7.8,29.8 7.8,29.8 7.8,29.8 7.8,29.7 7.9,29.7 7.9,29.7 
	8,29.7 8.1,29.8 8.4,29.8 8.4,29.8 8.4,29.8 8.4,29.9 8.5,29.9 8.5,29.9 8.6,29.9 8.6,30 8.6,30 8.6,30 8.6,30 8.6,29.9 8.6,29.9 
	8.7,29.9 8.7,29.9 8.7,29.9 8.8,29.9 8.8,29.9 8.9,29.9 8.9,30 8.9,30 9,30 9.1,30 9.1,30 9.3,30.1 9.3,30.1 9.3,30.1 9.3,30.1 
	9.3,30.1 9.4,30.2 9.5,30.1 9.5,30.2 9.5,30.2 9.5,30.2 9.5,30.3 9.6,30.2 9.6,30.3 9.7,30.3 9.8,30.4 9.8,30.4 9.9,30.4 9.9,30.4 
	10,30.5 10,30.5 10.1,30.5 10.1,30.4 10.1,30.4 10.2,30.4 10.3,30.4 10.3,30.5 10.2,30.6 10.2,30.6 10.2,30.6 10.3,30.7 10.4,30.8 
	10.4,30.8 10.5,30.8 10.5,30.8 10.5,30.8 10.5,30.8 10.5,30.9 10.5,31 10.5,31 10.5,31 10.5,30.9 10.6,30.9 10.6,30.9 10.7,30.9 
	10.7,30.9 10.7,31 10.8,31.1 10.8,31.1 10.9,31 10.9,31.1 11,31.1 11.1,31.1 11.1,31.1 11.1,31.1 11.1,31.1 11,31.1 11,31.2 
	11,31.3 11,31.3 11,31.3 11.1,31.4 11.1,31.5 11.1,31.5 11.2,31.6 11.3,31.6 11.3,31.6 11.3,31.7 11.3,31.7 11.7,31.9 11.9,32.1 
	12.2,32.3 12.5,32.4 "/>
</svg>
