<?xml version="1.0" encoding="utf-8"?>
<!-- Generator: Adobe Illustrator 27.0.0, SVG Export Plug-In . SVG Version: 6.00 Build 0)  -->
<svg version="1.1" id="Layer_1" xmlns="http://www.w3.org/2000/svg" xmlns:xlink="http://www.w3.org/1999/xlink" x="0px" y="0px"
	 viewBox="0 0 57.8 52.3" style="enable-background:new 0 0 57.8 52.3;" xml:space="preserve">
<style type="text/css">
	.st0{fill:#FEFEE4;}
	.st1{fill:#E0E0E0;}
	.st2{fill:none;stroke:#FFFFFF;stroke-width:0.5;stroke-linecap:round;}
	.st3{fill:none;stroke:#FFFFFF;}
</style>
<g>
	<path id="path4392_00000115505890651531588830000013337748022235150267_" class="st0" d="M19.3,37.1L19.3,37.1L19.3,37.1L19.3,37.1
		v0.2v0.1v-0.1V37.1L19.3,37.1L19.3,37.1L19.3,37.1L19.3,37.1z"/>
	<path id="path4408_00000036217436678047814060000006566475487515190664_" class="st0" d="M37.1,44.5L37.1,44.5L37.1,44.5L37.1,44.5
		L37.1,44.5L37.1,44.5L37.1,44.5L37.1,44.5L37.1,44.5L37.1,44.5L37.1,44.5L37.1,44.5L37.1,44.5z"/>
	<path id="path4410_00000121981166754644997590000001021843978432023436_" class="st0" d="M36.4,44.9L36.4,44.9L36.4,44.9V45h-0.2
		v0.1l-0.1,0.2v0.1L36,45.5l0,0l0,0l-0.1,0.1l0,0l0,0l-0.1,0.1h-0.1h-0.1l-0.2,0.1l-0.1-0.1l-0.2,0.1H35h-0.1h-0.1h-0.1h-0.1h-0.1
		l-0.2,0.1l0.1,0.2l-0.1,0.1l0,0h-0.2H34h-0.1l0,0l0,0l0,0l0,0l0,0l0,0l0,0l0,0l0,0l0,0l0,0v-0.1V46l0,0l0,0v-0.1l0,0L34,46l0,0l0,0
		l0.2-0.1l0.4-0.1h0.1l0,0l0.1-0.1h0.1l0.2-0.1l0,0h0.1l0,0l0,0l0,0l0,0l0,0l0,0l0,0v-0.1v-0.2v-0.1l0,0l0,0l0,0h0.1l0.1-0.1h0.1
		l0.3-0.2l0.4-0.1h0.1L36.4,44.9L36.4,44.9z"/>
	<path id="path4412_00000177486803017078056100000010392981859106785172_" class="st0" d="M36.8,45.2L36.8,45.2L36.8,45.2v0.2h-0.1
		h-0.1v-0.1L36.8,45.2L36.8,45.2z"/>
	<path id="path4414_00000024701037299355345630000002036793754483984783_" class="st0" d="M28,45.4L28,45.4l0.1,0.1L28,45.4L28,45.4
		L28,45.4l-0.1,0.1h-0.1h-0.2l0,0l0,0l-0.1-0.1l0,0l0,0l0,0l0,0l0,0l0.2,0.1L28,45.4z"/>
	<path id="_x31_0m-admin-1-states-provinces-shp.1825_00000015340881565558479370000017086540875623856026_" class="st1" d="
		M12.6,34.6L12.6,34.6L12.6,34.6l0.1-0.1l0,0h0.1l0,0l0,0h-0.1l0,0l0,0l0,0L12.6,34.6L12.6,34.6L12.6,34.6L12.6,34.6z"/>
	<line class="st2" x1="26.4" y1="43.9" x2="27" y2="43.7"/>
	<path class="st2" d="M31.7,35.3c0,0-0.1-0.5-0.1-0.6s0-1.1-0.1-1.2c0-0.1-0.1-0.2-0.1-0.2c-0.1,0-0.3-0.4-0.4-0.5s0-0.2,0.1-0.2
		c0.1-0.1,0.5-0.3,0.5-0.3v-1.7l0.2-0.1c0.1,0,0.3-0.1,0.4-0.1c0.2,0,0.5,0.1,0.5,0.1s0.7-0.2,0.8-0.2s0.9-0.3,0.9-0.3
		s0.3-0.1,0.6-0.2c0.2-0.1,0.8-0.4,0.9-0.6c0-0.2,0.2-0.2,0.2-0.4s0.2-0.2,0.4-0.2c0.1,0,0.2,0.1,0.2,0.1l0.2-0.1
		c0,0,0.2-0.1,0.3-0.2s0.3-0.1,0.4-0.2c0.1-0.1,0.1-0.2,0.1-0.4c0-0.1,0-0.4,0-0.4s0-0.3,0-0.4s0.1-0.2,0.1-0.2s-0.3-0.6-0.5-0.7
		c-0.2-0.2-0.6-0.8-0.6-0.9c-0.1-0.1-0.3-0.4-0.5-0.4c-0.1,0-0.8-0.2-0.8-0.2S35,24,35,23.9s-0.2-0.4-0.2-0.4l-0.5-0.8"/>
	<path class="st2" d="M37.5,27.3c0,0,0.4,0,0.5-0.1c0.1,0,0.4,0,0.5,0s1.8,0.6,1.9,0.7c0.1,0.1,1,0.4,1.1,0.4s0.8,0.5,0.9,0.6
		s1,1,1.1,1.1s0.4,0.4,0.6,0.5c0.2,0.1,0.3,0.2,0.4,0.3c0,0.1,0.1,0.2,0.2,0.3c0.1,0.1,0.7,1,0.8,1.1c0.1,0,0.3,0.3,0.3,0.3
		s0,0.4-0.1,0.5c0,0.1-0.1,0.7-0.1,0.8s0.1,2.3,0.1,2.4s0.1,0.6,0.1,0.7c0.1,0.1,0.2,0.4,0.1,0.5c-0.1,0.1-0.2,0.2-0.1,0.3
		c0.1,0.1,0.1,0.5,0.1,0.5s0,0.9,0.1,1s0,0.2-0.1,0.2s-1-0.1-1-0.1s-0.1,0.1-0.3,0.2c-0.1,0.1-0.1,0.1-0.1,0.1l0.2,0.2
		c0,0,0,0.4,0,0.5s-0.1,0.1-0.3,0.1s-0.3,0.4-0.3,0.4c0,0.1-0.1,1.2-0.1,1.2l-0.2,1.5c0,0,0,0.2,0,0.3s0.1,0.3,0.2,0.4
		c0,0.1,0.1,0.2,0,0.4c-0.1,0.1-0.1,0.2-0.1,0.2c0,0.1,0.2,0.3,0.3,0.3s0.1,0.3,0.1,0.4c0,0.1,0,0.5,0,0.5h-0.2
		c-0.1,0-0.2,0.1-0.3,0.1s-0.4-0.1-0.5-0.2c-0.1-0.1-0.4-0.2-0.4-0.3s0-0.2-0.2-0.3s-0.2-0.1-0.4-0.1s-0.5-0.1-0.6-0.2
		c-0.1-0.1-0.2-0.2-0.4-0.4c-0.1-0.1-0.2-0.1-0.5-0.1c-0.2,0-0.2,0-0.3-0.2c-0.1-0.1-0.1-0.2-0.3-0.3S40,43.7,40,43.7
		c0-0.1-0.1-0.2-0.4-0.2c-0.2,0-0.3-0.2-0.3-0.3s-0.1-0.4-0.1-0.5s0-0.2-0.2-0.3c-0.2,0,0-0.3,0-0.3s0.1-0.1,0.2-0.2
		c0.1-0.1,0.3-0.2,0.3-0.2s-0.1-0.2-0.1-0.3s-0.1-0.1-0.1-0.1c-0.1,0-0.3,0-0.6,0s-0.5-0.5-0.5-0.6S38.1,40,38.1,40l-0.8,0.1
		c0,0,0,0.2-0.1,0.2S37,40.4,37,40.4c-0.1,0-0.4,0-0.5,0s-0.3,0-0.4,0c-0.1,0-0.4-0.2-0.5-0.3s-0.2-0.3-0.3-0.4c0-0.1,0-0.7,0-0.8
		s0.1-1.1,0.1-1.1h-0.2c0,0-0.2,0-0.3,0.1c-0.1,0-0.3,0.1-0.5,0.2c-0.1,0.1-0.4,0.2-0.6,0.3s-0.3,0.1-0.4-0.1
		c-0.1-0.1-0.4-0.1-0.4-0.1"/>
	<path class="st2" d="M45.7,32.5l1.4-0.6c0,0,0-0.3,0-0.4s0-0.2,0.2-0.2s0.5,0,0.6-0.1c0.1,0,0.2-0.2,0.2-0.3c0-0.1-0.1-0.5,0.1-0.5
		c0.2,0,0.8-0.2,0.9-0.2c0.1,0,0.3-0.1,0.4-0.2c0.1-0.1,0.3-0.5,0.3-0.5"/>
	<path class="st2" d="M36.5,18.2c0,0,0.4,0,0.6,0c0.3,0,0.5-0.1,0.6-0.2s0.4-0.4,0.4-0.5s0.2-0.3,0.3-0.3s0.5-0.3,0.7-0.3
		s0.8-0.1,0.8,0.1c0.1,0.1,0.3,0.1,0.4,0.2c0.1,0.1,0.3,0.2,0.4,0.3c0.1,0.1,0.2,0.3,0.1,0.3c-0.1,0.1-0.4,0.2-0.4,0.3
		c-0.1,0.1-0.2,0.3-0.1,0.4c0.1,0.1,0.4,0.5,0.4,0.6c0.1,0.1,0.1,0.2,0.1,0.2s0.5,0.1,0.6,0.2s0.1,0.1,0.4,0.2
		c0.3,0,0.3-0.2,0.3-0.2s0.2-0.1,0.3,0s0.3,0.4,0.3,0.5c0.1,0.1,0.5,0.4,0.5,0.4s0-0.3,0.3-0.3s0.7,0,0.9,0c0.1,0,1,0,1.1,0
		s0.1-0.1,0.3,0.1c0.1,0.1,0.3,0.3,0.3,0.3s0.8,0,1,0s0.3,0.1,0.3,0.2s0,0.3,0.1,0.3c0.1,0.1,0.2,0,0.3-0.1s0.2-0.3,0.3-0.3
		s0.5,0,0.5,0"/>
	<path class="st2" d="M37.4,11.9c0,0,0.1-0.3,0.4-0.4c0.3-0.1,0.9-0.4,0.9-0.4s0.2,0.1,0.4,0.2s0.6,0.2,0.8,0.2s0.3,0.2,0.5,0.3
		c0.1,0.1,0.5,0.1,0.6,0.2c0.1,0.1,0.3,0.2,0.4,0.2s0.5-0.1,0.4-0.2c-0.1-0.1-0.1-0.5-0.1-0.5s0-0.3,0.2-0.4
		c0.2-0.1,0.4-0.2,0.4-0.2s0-0.1,0-0.2c0-0.1-0.2-0.1-0.2-0.1s-0.2-0.3,0-0.4c0.1-0.2,0.3-0.3,0.3-0.4s0-0.5,0-0.5V8.4"/>
	<path class="st2" d="M20.8,20.3c0,0,0.1,0,0.2-0.1s0.1-0.1,0.1-0.3c0-0.2,0-0.3,0-0.3s0.3-0.1,0.4-0.2c0.1,0,0.2-0.1,0.4-0.1
		s0.6,0,0.6,0s0.5-0.1,0.6-0.1s0.4-0.1,0.4-0.1s0.2,0.1,0.4,0.2s0.6,0.1,0.8,0.1c0.2-0.1,0.5-0.1,0.6,0c0.1,0,0.5,0.2,0.6,0.2
		s0.4,0.3,0.4,0.3l4.9-0.1l4.2-0.1c0,0,0.7-1.3,0.8-1.4s0.4-0.5,0.5-0.6s0.2-0.3,0.3-0.4c0-0.1,0.1-0.3,0.5-0.3
		c0.3,0,0.5-0.3,0.5-0.3c0-0.1,0.2-0.1,0.4-0.1s0.4-0.1,0.4-0.2s-0.1-0.5,0-0.6c0.1-0.2,0-0.4-0.1-0.5s-0.8-0.7-0.8-0.7v-0.5
		l0.3-0.6L37.8,13l0.4-0.3c0,0,0-0.3,0-0.4S38,12.2,38,12.1s0-0.2-0.1-0.2s0,0-0.2,0.1s-0.2,0.1-0.4,0c-0.2,0-0.4-0.2-0.4-0.2
		s0-0.2-0.1-0.3s-0.2-0.3-0.2-0.3V11c0,0-0.4,0.2-0.5,0.2s-0.2,0.1-0.2,0s0-0.3,0.1-0.5c0.1-0.1,0.1-0.2,0.1-0.4s0-0.3-0.1-0.3
		s-0.2,0-0.2,0V9.6"/>
	<path class="st2" d="M23.6,19l0.3-1.1c0,0,0.3-0.3,0.3-0.4s0-0.3-0.1-0.4s-0.2-0.2-0.3-0.3c0-0.1-0.1-0.3,0-0.4s0.1-0.3,0.1-0.4
		c0-0.1-0.2-0.5,0.2-0.3c0.4,0.2,0.5,0.2,0.6,0.3c0.1,0,0.2,0.2,0.4,0.3c0.2,0,0.5,0,0.5-0.1s0.3-0.4,0.6-0.5
		c0.3-0.1,0.5-0.4,0.6-0.4c0.1-0.1,0.2-0.2,0.3-0.2c0.1,0,0.2-0.2,0.2-0.2s-0.3-0.1-0.4-0.1s-0.6-0.1-0.7-0.2
		c-0.1-0.1-0.6-0.2-0.7,0s-0.3,0.3-0.4,0.4s-0.3,0.1-0.4,0.1s-0.2,0-0.4-0.1s-0.4-0.1-0.5-0.3c0-0.2-0.1-0.3-0.2-0.4
		S23.1,14.1,23,14s-0.3-0.2-0.4-0.2s-0.4,0-0.5,0s-0.5-0.1-0.6-0.2c-0.1-0.1-0.6-0.3-0.6-0.3s0-0.4-0.2-0.5s-0.8-0.6-1-0.6
		S19.1,12,19,12s-0.4,0.2-0.6,0.3c-0.1,0-0.6,0-0.8,0c-0.2,0-0.3-0.1-0.5-0.1s-0.4-0.1-0.4-0.2c-0.1-0.1-0.4-0.4-0.4-0.4
		S16.1,11.1,16,11c-0.1-0.1-0.6-0.6-0.6-0.6s-0.1-0.1-0.1-0.3s0-0.3-0.1-0.4C15.1,9.6,15,9.5,15,9.4S14.8,9,14.7,9
		c-0.1-0.1-0.1-0.2,0-0.4s0-0.3,0-0.4s-0.2-0.3,0-0.5c0.1-0.1,0.2-0.3,0.2-0.4s0-0.5,0-0.5l-0.5-0.9"/>
	<path class="st2" d="M19.3,11.8c0,0,0.3-0.2,0.3-0.4c0-0.1,0.2-0.4,0.2-0.4l0.1-0.3"/>
	<path class="st2" d="M19.1,15.7c0,0-0.2-0.1-0.3-0.2c-0.1,0-0.1-0.2,0-0.2s0.1-0.3,0.1-0.4s0.2-0.2,0.3-0.3
		c0.1-0.1,0.3-0.5,0.5-0.5S20,14,20,14s0.1-0.2,0-0.2c-0.2-0.1-0.5-0.2-0.5-0.3s-0.2-0.3,0-0.4c0.2,0,0.5,0,0.6,0s0.4,0,0.4,0"/>
	<path class="st2" d="M19.3,15.6c0,0,0-0.3,0.2-0.4c0.2,0,0.5-0.1,0.8-0.1s0.6,0,0.7,0s0.2,0,0.3-0.1c0.1-0.1,0.1-0.3,0.2-0.4
		c0.1-0.1,0.2-0.2,0.4-0.2c0.1,0,0.4,0.1,0.4-0.1c0-0.2,0.1-0.2,0.1-0.3s0-0.3,0-0.3"/>
	<path class="st2" d="M20.7,16.9c0,0,0.2,0.2,0.4,0s0.6-0.1,0.8,0c0.2,0.1,0.7,0.2,0.7,0.2s0,0.1,0.2,0.2s0.5,0.1,0.6,0.2
		c0,0.1,0.5,0.4,0.5,0.4"/>
	<path class="st2" d="M27,14.6c0,0,0.3-0.2,0.5-0.2s0.2-0.2,0.4-0.3c0.1-0.1,0.3-0.2,0.4-0.2s0.6,0,0.6,0s0.6-0.5,0.7-0.6
		s0.1-0.2,0-0.3c0-0.1,0-0.3,0.1-0.3s0.3-0.1,0.4-0.2c0-0.1,0.1-0.4-0.1-0.4s-0.4-0.2-0.4-0.2s-0.1-0.1-0.2-0.2c0-0.1,0-0.3,0-0.3"
		/>
	<path class="st2" d="M30.2,12.4c0,0,0.7,0,0.9,0c0.1,0,0.5-0.1,0.7-0.2c0.1-0.1,0.2-0.3,0.3-0.2s0.3,0,0.5-0.2s0.4-0.3,0.7-0.3
		c0.2,0,0.6,0,0.6,0s0.3-0.2,0.4-0.3c0.1,0,0.3-0.3,0.3-0.3s0-0.5,0.1-0.6s0.2-0.2,0.2-0.3s0.1-0.2,0.2-0.3c0.1,0,0.3-0.1,0.3-0.1
		h0.3c0,0,0-0.5,0.1-0.6c0.2-0.2,0.6-0.6,0.6-0.6V8l0.3-0.2V7.3l-0.1-0.4"/>
	<path class="st2" d="M5.1,3.8c0,0-0.1,0.1-0.2,0.2S4.7,4.2,4.7,4.3s0,0.3,0,0.4s0,0.2,0.1,0.3s0.1,0.3,0.1,0.3
		c-0.1,0-0.1,0.1-0.2,0.2S4.2,5.7,4.2,5.7s0,0.2,0,0.3s0.1,0.2,0.1,0.2l0.1,0.4l0.9,2.2l0.5,0.7c0,0,0.3,0.3,0.4,0.3
		s0.3,0.1,0.4,0.1s0.3,0.1,0.3,0.2c0,0.1,0,0.2,0,0.3c0,0,0,0.2,0.2,0.3s0.4,0.1,0.5,0s0.2-0.3,0.3-0.3c0.1,0,0.4,0.1,0.6,0
		c0.1-0.1,0.2-0.2,0.2-0.2l0.4,0.1c0,0-0.1,0.2,0,0.3s0.2,0.2,0.1,0.3c-0.1,0.1-0.1,0.2,0,0.3s0.3,0.2,0.3,0.2s0.1-0.1,0.1-0.2
		c0-0.1,0-0.1,0.2-0.1s0.3,0,0.3,0s0.1-0.4,0.5-0.4c0.3,0,0.4-0.2,0.4-0.3c0.1-0.1,0.1-0.1,0.2-0.1c0.1,0,0.4-0.2,0.4-0.2
		S11.9,9.9,12,10c0.1,0.1,0.3,0.1,0.4,0.1c0.1,0,0.2-0.2,0.3-0.2s0.1-0.1,0.2-0.1c0.1,0,0.3-0.1,0.3-0.1"/>
	<path class="st2" d="M10.7,2.3c0,0,0.3,0.2,0.4,0.3c0.1,0.1,0.1,0.1,0.1,0.2s0.1,0.8,0.1,0.9s-0.1,0.5,0,0.5
		c0.1,0.1,0.1,0.2,0.1,0.2s-0.1,0.1-0.2,0.1s-0.1,0-0.1,0L11,4.8c0,0,0.2,0.1,0.3,0.2c0.1,0-0.1,0.1-0.1,0.2c0,0-0.2,0.3-0.2,0.4
		c0,0-0.2,0.2-0.2,0.3c-0.1,0-0.3,0.2-0.3,0.2s0.4,0.1,0.5,0.3c0.1,0.1,0.3,0.1,0.4,0.1s0.4,0,0.5,0s0.3-0.1,0.3-0.1s0,0.2,0,0.4
		c0,0.1,0,0.3,0.1,0.4s0.3,0.2,0.2,0.3c-0.1,0.1-0.2,0.1,0,0.2c0.1,0,0.3,0.1,0.3,0.1S13,7.9,13,8c0,0.1,0,0.3,0,0.3s-0.1,0-0.2,0.1
		c-0.1,0-0.2,0.2-0.1,0.2c0.1,0.1,0.2,0.2,0.2,0.2S13,9,13,9.1s0,0.3,0,0.3l0.1,0.1l0.1,0.1l0.2,0l0.2,0.1c0,0,0.1,0,0.2,0v0.1h0.1
		v0.1c0,0,0,0.1,0.1,0.1s0.1,0.1,0.2,0l0.2-0.1c0,0,0.2,0,0.3,0s0.3,0,0.3-0.1"/>
	<path class="st2" d="M5.5,14.1v-0.3c0-0.1,0.1-0.2,0.2-0.2s0.1,0,0.1-0.2s0.1-0.3,0.3-0.3s0.4,0,0.5,0s0.1-0.1,0.1-0.3
		c0-0.1,0-0.4,0-0.4s0.2,0,0.4,0s0.3-0.1,0.3,0.1s0.1,0.2,0.3,0.2s1-0.1,1.1-0.1s0.2,0,0.3,0.1s0.1,0.1,0.3,0.2c0.1,0,0.2,0,0.3,0.1
		c0,0.1,0.2,0.2,0.3,0.2c0.2,0,0.4-0.1,0.5-0.2s0.1-0.4,0-0.5c0-0.1-0.1-0.6-0.2-0.7c0-0.1-0.2-0.5-0.2-0.5"/>
	<path class="st2" d="M10.6,12.6c0,0,0.2,0.1,0.3-0.1c0.1-0.2,0.4,0,0.5,0.1c0.2,0.1,0.3,0.1,0.5,0.1s0.2,0,0.2,0s0,0.1,0.1,0.1
		c0,0,0,0.1,0.1,0.1V13v0.1v0.1c0,0,0.1,0.3,0,0.3s-0.2,0.1-0.2,0.2s-0.1,0.4,0.1,0.4c0.2,0,0.2,0,0.2,0.1s0,0.2,0.2,0.2
		s0.2,0,0.3,0.1s0.2,0.3,0.2,0.3s0.2,0.1,0.4,0.1s0.3,0.2,0.4,0.2s0.3-0.1,0.4,0c0.1,0.1,0.3,0,0.3,0c0-0.1-0.1-0.1-0.1-0.3
		s0-0.4,0.1-0.5s0.4-0.4,0.4-0.4s0.1,0,0.2,0.1c0.1,0.1,0.3,0.2,0.4,0.1s0.1-0.2,0.3-0.3s0.4-0.1,0.4-0.2c0-0.1,0.1-0.5,0.1-0.6
		s-0.1-0.3-0.1-0.4c0-0.1-0.1-0.2-0.2-0.2c-0.1,0-0.2-0.1-0.4-0.1s-0.3,0-0.4-0.2s-0.1-0.3-0.1-0.4s0.1-0.4,0.1-0.4l0.1-0.2
		c0,0,0.1,0.1,0.2,0.1c0.1,0,0.1,0,0.2,0.1l0.1,0.1H16h0.4"/>
	<path class="st2" d="M7.2,16.7c0,0,0.1,0,0.3-0.1c0.1,0,0.2,0,0.2,0.1S8,16.9,8,17.1s0,0.4,0.2,0.5c0.1,0.1,0.4,0.1,0.4,0.2
		s0.1,0.3,0.1,0.3s0.4,0,0.6,0s0.5,0,0.5-0.1s-0.1-0.3,0-0.4s0.2-0.2,0.2-0.2s0,0.1,0.2,0.1s0.3-0.1,0.3-0.2s0-0.3,0.1-0.3
		s0.5,0,0.7,0s0.5,0,0.5,0.1s0,0.2,0.1,0.3c0.1,0,0.1,0.1,0,0.2s-0.2,0.3-0.1,0.4c0,0.1,0,0.4,0.1,0.4s0.2,0.1,0.3,0.1
		s0.3,0.1,0.3,0.1s0,0.2,0,0.3s-0.1,0.5-0.1,0.5l-0.2,0.2c0,0-0.1,0.1,0,0.2s0.1,0.2,0.3,0.2s0.3,0,0.3,0.1s0.1,0.3,0.2,0.4
		c0.1,0.1,0.5,0.2,0.5,0.2s0.4,0.1,0.4-0.1s0.1-0.2,0.3-0.2s0.3,0,0.4,0c0,0.1,0.2,0.2,0.2,0.3c0,0.1,0.2,0.1,0.3,0.1
		s0.2-0.1,0.3-0.1s0.3-0.2,0.2-0.3c-0.1-0.1-0.2-0.5-0.2-0.5l-0.1-0.4c0,0,0-0.2,0-0.3s0.1-0.3,0.2-0.3s0.2-0.1,0.2-0.2s0-0.4,0-0.4
		s0.1-0.5,0.4-0.5s0.4-0.1,0.4-0.2s0.1-0.4,0.1-0.5s0.1-0.3,0-0.3s-0.3-0.1-0.2-0.3s0.2-0.4,0.2-0.4"/>
	<path class="st2" d="M12,17.5c0,0,0.1-0.2,0.4-0.2c0.3,0,0.3,0,0.4,0s0.1-0.1,0.1-0.2s0-0.4,0-0.4s-0.2-0.2-0.3-0.3
		c0-0.1-0.2-0.2-0.2-0.2c-0.1-0.1-0.3-0.2-0.3-0.4c0-0.1-0.2-0.4,0-0.4s0.5,0,0.6-0.1s0.4-0.3,0.4-0.3"/>
	<path class="st2" d="M5.8,22c0,0,0.3-0.1,0.4-0.2s0.2-0.3,0.2-0.4c0.1,0,0.2-0.1,0.1-0.2c0-0.1-0.1-0.1-0.1-0.3s0.1-0.1,0.2-0.1
		c0.2,0,0.3,0,0.3-0.1s0-0.2,0.2-0.1c0.1,0.2,0.4,0.3,0.5,0.2c0.1,0,0.3,0,0.4,0.1c0.1,0.1,0.6,0.5,0.7,0.6s0.4,0.1,0.5,0.1
		s0.4,0,0.4-0.1s0.1-0.1,0.2-0.1c0.1,0,0.4,0.1,0.6,0.1s0.3-0.1,0.3-0.2s0-0.2,0-0.3c0,0,0-0.2,0-0.1c0.1,0,0.5,0.2,0.5,0.2"/>
	<path class="st2" d="M11.7,27.9c0,0,0.1-0.3,0.1-0.4s0.2-0.1,0.3-0.2s0.1-0.3,0.2-0.4c0-0.1,0.1-0.4,0.1-0.4l0.1-0.2V26v-0.1v-0.1
		l-0.1-0.1v-0.1h0.1v-0.1v-0.1l0.2-0.1l0.1-0.1v-0.1V25v-0.1v-0.1l-0.1-0.1c0,0-0.1,0-0.2-0.1c0-0.1-0.2-0.2-0.2-0.2
		c-0.1,0-0.1-0.1-0.2-0.1L12,24.2l-0.1-0.1h-0.1c0,0-0.2-0.1-0.3-0.1l-0.1-0.1l-0.1-0.1c0,0-0.1,0-0.1-0.1c0,0-0.1-0.1-0.1-0.2H11
		l-0.1-0.1l-0.4-0.2c-0.1,0-0.1-0.1-0.1-0.1L10.3,23c0,0-0.1-0.1-0.2-0.1s-0.1,0-0.1,0s-0.2,0-0.2-0.1s0-0.1,0-0.1s0-0.1-0.1-0.1
		l-0.2-0.1l-0.1-0.1l-0.1-0.1c0,0-0.1-0.1,0-0.1c0,0,0-0.1,0.1-0.1c0,0,0.1,0,0.2,0s0,0,0.1,0.1h0.1h0.1v-0.1V22l0.1-0.1v-0.1
		c0,0,0.1,0,0.2,0c0.1,0,0.1-0.1,0.1-0.1s0.1,0.1,0.1,0c0.1,0,0.1-0.1,0.1,0c0,0,0.2,0,0.3,0s0.2-0.1,0.2-0.1l0.1-0.2l0.1-0.1v-0.1
		V21v-0.1c0,0-0.1-0.1-0.1-0.2L11,20.6v-0.1v-0.1c0,0,0.1-0.1,0.2-0.2c0.1,0,0.2-0.2,0.2-0.2c0.1,0,0.1-0.2,0.1-0.3l0.1-0.2l0.2,0.1
		h0.1H12h0.3"/>
	<path class="st2" d="M12.6,24.8c0,0,0.2-0.2,0.3-0.3c0.1-0.1,0.4-0.2,0.5-0.1s0.6,0,0.7,0c0.1,0,0.2,0,0.3,0.1s0.5,0.1,0.6,0.1
		s0.3,0,0.4,0.1c0.1,0,0.3,0,0.4,0s0.3,0,0.4,0c0.1,0.1,0.2,0.1,0.2,0.2s0.2,0.5,0.4,0.6c0.1,0.1,0.4,0.4,0.5,0.4
		c0.1,0.1,0.4,0.4,0.5,0.5s0.1,0.2,0,0.2s0.1,0.3,0.2,0.4s0.4,0.4,0.5,0.5s0.4,0.4,0.4,0.4s-0.1,0.4,0,0.4c0.1,0.1,0.2,0.2,0.2,0.2
		c0.1,0,0.1,0.2,0.1,0.2l-0.4,0.5c0,0.1-0.1,0.4-0.2,0.5s-0.1,0.1-0.2,0.2c0,0.1-0.2,0.1-0.3,0.1c-0.1,0-0.2,0-0.3,0s-0.1,0.2,0,0.2
		s0.1,0.2,0.1,0.2c0,0.1,0,0.3-0.1,0.4s-0.2,0.2-0.1,0.3c0.1,0.1,0.1,0.2,0.2,0.3c0,0.1,0.2,0.1,0.3,0.1c0.1,0,0.1,0,0.1-0.1
		c0.1-0.2,0.2-0.2,0.2-0.1c0,0,0.1,0.2,0,0.2c0,0,0,0.3,0.1,0.3s0.2,0,0.3,0.1c0,0.1,0.1,0.2,0.2,0.2s0.2,0.2,0.1,0.3
		S19,32.5,19,32.6c0,0.1,0.1,0.2,0.2,0.3s0.1,0.3,0.1,0.3v0.6c0,0,0,0.4,0.1,0.5s0.1,0.3,0.1,0.3l0.2,0.1c0,0,0.1,0.1,0.2,0.2
		c0,0.1-0.1,0.2,0.2,0.2c0.3,0,0.7-0.1,0.8,0c0.1,0.1,0.5,0.1,0.5,0.1s0.1,0.4,0.1,0.5s0.1,0.2,0.3,0.2c0.2,0,0.5,0.2,0.6,0.3
		s0.2,0.3,0.3,0.5c0.1,0.1,0.5,1.1,0.7,1.3s0.1,0.4,0.1,0.5s0.4,1.3,0.4,1.4c0,0.1,0.2,0.6,0.4,0.7s0.5,0.2,0.6,0.3s0.3,0.4,0.3,0.5
		s0,0.5,0.1,0.6s0.4,0.5,0.4,0.5c0.1,0.1,0.3,0.2,0.4,0.3s0.1,0.2,0.2,0.2s0.2,0.4,0.4,0.4c0.2,0,0.6,0.2,0.8,0.3s0.2,0.1,0.3,0.2
		c0.1,0.1,0.2,0.2,0.3,0.2s0.3,0,0.4,0c0.1,0.1,0.3,0.2,0.3,0.2s0.3-0.1,0.4-0.2c0.1-0.1,0.4-0.4,0.4-0.4s0.1-0.1,0-0.2
		c-0.1-0.1-0.2-0.2-0.2-0.2s0.5-0.3,0.7-0.4s0.4-0.1,0.7-0.1c0.2,0,0.9,0.1,1.2,0.1c0.2,0,0.6,0,0.7,0c0.1,0,0.3-0.1,0.4-0.2
		c0.1-0.1,0.6-0.8,0.7-0.9c0.1-0.1,0.2-0.3,0.1-0.4c-0.1-0.1-0.2-0.4-0.3-0.4c-0.1-0.1-0.2-0.2-0.2-0.3s0.1-1.3,0.1-1.4
		c0-0.1,0-0.2,0.1-0.4c0.1-0.1,0-0.3-0.1-0.4c-0.1,0-0.4-0.4-0.4-0.4S33,37.7,33,37.6s0.1-0.7,0-1c-0.1-0.2-1-1.2-1.1-1.3
		c-0.1-0.1-0.2-0.3-0.2-0.3s-0.5-0.1-0.6-0.1s-0.4,0-0.5,0S30,35,30,35l-0.3-0.5c0,0-0.2-0.2-0.2-0.3s-0.1-0.4-0.1-0.5
		c-0.1-0.1-0.3-0.3-0.3-0.3S28.9,33.1,29,33c0.1-0.1,0.1-0.4,0.1-0.4s0-0.5,0-0.7c0-0.1,0-0.3-0.1-0.4s-0.2-0.2-0.3-0.2
		c-0.1,0-0.9,0-0.9,0s-0.2-0.3-0.4-0.4c-0.1,0-1.2-0.6-1.2-0.6l0-0.2c0,0,0.2-0.2,0.3-0.3c0.1,0,0.2-0.2,0-0.4s-0.2-0.3-0.2-0.3"/>
	<path class="st2" d="M18.6,34c0,0,0.1,0,0.1-0.1s0.1-0.3,0.1-0.3c0.1,0.1,0.2,0.1,0.3,0.2c0.1,0.1,0.2,0.1,0.2,0.1l0.3,0.1"/>
	<path class="st2" d="M16.6,25.2c0,0,0.2-0.1,0.3-0.1c0.1-0.1,0.4-0.2,0.4-0.2"/>
	<path class="st2" d="M15.2,20.9c0,0,0.1,0.2,0,0.3c0,0.1,0,0.2,0,0.3c-0.1,0.1-0.4,0.2-0.1,0.3c0.3,0,0.4,0,0.5,0s0.2,0,0.2,0.1
		s0.1,0.3,0.1,0.3s0.3,0.1,0.3,0c0.1-0.2,0.1-0.3,0.2-0.3s0.2,0,0.3,0s0.3,0,0.3,0.1s0,0.3,0.1,0.4s0.4,0.2,0.4,0.2v0.2
		c0,0,0,0.2,0.1,0.2s0.2,0,0.3,0l0.2-0.1"/>
	<path class="st2" d="M19,29.5c0,0,0.2,0.1,0.3,0.2s0.2,0,0.3,0c0.1-0.1,0.3-0.1,0.4-0.1s0.1,0,0.2,0.2s0.2,0.2,0.4,0.2
		s0.2-0.1,0.3,0.1c0.1,0.2,0.2,0.4,0.3,0.4s0.2-0.2,0.3-0.2c0.1,0,0.2-0.1,0.2-0.1H22"/>
	<path class="st2" d="M20.2,34.9c0,0,0-0.2,0.2-0.2s0.4,0,0.4-0.2s0-0.4,0-0.4s0.1-0.3,0.2-0.3s0.4-0.1,0.4-0.1s0.2-0.4,0.2-0.5
		s-0.2-0.5-0.2-0.6s-0.1-0.3,0-0.3s0.2,0.1,0.3,0.2s0.3,0.3,0.4,0.3s0.3,0,0.4,0c0.1,0.1,0.2,0.2,0.3,0.1c0.1,0,0.2-0.2,0.2-0.3
		s0-0.4,0-0.4l-0.1-0.3c0,0-0.9-0.7-1-0.8c-0.2-0.1-0.2-0.4-0.2-0.6s-0.2-1.3-0.2-1.4s0.1-0.8,0.1-0.9s0-0.2,0.2-0.3s0-0.4,0-0.4
		s0-0.3-0.1-0.4c0-0.1-0.2-0.2-0.3-0.3c-0.1,0-0.2-0.1-0.2-0.3s-0.2-0.2-0.4-0.2c-0.2,0-0.2-0.3-0.2-0.4c0.1-0.1,0-0.2-0.1-0.3
		c-0.1-0.1-0.1-0.3-0.2-0.4s-0.2,0-0.3,0c-0.1,0-0.4,0.1-0.6,0.1s-0.2,0.2-0.3,0.3c-0.1,0.1-0.3,0.2-0.3,0.2s-0.3-0.2-0.4-0.3
		c-0.1-0.1-0.2-0.1-0.4,0c-0.1,0.1-0.2,0-0.3-0.1s-0.2-0.3-0.3-0.4s-0.1-0.3-0.1-0.3s0-0.1,0-0.2s0-0.3,0-0.3l0.1-0.1
		c0,0,0.3,0,0.4,0s0.2,0,0.3-0.1c0,0,0-0.1-0.2-0.3c-0.2-0.1,0-0.2,0.1-0.3s0.2-0.1,0.2-0.2s0-0.4,0-0.4s0-0.3,0.3-0.4
		c0.2,0,0.4-0.2,0.6-0.3s0.4-0.1,0.6-0.1s0.4-0.1,0.5-0.2s0.3-0.1,0.5-0.1c0.2,0.1,0.5,0,0.5-0.2c0-0.1,0-0.4,0-0.5s0.1-0.4,0-0.5
		s-0.3-0.3-0.3-0.4s-0.1-0.2-0.2-0.2s-0.5,0-0.6,0s-0.3,0-0.3,0s-0.4,0.3-0.4,0.2s-0.2-0.3-0.2-0.4s0-0.3-0.1-0.3s-0.4,0-0.5-0.1
		s-0.1-0.3-0.1-0.4s0.1-0.4,0.1-0.4l0.1-0.2c0,0,0.2,0,0.4,0.1s0.4,0.1,0.5,0c0-0.2,0.2-0.2,0.4-0.2s0.3,0,0.3-0.1s-0.1-0.4,0-0.5
		s0.3-0.3,0.4-0.3s0.2,0,0.2-0.2s0.1-0.4,0.1-0.5s0.1-0.3-0.1-0.3c-0.3,0-0.5-0.1-0.7-0.2s-0.4,0-0.5,0s-0.6,0-0.6,0s-0.6,0.1-0.8,0
		S17.9,16,17.8,16s-0.5,0-0.5,0.1s-0.1,0.2-0.2,0.3c-0.2,0-0.3,0-0.4,0s-0.3-0.1-0.4-0.2c-0.1,0-0.2-0.1-0.3,0c-0.1,0-0.2,0-0.2-0.1
		s0-0.2-0.1-0.3s-0.4-0.3-0.5-0.3s-0.4-0.1-0.4-0.1"/>
	<path class="st2" d="M23.1,32c0,0,0-0.4,0-0.5s0.1-0.5,0.2-0.6s0.3-0.6,0.2-0.8c0-0.2-0.1-0.6-0.1-0.6s0.2-0.5,0.3-0.6
		c0.1-0.1,0.6-0.4,0.8-0.1c0.2,0.3,0.4,0.3,0.6,0.3c0.1,0,0.6,0,0.6,0s0.4,0.1,0.7,0C26.6,29,27,29,27,29l0.3-0.4L26.8,28
		c0,0,0.1-0.7,0.1-0.8c0-0.1,0-1.1,0-1.2s-0.1-0.4-0.1-0.4s0.7-0.4,0.8-0.5C27.7,25,28,25,28.2,25s0.9,0,1.1,0s0.3-0.1,0.3-0.3
		s0.2-0.2,0.3-0.2s0.2-0.1,0.4-0.1c0.2,0,0.4-0.2,0.4-0.4s0.1-0.3,0.3-0.3s0.7,0,0.8,0c0.1,0,0.1,0,0.3-0.1c0.1-0.1,0.2-0.2,0.3-0.2
		s0.4,0,0.4,0s0.4-0.3,0.5-0.3s0.3-0.3,0.3-0.3s0.2,0,0.3,0s0.1,0,0.2-0.1c0.1-0.1,0.2-0.3,0.2-0.3v-2.5"/>
	<path id="_x31_0m-admin-0-boundary-lines-land.67_00000160185190997285419550000015613331115932114064_" class="st3" d="M3.2,1.4
		L3.2,1.4h0.2h0.1h0.1h0.1l0.1-0.1h0.1H4l0.2,0.2v0.1v0.1v0.1v0.1l0,0h0.1h0.1l0.1-0.1h0.1l0.1,0.1V2l0,0l0,0h0.1h0.1l0.2,0.1l0,0
		l0,0l0,0l0,0l0,0L5.3,2h0.1l0.4-0.1h0.1H6h0.1l0,0V2v0.1v0.2v0.1l0,0.1v0.1l0,0h0.2h0.1l0.1,0.1h0.1l0.2,0.1h0.1l0,0l0,0l0,0l0,0
		L6.6,3.1v0.1v0.1l0.1,0.1l0.1,0.1l0.1,0.1L7.1,4l0.2,0.3"/>
	<path id="_x31_0m-admin-0-boundary-lines-land.91_00000010995552431635108720000006888575963912491406_" class="st3" d="M3.2,10.2
		L3.2,10.2V10V9.9V9.8V9.7l0,0l0,0l0,0V9.6v0L3,9.5l0,0l0,0l0,0H2.9l0,0V9.4l0,0H2.8l0,0V9.3V9.2V9.1V9V8.9V8.8V8.7V8.6H2.7L2.5,8.5
		V8.4l0,0l0.1-0.1l0,0l0,0l0-0.2L2.5,8H2.4H2.3l0,0l0,0l0,0l0,0l0,0V7.9l0,0l0,0l0,0l0,0l0,0l0,0l0,0l0,0l0,0l0,0H2.2l0,0H2H1.9V7.8
		l0,0l0,0l0,0l0,0l0,0l0,0l0,0l0,0l0,0L1.7,7.1V7V6.9l0,0l0,0h0.1l0,0V6.8l0,0l0,0l0,0l0,0l0,0V6.7V6.6V6.4l0.1-0.1L2,6.2l0.3-0.1
		l0,0V6l0,0l0,0l0,0l0,0H2H1.9l0,0l0,0l0,0V5.9l0,0V5.8l0,0V5.7V5.6V5.4V5.3V5.2V5.1l0,0l0,0H1.8l0,0l0,0l0,0l0,0V5l0,0l0,0V4.9
		l0.1-0.2V4.6L1.6,4.3l0,0V4.2V4.1l0,0l0,0l0,0l0,0l0,0l0,0l0,0l0,0l0,0l0,0V4l0,0l0,0V3.9V3.8l0.1-0.1V3.6L1.4,3.2H1.2V3.1l0,0V3
		l0,0V2.9l0,0l0,0l0,0l0,0V2.8V2.7l0,0L1,2.6l0,0l0,0h0.1l0,0l0,0h0.1h0.1h0.2h0.1l0.2,0.1h0.1H2l0.2-0.1h0.1V2.5V2.3V2.2V2.1l0,0
		l0,0l0,0l0,0V2l0,0l0.1-0.2l0,0V1.7V1.6l0,0l0.3-0.2h0.1l0,0l0.1,0.1l0,0l0.2,0.1h0.1l0.3,0.2"/>
	<path id="_x31_0m-admin-0-boundary-lines-land.199_00000152958898541408408260000009356774541549584017_" class="st3" d="M2.3,0.5
		l0.2,0.1l0.1,0.1l0,0v0.1l0,0l0,0l0,0l0,0l0,0l0,0l0,0l0.2,0.3h0.1l0,0l0,0l0,0l0,0l0,0l0.2,0.2v0.1l0,0v0.1v0.1l0,0h0.1h0.1l0,0
		l0,0h0.1v0.1l0.2,0.4v0.1h0.1l0,0l0,0h0.1l0,0l0,0l0,0l0,0l0,0l0,0l0.1,0.1l0,0l0,0l0,0l0,0l0,0l0,0L4,2.4l0,0l0,0v0.2l0,0l0.4,0.5
		l0.3,0.1l0,0l0,0l0,0l0,0l0,0l0,0l0,0l0,0l0,0l0,0l0,0l0,0l0,0l0,0l0,0l0,0l0,0v0.1l0,0l0,0h0.1l0,0l0,0l0,0l0,0l0,0l0,0h0.1H5h0.1
		h0.1l0,0h0.1h0.2h0.3L6,3.4l0.6,0.1l0.2,0.1H7l0,0h0.2l0,0l0.3,0.5h0.1l0,0h0.1h0.1l0,0l0,0l0.3,0.1l0,0h0.1h0.1l0,0l0,0l0,0l0,0
		L8.4,4l0,0h0.1l0.2-0.1l0,0V3.8l0,0l0,0l0,0l0,0l0,0l0.1-0.1l0,0l0,0l0,0l0,0h0.1l0,0l0,0l0.2-0.1l0,0l0,0V3.5l0.1-0.2l0,0l0,0
		l0.1-0.1l1.1-0.6l0.1-0.1l0.1-0.1l0.1-0.2l0.1-0.1l0.1,0h0.2h0.1l0,0l0.2-0.2l0.4-0.2L12,1.5h0.1h0.1h0.2l0,0l0,0l0,0l0,0h0.1
		l0.2,0.2l0.5,0.4l0.2,0.2v0.1l0.1,0.1h-0.1l-0.2,0.1H13h-0.1l-0.1,0.1l-0.1,0.1v0.1V3l0.1,0.1L13,3.2l0.2,0.1l0,0l0.2,0.3l0,0l0,0
		l0,0l0,0l0,0l-0.1,0.1l-0.5,0.1l0,0l0,0l0,0l-0.3,0.3l0,0v0.1l0.1,0.1l0.2,0.1l0.4,0.2l0,0v0.1v0.1v0.1l0.1,0.2h0.1h0.1h0.1h0.1
		h0.1v0.1v0.1l0,0l0,0v0.1l0,0v0.1l0.1,0.1L14,5.7l0.1,0.1h0.1h0.1h0.1h0.1l0.1-0.1h0.1h0.1H15"/>
	<path id="_x31_0m-admin-0-boundary-lines-land.206_00000129909460869396245510000011558332060148771516_" class="st3" d="
		M14.3,34.8l-0.1-0.1h-0.1l0,0H14l0,0l0,0l0,0l0,0v-0.1l0,0l-0.1-0.2l0,0l0,0l-0.1-0.1v-0.1l0,0l0,0l0,0l0,0l0,0l0,0l0,0l0,0l0,0
		l-0.1-0.1L13.6,34l-0.2-0.5l0,0l0,0l0,0h-0.1l0,0l0,0l0,0l0,0l0,0v-0.2v-0.1v-0.1V33l0,0l0,0H13v-0.1v-1.6l0,0l0,0h-0.9v-1.4
		l0.4-1.2v-0.1v-0.1v-0.1l-0.1-0.1l0,0l0,0v-0.1l0,0l0,0h-0.1l0,0L12.2,28v-0.1v-0.1h-0.1l0,0l-0.7-0.4v-0.1h-0.1l0,0l0,0l0,0l0,0
		l0,0l0,0l0,0l0,0l0,0l0,0l0,0l0,0l0,0h-0.1l0,0l0,0l0,0l-0.1-0.1l0,0l0,0L11,27.1l0,0l0,0l0,0l0,0V27l0,0l0,0l0,0l0,0l-0.1-0.1
		v-0.1l0,0l0,0h-0.1l-0.4-0.7l0,0h-0.2l0,0h-0.1H10H9.9L9.8,26l-0.9-0.8l-0.1-0.1L8.6,25l-0.1-0.1l-0.3-0.2l-0.1-0.1l-0.3-0.1
		l-0.3-0.1H7.2H7l-0.1-0.1l0,0l0,0l0,0v-0.1l0,0l0,0H6.8H6.7l0,0l0,0h0.1h0.1l0,0l0,0H7l0.1-0.1l0,0l0,0l0,0l0,0l0,0l0,0V24l0,0
		v-0.1l0,0L7,23.8l-0.1-0.2l-0.1-0.5l0,0V23v-0.1v-0.1v-0.1l-0.1-0.1l0,0l0,0l0,0l0,0l0,0l0,0H6.6H6.5H6.4l0,0v-0.1l0.1-0.1l0,0
		v-0.1H6.4H6.3v-0.1H6.2H6.1H6l-0.1,0.1l0,0l0,0l0,0v-0.1l0,0l-0.1-0.1l0,0V22v-0.1v-0.1v-0.1v-0.1l0,0l0,0l0,0l-0.6-0.5l0,0l0,0
		l0,0H5.1H5H4.9L4.8,21h0.1l0,0l0,0v-0.1v-0.1v-0.1L5,20.6l0,0l0.4-0.1l0,0l0,0l0,0l0,0l0,0l0,0v-0.1l0,0v-0.2v-0.1V20v-0.1H5.3l0,0
		H5.2H5.1v-0.1L5,19.5l0,0h0.2l0,0l0,0l0,0l0,0v-0.1v-0.1v-0.1h0.1l0.1,0.1h0.1h0.2h0.1l0,0l0,0l0,0l0,0l0,0l0,0v-0.1v-0.1V19l0,0
		l0,0l0,0l0,0l0,0l0,0l0,0l0,0l0,0v-0.1l0.1-0.1l0,0v-0.1l0,0l0,0l0,0H6h0.1v-0.1v-0.1v-0.1h0.1h0.1h0.1v-0.1v-0.1v-0.1V18v-0.1l0,0
		l0,0l0,0l0,0l0,0l0,0l0,0l0,0l0,0l0,0v-0.1l0,0l0,0h0.1l0,0l0,0h0.1l0,0l0,0h0.1l0,0h0.1h0.1l0,0l0,0l0,0l-0.1-0.1v-0.1l0.1-0.1
		v-0.1l0,0h0.2l0,0v-0.1l0,0l0,0l0,0v-0.1L7,17.1L6.8,17l-0.2-0.3v-0.1l0,0l0,0l0,0l0,0l0,0l0,0l0,0l0,0v-0.1v-0.1l0,0l0,0h0.1l0,0
		v-0.1v-0.1v-0.1V16l0,0h0.1H7h0.1l0.1-0.1h0.1h0.1l0,0v-0.1l0.1-0.1l0,0v-0.1l0,0l0,0l0,0H7.4l0,0l0,0H7.3H7.2H7.1H7l0,0l0,0l0,0
		v-0.1l0,0l0,0H6.9l0,0l0,0H6.8H6.7H6.5H6.4l0,0l0,0l0,0l-0.1,0.1H6.2H6.1l0,0l0,0H6H5.9l0,0l-0.1-0.2l-0.1-0.2l-0.1-0.1H5.5l0,0
		l-0.1-1L5.2,14l0,0H5.1H5H4.9H4.8H4.7l0,0l0,0v-0.1v-0.1v-0.1v-0.1v-0.1v-0.1l-0.1-0.1v-0.1V13v-0.1l0,0H4.5l0,0h0.1l0,0.2V13v-0.1
		v-0.1v-0.1v-0.1H4.5l-0.2,0.1H4.2H4.1l0,0l0,0l0,0l0,0l0,0l0,0l0,0l0,0l0,0H4v-0.1v-0.1l0,0l0,0l0,0v-0.4V12l0.1-0.1v-0.1v-0.1
		L4,11.6v-0.1l0,0l0,0l0,0l0,0l0,0l0,0l0,0H3.9H3.8H3.7v-0.1v-0.1l-0.2-0.2V11v-0.1v-0.1v-0.1v-0.1v-0.1l0,0l0,0l0,0H3.4l0,0l0,0
		l0,0H3.3l0,0l0,0v-0.1l0,0l0,0l0,0l0,0l0,0v-0.1l0,0v-0.1"/>
	<path id="_x31_0m-admin-0-boundary-lines-land.268_00000073001175325574962070000005897061406586373782_" class="st3" d="M51,16.4
		l-0.1-1.1v-0.1v-0.1l0,0l0,0l0,0V15l0,0v-0.1l0,0l0,0v-0.1v-0.1v-0.1v-0.1v-0.1v-0.1l0,0v-0.1l0,0h-0.1h-0.1l0,0l0,0h0.1l0,0l0,0
		v-0.1l0,0l0,0l0,0l0,0l0,0l0,0l0,0l0,0l0,0l0,0l0,0l0,0V14v-0.2v-0.1l0,0v-0.1l0,0l0,0l0,0l0,0l0,0l0,0l0,0l0,0l0,0v-0.1v-0.2
		l0.1-0.3v-0.1l0,0l0,0l0,0l0,0l0,0l0,0l0,0l0,0v-0.1v-0.1h-0.1h-0.1h-0.3h-0.3h-0.6h-0.4h-0.5h-0.1l-0.1-0.1l-0.1-0.2l-0.1-0.1
		l-0.5-1.2l-0.1-0.2l-0.2-0.2l-0.1-0.1h-0.1H47l-0.1-0.1l-0.2-0.1l-0.4-0.3l0,0l0,0l0,0l0,0l0,0l0,0V10V9.9l0,0l0,0l0,0h-0.1l0,0
		l0,0l0,0l0,0l0,0l0,0l0,0l0,0l0,0l0,0l0,0l0,0l-0.1-0.1l-0.2-0.1l0,0l-0.5-0.4V9.2l0,0l0,0l0,0l0,0l0,0V9.1l0,0L45.3,9h-0.1h-0.1
		l-0.2,0.1h-0.1l-0.4-0.3l-0.1-0.1l0,0h-0.1l0,0l0,0h-0.1h-0.2l-0.2-0.1l0,0l0,0l0,0l0,0l0,0h-0.1l0,0l0,0l0,0l0,0h-0.1h-0.1h-0.1
		l-0.1-0.1l0,0h-0.1l0,0l0,0v0.1v0.1H43h-0.3l0,0l-0.1-0.1l0,0h-0.2l0,0l0,0l0,0l0,0V8.5l0,0V8.4l0,0l0,0l0,0l0,0l0,0l0,0h-0.1h-0.2
		l-0.5-0.2h-0.1l0,0l0,0l0,0l0,0l0,0l0,0l0,0l0,0l0,0l0,0l0,0l0,0l0,0l0,0l0,0h-0.1h-0.1l0,0l0,0l0,0l0,0L40.9,8l-0.1-0.1l-1.2-0.8
		V7V6.9l-0.1-0.1V6.7l-0.1,0l0,0l-0.1-0.1l-0.1-0.1l0,0l0,0l0,0l0,0h-0.1l0,0l0,0l0,0l0,0L39,6.6l0,0l-0.1,0.1l0,0h-0.1h-0.1h-0.1
		l-0.4-0.1l0,0h-0.1L38,6.5l0,0h-0.1l-0.5-0.1l0,0l0,0l0,0l0,0l0,0h-0.3H37l-0.1,0.1l-0.2,0.2l0,0l0.1,0.1v0.1V7v0.1l0,0h-0.3l0,0
		h-0.1h-0.1l-0.4,0.1l0,0l0,0h-0.1l0,0h-0.1l0,0l-0.1-0.1h-0.2h-0.1l-0.6,0.1h-0.2h-0.1l-0.6-0.1h-0.1h-0.1l0,0h-0.1h-0.1v0.1l0,0
		h-0.2h-0.1l0,0v0.1l0,0l0,0l0,0l0,0l0,0l0,0L33,7.4L32.4,8l-0.1,0.1v0.1v0.1v0.1v0.1v0.1l0,0l0,0l0,0l0,0v0.1l0,0v0.1v0.1l0,0
		L32.2,9l-0.1,0.1l0,0H32l-0.2,0l0,0h-0.1h-0.2h-0.1l-0.5,0.3h-0.1h-0.1h-0.1h-0.1l0,0h-0.1h-0.1h-0.1l-0.8-0.1"/>
	<path id="_x31_0m-admin-0-boundary-lines-land.269_00000155847132094759946700000004009352265446538428_" class="st3" d="
		M49.7,35.1l0.2-0.2l0.2-0.3l0.5-0.5l0.2-0.3l0.2-0.2l0.3-0.4l0.2-0.3l0.3-0.4l0.4-0.5l0.2-0.3v-0.1l0,0l0,0v-0.1l0,0l0,0v-0.2l0,0
		l0.1-0.1v-0.1V31v-0.1v-0.1l-0.1-0.1l0,0v-0.1v-0.1l0-0.1v-0.1v-0.1v-0.1V30l-0.1-0.1h-0.1h-0.1l-0.5-0.1L51,29.7l-0.5-0.1L50,29.5
		h-0.3h-0.1v-0.3V29v-0.1v-0.3v-0.3v-0.2v-0.2v-0.1l0,0l0,0l0,0v-0.1l0,0l0,0l0,0v-0.1l0.1-0.1v-0.1v-0.3v-0.3l-0.1-0.4l-0.1-0.5
		l-0.1-0.4l-0.1-0.4l-0.1-0.3l-0.1-0.3L49,24.2V24v-0.3l0,0l0.1-0.2l0.2-0.2l0.1-0.2l0.1-0.1l0.1-0.1l0.1-0.1l0,0v-0.1v-0.1v-0.1
		l0,0l0,0h0.1l0,0l0,0l0,0l0,0l0,0h-0.1h-0.1h-0.2h-0.2L49,22.4l-0.2-0.3l-0.1-0.2v-0.1l0.1-0.2v-0.1L48.7,21v-0.3v-0.2l0.1-0.2
		l0.1-0.1l0.1-0.1l0.1-0.1l0,0v-0.1h0.2h0.3h0.2v-0.1l-0.2-0.3v-0.1l0,0l0,0h-0.1l0,0v-0.1l0,0l0,0l0,0v-0.1h0.1h0.2h0.1H50l0.1-0.1
		l0,0l0,0l0,0l0,0l0,0l0,0l0,0V19v-0.1v-0.1l0.1-0.1l0.1-0.1l0.1-0.1v-0.1h0.1v-0.1v-0.1l0,0v-0.1l0,0l0,0V18l0,0v-0.1v-0.1v-0.1
		l0,0l0.1-0.1l0,0l0,0l0,0l0,0l0,0l-0.1-0.1l0,0l0,0l0,0l0,0l0,0l0,0l0,0v-0.1v-0.1l0,0h0.1h0.1h0.1v-0.1V17v-0.1l0,0l0.1-0.1l0,0
		v-0.1v-0.1l0.1-0.1v-0.1v-0.1v-0.1v-0.1l0,0"/>
	<path id="_x31_0m-admin-0-boundary-lines-land.271_00000176758651859182952150000006900106348777895080_" class="st3" d="
		M49.4,50.6l2.5,0.4l0.1-0.3v-0.3v-0.3v-0.3v-0.2l0,0l0,0l0,0l0,0v-0.1v-0.1v-0.1l0.1-0.1h0.1h0.1l0,0v-0.1V49v-0.2v-0.3v-0.2v-0.2
		v-0.2v-0.1v-0.1l0.1-0.1l0.3-0.1l0.1-0.1h0.1H53h0.1l0,0v-0.1v-0.1h0.1h0.1h0.1h0.1l0,0v-0.1V47l0,0l0.1-0.1v-0.1l0,0l0,0l0,0l0,0
		l0,0l0,0h0.1l0,0l0,0l0,0l0,0h0.1l0,0l0,0l0,0l0,0l0,0l0.5-0.1h0.1l0,0l0,0l0,0l0,0l0,0l0,0h0.1l0,0l0,0l0,0v-0.1l0,0l0,0h0.2h0.2
		h0.3h0.1h0.1h0.1l0,0l0,0l0,0l0,0l0,0l0.1-0.1v-0.1v-0.5v-0.1l0,0h0.1l0,0v-0.1v-0.1v-0.1v-0.1V45l0,0l0,0l0,0l0,0v-0.1h0.1h0.1
		l0,0l-0.1-0.2v-0.1l0,0l0,0h-0.1l0,0l-0.1-0.1l0,0l0,0l-0.2,0.1l0,0l0,0h-0.1h-0.2H55h-0.2h-0.1h-0.1h-0.1l0,0l0,0l0,0l0,0l0,0
		l-0.1-0.1l0,0l0,0l0,0l0,0v-0.1l0,0l-0.1-0.1l0.2-0.4v-0.1v-0.2v-0.3v-0.2v-0.3v-0.2l-0.1-0.3l-0.1-0.2v-0.4v-0.4v-0.1h-0.1
		l-0.5,0.1h-0.1l-0.2-0.2V41v-0.1l0,0l0,0l0,0l0,0l0,0l0,0l0,0h-0.1l-0.4-0.1l-0.2-0.1h-0.1h-0.2h-0.1l-0.1-0.1H52l0,0l-0.1-0.1
		l-0.2-0.2l0.7-1.2l-0.3-0.3L52,38.7l-0.1-0.2l-0.1-0.1l0,0v-0.1v-0.1l-0.1-0.3l0,0l0,0l0,0l0,0l0,0l0,0l0,0l0,0l0,0l0,0l0,0l0,0
		l0,0v-0.1l0,0l0,0l0,0l0,0l0,0l0,0v-0.1l0,0v-0.1l-0.5-0.5V37v-0.1v-0.1v-0.1v-0.1l0,0h-0.1H51l-0.2-0.3L50.6,36l-0.2-0.3l-0.2-0.2
		L50,35.3l-0.3-0.2"/>
	<path id="_x31_0m-coastline.35_00000048463324950645977150000012002958127908910509_" class="st3" d="M12.4,35.9l0.1-0.1l0,0h0.1
		h0.1l0,0h-0.1l0,0l0,0l0,0l0,0l0,0l0,0l0,0l0,0h0.1h0.1h0.1v-0.1v-0.1l-0.1-0.2l-0.1-0.2V35h-0.1l-0.1-0.1l-0.1-0.2v-0.1v-0.1v-0.1
		v-0.1v-0.1v-0.1V34v-0.1l0,0l0,0l0,0l0,0l0,0v-0.1v0.1V34v0.1v0.1l0.2-0.1h0.1h0.1h0.1H13l0.2,0.1h0.1l0.1,0.1l0.2,0.1h0.3H14l0,0
		l0,0h-0.1l0,0l0,0l0,0l0,0h0.2h0.1l0,0l0,0l0,0l0,0l0,0v-0.1l0,0v-0.1l0,0l0.1,0.1h0.2h0.1h0.1h0.2H15h0.1v-0.1v-0.1l0,0V34l0,0
		l0,0v-0.1l0,0v-0.2v-0.1v-0.1l0,0H15l0,0v-0.1l0,0l0,0l0,0l0,0l0,0l0,0l0,0l0.2-0.2l0,0h0.2l0,0l0.1-0.1V33h-0.1h-0.1h-0.1v-0.1
		l0.1-0.1h0.1l0,0l0,0l0,0h0.1l0,0l0,0l0,0l0,0l0,0l0,0l0,0l0,0l0,0l0,0l0,0l0,0l0,0l0,0l0,0l0,0v0.1l0,0l0,0h0.1V33l0,0l-0.1,0.1
		l-0.1,0.1l0,0v-0.1l0,0l0,0h-0.1l0,0L15.2,33h-0.1H15h-0.1h0.5h-0.1l0,0v0.1h0.1h0.1l0.1,0.1v0.1l0,0l0.2,0.1h0.1l0,0l0,0l0,0H16
		l0,0l0,0v-0.1v-0.1l0,0l0,0l0,0l0,0l0,0l0,0l0,0l0,0l0,0v0.1l0,0h0.1h0.1h0.1h0.1l0,0l0,0l0,0l0,0h0.1l0,0h0.1l0,0l0,0l0,0l0,0l0,0
		l0,0v0.1v0.2v0.1l0.1,0.1h0.1h0.1l0.9-0.6h0.1H18h0.1h0.1l0,0l0,0v0.1v0.1v0.1l0,0v0.1l0.1,0.2v0.1l0,0l0,0l0,0l0,0l0,0V34l0,0l0,0
		l0.1,0.1l0.1,0.1h0.1l0.1,0.1l0.1,0.2l0.1,0.1l0.1,0.1v0.1v0.1l0,0l0.2,0.1l0.1,0.1v0.1v0.1l0,0l0.2,0.1l0.1,0.1l0,0v-0.1l0,0
		l0.1,0.1v0.1v0.1v0.1v0.1V36v0.1l0,0l0,0l0,0v0.1l0,0l0,0v0.1l0,0l0,0l0,0v0.1v0.1l0.1,0.1h0.1H20h0.1h0.2h0.1l0,0l0,0v0.1l0,0l0,0
		l0,0l0,0l0,0l0,0v0.1h0.1l0,0v0.1V37l0,0l-0.1,0.1l0,0l0,0l0,0l0,0l0,0V37v-0.1h-0.1h-0.1h-0.1V37v0.1v0.1l0.1,0.2v0.1l0,0h0.1h0.1
		h0.1l0.1,0.1l0.1,0.1l0.1,0.1v0.1v0.4v0.1l0.2,0.5l0,0l0.1,0.1l0.1,0.2l0,0l0.1,0.1l0.1,0.1v0.1l-0.1,0.2v0.1l0,0l0,0l0.2,0.2h0.1
		h0.1h0.1v0.1v0.1v0.1l0,0l0.1,0.1H22h0.1l0,0l0,0l0,0l0,0l0,0h0.3h0.1h0.2h0.1h0.1H23l0,0h0.2h0.1l0.1,0.1l1,1.6l0.3,0.3l0.1,0.1
		l0.5,0.1h0.1l0.1,0.1l0.2,0.2l0,0V43l0,0l0,0h0.1l0,0v0.1l0,0h-0.1h-0.1h-0.1l0,0l0,0v0.1l0.1,0.1l0.4,0.2l0.1,0.1l0.2,0.2h0.1h0.1
		v0.1l0,0h0.2l0,0V44l0,0h0.1h0.1l1,0.4l0.1,0.1v0.1v0.1v0.2V45v0.1l0.3,0.2l0.2,0.1l0.1,0.1l0,0h0.1h0.1h0.1H29h0.1h0.1l0.2-0.1
		h0.1l0,0l0,0h0.1l0,0l0,0l0.2,0.1h0.1h0.2h0.1h0.1h0.1l0.1,0.1l0.1,0.1v0.1v0.1l0.1,0.1H31h0.1l0.1,0.1v0.1v0.1h0.1h0.2l0,0l0,0
		l0,0l0,0l0,0l0,0l0,0l0.3-0.2l0.3-0.2l0,0l0.2-0.2l0,0h0.1h0.1h0.1l0,0v-0.1v-0.1l0.1-0.1h0.1l0.2,0.1h0.1h0.1l0.1-0.1l0.1-0.1
		v-0.1v-0.1V45v-0.1l0,0l0,0l0,0l0.2-0.2l0,0l0,0l0.1-0.1h0.1l0,0h0.1H34l0,0l0,0l0,0h0.1l0,0h0.1h0.1l0,0l0,0l0,0l0,0l0.1-0.1
		l0.2-0.1l0,0l0,0l0,0l0,0l0,0l0,0l0,0l0,0h0.1h0.2H35h0.1h0.1h0.2h0.1l0.2,0.1h0.1H36h0.1h0.1l0,0h0.1h0.3l0,0l0,0l0,0l0,0h0.1l0,0
		l0,0v0.1v0.1h0.1h0.1l0,0l0,0v0.1l0,0l0,0l0,0l0,0l0,0l0,0l0,0l0,0H37l0,0l0,0l0,0l0,0l0,0l0,0l0,0l0,0h0.1l0,0l0,0l0,0l0,0l0,0
		l0,0l0,0l0,0l0,0l0.1,0.1V45v0.1l0.1,0.1v0.1l0.2,0.8v0.2v0.4l0,0v0.1l0,0l0,0l0.1,0.1V47v0.1v0.2l0,0v0.1l0.2,0.2v0.1v0.1
		l-0.1,0.1V48l0,0v0.1v0.1v0.1l0,0l0,0l0,0l0,0l0,0l0.1,0.1l0,0l0,0v0.1v0.1l0.1,0.2V49l0,0l0,0h0.4l0,0l0.2,0.1h0.1l0,0h0.1l0,0
		l0,0h0.1l0,0H39h0.1h0.1h0.1l0,0v0.1l0,0l0,0l0,0l0,0v0.1l0,0h0.1l0.1-0.1l0.1-0.1h0.1h0.1l0.1,0.1l0.1,0.2l0.1,0.1h0.1h0.1h0.1
		h0.1h0.1l0.1-0.1l0,0l0,0l0,0l0,0l0,0l0,0l0,0l0,0l0,0l0,0l0.1-0.1l0,0h0.1H41v0.1h0.1h0.2h0.2l0.5,0.1h0.2l0,0l0,0l0,0l0,0l0,0
		h0.1l0.1,0.1l0.1,0.1l0.1,0.2l0,0l0,0h0.1h0.1l0,0l0,0l0,0l0,0l0,0l0,0h0.1l0.2-0.1h0.2l0.4-0.2h0.1h0.1l0.2,0.2l0.1,0.1h0.1
		l0.5-0.1l0,0v0.1l0,0l0.1,0.1l0,0l0,0l0,0l0.2-0.1h0.1h0.1l0,0l0,0l0,0l0,0l0,0l0,0l0,0l0,0h0.1l0,0h0.1l0,0v-0.1l0,0l0,0l0,0l0,0
		l0,0h0.1h0.1h0.1l0,0l0,0v0.1h0.1H46h0.1l0.2,0.2l0,0l0,0l0,0L46.2,50l0,0l0,0l0,0l0,0l0,0l0,0l0,0l0,0l0,0v-0.1l0,0l0,0l0,0v-0.1
		l0,0l0,0l0.2-0.1l0,0l0,0l0,0l0.1,0.1l0,0V50l0,0l0.1,0.1l0,0l0,0h0.3l0.4,0.1l0.5,0.1l0.5,0.1l0,0v0.1l0,0h0.1l0.6,0.1l0,0l0,0
		h0.2l0,0l0,0l0,0l0,0l0,0v-0.1l0,0l0,0l0,0h-0.1h0.1l0,0l0,0h0.1l0,0l0,0l0,0l0,0v-0.1l0,0l0,0l0,0l0,0v0.1l0,0h0.1"/>
	<path id="path4753_00000159445777660583808660000017064371425044083074_" class="st3" d="M15.1,5.8v0.3v0.1v0.1v0.2l0.1,0.1V7
		l0.1,0.4v0.1v0.1v0.1v0.1l0.1,0l0,0l0,0l0,0v0.1l0.1,0.2l0.1,0.2l0.2,0.2L16,8.6l0.5,0.2l0.2,0.1l1.1,0.2h0.1H18h0.1h0.1l0,0l0,0
		l0,0l0,0l0.2,0.1l0.4,0.1h0.1L19,9.4v0.1l0,0v0.1l0,0v0.1l0.1,0.2l0.1,0.1l0.1,0.1l0.2,0.1l0.1,0.2l0,0h0.1l0.3,0.2h0.1l0,0
		l0.1,0.1l0,0l0.5,0.2l0.4,0.3l0.2,0.1l0.8,0.2l0.5,0.1l0.5,0.1l0.5,0.1l0.5-0.1l0.5-0.2l0.5-0.1l0.5-0.1l0.5-0.1l0.5-0.1l0.5-0.1
		l1-0.2h0.1l1.1-0.1h0.2l0.1-0.1v0.1l-0.2,0.1h-0.2l0.2,0.3l0,0l0,0h-0.1l0,0h-0.1l0,0H29h-0.1l0,0l0,0H29h-0.1l0,0l0.1,0.1h0.1h0.5
		l0,0l0,0l0.4-0.1l0,0V11v-0.4v-0.1l0,0h-0.1l0,0l0.1-0.1l-0.1-0.1v-0.1l-0.1-0.3l-0.1-0.2l0,0V9.4V9V8.9l-0.1-0.1"/>
</g>
</svg>
