<?xml version="1.0" encoding="utf-8"?>
<svg xmlns="http://www.w3.org/2000/svg" viewBox="0 0 60 40">
  <!-- 13 alternating red/white stripes -->
  <rect width="60" height="40" fill="#B22234"/>
  <rect y="3.08" width="60" height="3.08" fill="#FFFFFF"/>
  <rect y="9.23" width="60" height="3.08" fill="#FFFFFF"/>
  <rect y="15.38" width="60" height="3.08" fill="#FFFFFF"/>
  <rect y="21.54" width="60" height="3.08" fill="#FFFFFF"/>
  <rect y="27.69" width="60" height="3.08" fill="#FFFFFF"/>
  <rect y="33.85" width="60" height="3.08" fill="#FFFFFF"/>
  <!-- Blue canton (upper left) -->
  <rect width="24" height="21.54" fill="#3C3B6E"/>
  <!-- Stars (simplified as small dots) -->
  <g fill="white">
    <circle cx="3" cy="3" r="1.2"/><circle cx="7" cy="3" r="1.2"/><circle cx="11" cy="3" r="1.2"/><circle cx="15" cy="3" r="1.2"/><circle cx="19" cy="3" r="1.2"/><circle cx="23" cy="3" r="1.2"/>
    <circle cx="5" cy="6.5" r="1.2"/><circle cx="9" cy="6.5" r="1.2"/><circle cx="13" cy="6.5" r="1.2"/><circle cx="17" cy="6.5" r="1.2"/><circle cx="21" cy="6.5" r="1.2"/>
    <circle cx="3" cy="10" r="1.2"/><circle cx="7" cy="10" r="1.2"/><circle cx="11" cy="10" r="1.2"/><circle cx="15" cy="10" r="1.2"/><circle cx="19" cy="10" r="1.2"/><circle cx="23" cy="10" r="1.2"/>
    <circle cx="5" cy="13.5" r="1.2"/><circle cx="9" cy="13.5" r="1.2"/><circle cx="13" cy="13.5" r="1.2"/><circle cx="17" cy="13.5" r="1.2"/><circle cx="21" cy="13.5" r="1.2"/>
    <circle cx="3" cy="17" r="1.2"/><circle cx="7" cy="17" r="1.2"/><circle cx="11" cy="17" r="1.2"/><circle cx="15" cy="17" r="1.2"/><circle cx="19" cy="17" r="1.2"/><circle cx="23" cy="17" r="1.2"/>
    <circle cx="5" cy="20.5" r="1.2"/><circle cx="9" cy="20.5" r="1.2"/><circle cx="13" cy="20.5" r="1.2"/><circle cx="17" cy="20.5" r="1.2"/><circle cx="21" cy="20.5" r="1.2"/>
  </g>
</svg>
