<?xml version="1.0" encoding="utf-8"?>
<!-- Generator: Adobe Illustrator 27.0.0, SVG Export Plug-In . SVG Version: 6.00 Build 0)  -->
<svg version="1.1" id="Layer_1" xmlns="http://www.w3.org/2000/svg" xmlns:xlink="http://www.w3.org/1999/xlink" x="0px" y="0px"
	 viewBox="0 0 19.4 52.3" style="enable-background:new 0 0 19.4 52.3;" xml:space="preserve">
<style type="text/css">
	.st0{fill:none;stroke:#FFFFFF;stroke-width:0.5;stroke-linecap:round;}
	.st1{fill:none;stroke:#FFFFFF;}
</style>
<g>
	<path id="path3896_00000047752696487073951290000006810650679037769648_" class="st0" d="M16.2,1.8l0.2-0.1c0.2,0,0.2,1.1,0,1.4
		C16.2,3.4,16,4.5,16,4.7c0,0.1,0,0.5,0,1c0,0.2-0.3,0.4-0.2,0.6"/>
	<path id="path3896_00000054971248541410198050000017325768888836759209_" class="st0" d="M16.2,10C16,10,16,10.2,16,11.1
		c0,0.6,0.1,1.1,0.1,1.2l-0.2-0.2L15.5,12c-0.2,0-0.4-0.1-0.5-0.1c-0.1,0-0.2-0.2-0.2-0.4c0-0.2-0.1-0.5-0.1-0.6
		c-0.1-0.3-0.8-0.5-1.4-0.4c-0.2,0-0.5,0-0.6-0.1c-0.3-0.3-1-0.2-1,0.2c0,0.1-0.3,0.3-0.6,0.5c-0.3,0.2-0.6,0.4-0.5,0.4
		c0,0.1,0,0.1,0,0.1c-0.1,0-0.1,0.2-0.1,0.6c0,0.3-0.1,0.6-0.2,0.8C10,13,10,13.3,10,13.6c0,0.4-0.1,0.6-0.3,0.8
		c-0.2,0.2-0.3,0.4-0.2,0.8c0.1,0.3,0.1,0.8,0.1,1c0,0.3,0.1,0.5,0.1,0.6c0.1,0.1,0,1.3-0.2,1.5c-0.1,0.1-0.2,0.5-0.2,0.8
		c-0.1,0.9,0.3,1.2,1.2,0.7c0.2-0.1,0.3-0.1,0.5,0.1c0.1,0.1,0.4,0.2,0.5,0.2c0.3,0,0.6,0.4,0.5,0.6c0,0.1-0.1,0.2-0.3,0.2
		c-0.4,0-1,0.4-1.8,1.2C9.1,23,9,23.1,9,23.7c0,0.4-0.1,0.7-0.2,0.8c-0.3,0.3-0.6,1.1-0.5,1.4c0,0.2,0.2,0.3,0.4,0.3
		c0.2,0,0.4,0.1,0.6,0.1c0.1,0,0.3,0,0.3-0.1c0-0.1,0.5-0.1,1.1-0.1c1.2,0,1.7-0.2,2.5-0.9c0.3-0.2,0.5-0.4,0.6-0.4"/>
	<path id="path3802_00000016755177409100657820000001840457354544696225_" class="st0" d="M13.8,24.7"/>
	<g id="g3939" transform="matrix(2.0000207,0,0,2.0000008,695.38051,-922.64768)">
		<g>
			<polygon class="st0" points="-340.8,473.8 -340.8,473.8 -340.8,473.8 			"/>
			<path class="st0" d="M-339.7,467.4l-0.2,0c-0.1,0-0.2,0-0.3,0c0,0-0.1-0.1-0.1-0.2c0-0.1,0-0.3-0.1-0.3c-0.1-0.1-0.4-0.2-0.7-0.2
				c-0.1,0-0.2,0-0.3-0.1c-0.2-0.2-0.5-0.1-0.5,0.1c0,0-0.1,0.1-0.3,0.2c-0.2,0.1-0.3,0.2-0.3,0.2c0,0,0,0.1,0,0.1
				c0,0-0.1,0.1-0.1,0.3c0,0.2-0.1,0.3-0.1,0.4c-0.1,0.1-0.1,0.2-0.1,0.4c0,0.2,0,0.3-0.1,0.4c-0.1,0.1-0.1,0.2-0.1,0.4
				c0,0.1,0.1,0.4,0.1,0.5c0,0.1,0,0.3,0,0.3c0.1,0.1,0,0.6-0.1,0.8c0,0.1-0.1,0.2-0.1,0.4c-0.1,0.4,0.2,0.6,0.6,0.4
				c0.1-0.1,0.2-0.1,0.3,0c0.1,0.1,0.2,0.1,0.3,0.1c0.1,0,0.3,0.2,0.2,0.3c0,0-0.1,0.1-0.1,0.1c-0.2,0-0.5,0.2-0.9,0.6
				c-0.4,0.4-0.4,0.4-0.4,0.7c0,0.2,0,0.4-0.1,0.4c-0.2,0.2-0.3,0.6-0.3,0.7c0,0.1,0.1,0.2,0.2,0.2c0.1,0,0.2,0,0.3,0.1s0.1,0,0.2,0
				c0,0,0.3-0.1,0.6-0.1c0.6,0,0.9-0.1,1.2-0.4c0.1-0.1,0.3-0.2,0.3-0.2"/>
		</g>
		<path id="path3870_00000098222183554134840560000001741994027420117667_" class="st0" d="M-346.8,475.5l0.4,0.5
			c0.1,0,0.1,0,0.3-0.2c0.2-0.2,0.2-0.2,0.2-0.4c0-0.2,0.1-0.4,0.7-1.1l0.4-0.4l-0.5-0.8c-0.1-0.1-0.2-0.1-0.2-0.1"/>
	</g>
	<path id="path3794" class="st0" d="M15.8,6.3c0,0.2,0.3,0.3,0.4,0.4c0.3,0.3,0.4,1,0.2,1.7c-0.1,0.3-0.2,0.8-0.3,1
		C16,9,15.9,8.9,15.8,8.9c-0.3,0-1-1.3-0.9-1.8c0-0.3,0.2-0.4,0.5-0.6L15.8,6.3z"/>
	<path class="st1" d="M18.6,5.9l-0.2-0.8c-0.1-0.4-0.3-1.3-0.3-1.9C18,2.7,17.9,2,17.8,1.9c-0.1-0.2-0.2-0.5-0.2-0.8
		c0-0.3-0.1-0.4-0.2-0.5c-0.2,0-0.4,0.1-0.7,0.3c-0.4,0.3-0.5,0.7-0.3,0.7l-0.2,0.1c-0.3,0-0.8,0.1-0.8-0.1l-0.1-0.3l-0.2,0.3
		c-0.3,0.3-0.3,0.9-0.1,0.9c0.1,0,0.1,0.2,0,0.5c-0.1,0.4-0.2,0.5-0.6,0.7c-0.3,0.1-0.5,0.3-0.5,0.4c0,0.2-1,0.1-1.2-0.1
		c-0.2-0.2-0.3-0.2-0.5-0.1c-0.3,0.2-0.9,0.3-1.4,0.3c-0.1,0-0.2,0-0.3,0.1s-0.1,0.1-0.1,0.3c0,0.2-0.1,0.4-0.2,0.5
		c-0.1,0.1-0.1,0.5,0,1c0.2,1,0.1,1.3-0.6,1.8C9,8.3,8.9,8.3,8.9,9.3c-0.1,0.6-0.2,1-0.3,1.2c-0.1,0.1-0.2,0.5-0.2,0.9
		c0,0.4-0.1,0.8-0.1,1c-0.1,0.2-0.2,0.5-0.2,0.8C8,13.8,7.9,14,7.7,15.1c-0.1,0.5-0.2,0.9-0.3,1c0,0.1-0.1,0.4-0.2,0.7
		c-0.1,0.3-0.2,0.6-0.2,0.7c0,0.1-0.1,0.2-0.1,0.3c-0.1,0.1-0.2,0.4-0.3,0.7c-0.1,0.3-0.3,0.8-0.5,1.2c-0.2,0.4-0.4,1-0.5,1.3
		c-0.1,0.4-0.4,1-0.7,1.5l-0.6,0.8l-0.1,0.4c0,0-0.3,0.3-0.6,0.7c-0.7,0.9-1.5,1.9-2,2.5c-0.5,0.5-0.3,0.4-0.5,0.6l-0.1,0L1.6,28
		c0.1,0.2,0.2,0.2,0.2,0.4C1.9,28.5,2,28.8,2,28.9C2,29,2,29.1,2.1,29.2c0.2,0.2,1.1,2.9,1.1,3.4c0,0.3,0.1,0.8,0.3,1.1
		c0.6,1.2,1,2.2,1,2.9c0,0.6,0.1,0.8,0.3,1.1c0.3,0.3,0.3,0.5,0.3,0.9c0,0.3,0,0.6,0.2,0.8c0.3,0.4,0.5,1.2,0.6,1.8
		c0.1,0.8,0.4,2,0.7,2.4c0.2,0.2,0.5,0.9,0.7,1.5c0.4,1,0.4,1.2,0.4,2.4c0,1.1,0,1.4,0.2,1.5C7.9,49.2,8,49.4,8,49.7
		c0,0.4,0.1,0.6,0.3,0.8c0.2,0.2,0.3,0.4,0.3,0.5l0.2-0.2l0.3-0.3c0.2-0.2,0.4-0.3,0.4-0.3l0.3-0.1c0-0.2,0-0.7,0.1-1
		c0.1-0.5,0.2-1.2,0.3-1.5c0.1-0.4,0.3-1,0.4-1.4c0.2-0.6,0.3-1,0.3-1.7c0-0.9,0-1,0.5-1.6l0.5-0.7l0-2.1c0-1.8,0-2.1,0.2-2.4
		c0.1-0.2,0.3-0.5,0.3-0.8c0.3-1.4,0.8-2.8,1-3.2c0.2-0.3,0.3-0.7,0.3-0.9c0-0.4,0.9-2.3,1.1-2.3l-0.4,0L13.9,26c0,0.6,0,1.3,0,1.4
		c-0.2,0.4,0.4,1.6,0.5,2.1c-0.1-0.5-0.7-1.7-0.5-2.1c0.1-0.2,0.1-0.8,0-1.4l0,0c0-0.1,0-0.3,0-0.4c0-0.4-0.1-0.7-0.1-0.7l0.2-0.3
		c0,0,0.1-0.1,0.1-0.1c0.1-0.1,0.1-0.1,0.1-0.2c0,0,0,0,0-0.1c0,0,0-0.1,0-0.2l1.8-3.7c0-0.1,0.1-0.3,0.1-0.7c0-0.5,0-1.1-0.1-1.4
		c-0.1-0.9-0.1-2,0.1-2.5c0.2-0.6,0.2-3.4,0-3.5l-0.2-0.2L15.6,12l0.3,0.1l0.2,0.2c-0.1,0-0.1-0.6-0.1-1.2c0-0.9,0-1.1,0.2-1.1
		c0.1,0,0.2-0.1,0.3-0.2c0-0.1,0.2-0.2,0.3-0.3c0.1,0,0.5-0.3,0.7-0.5c0.2-0.2,0.4-0.3,0.5-0.4l-0.1-0.4c0-0.1,0.1-0.6,0.4-1.2
		L18.6,5.9z"/>
</g>
</svg>
