<?xml version="1.0" encoding="utf-8"?>
<!-- Generator: Adobe Illustrator 27.0.0, SVG Export Plug-In . SVG Version: 6.00 Build 0)  -->
<svg version="1.1" id="Layer_1" xmlns="http://www.w3.org/2000/svg" xmlns:xlink="http://www.w3.org/1999/xlink" x="0px" y="0px"
	 viewBox="0 0 62.6 52.3" style="enable-background:new 0 0 62.6 52.3;" xml:space="preserve">
<style type="text/css">
	.st0{fill:none;stroke:#FFFFFF;stroke-width:0.5;stroke-linecap:round;}
	.st1{fill:none;stroke:#FFFFFF;}
</style>
<g id="Borders">
	<g id="Provincial_borders">
		<path id="path454" class="st0" d="M22.2,46.6l0.2,0l0.2-0.3c0,0,0-0.3,0-0.3c0,0,0-0.2,0.1-0.2s0.3,0,0.3,0c0.1,0,0.1,0,0.1,0.1
			s0,0.3,0,0.3l0.4,0.2l0,0.1l0.2,0.2c0,0,0-0.2,0-0.2c0,0-0.1-0.1,0.1-0.1c0.2,0,0.3,0,0.3,0c0,0,0.4,0.1,0.4,0.1s0.1-0.1,0.2-0.1
			s0.2,0,0.2,0s0,0.2,0,0.2c0,0,0.1,0,0.1,0s0.1,0,0.1,0.1s0,0.1,0.1,0.1c0,0,0.1,0,0.1,0.1s0,0.1,0.1,0.1s0.1,0.1,0.1,0.1
			s0.3,0,0.3,0s0.1,0.1,0.1,0.1c-0.1,0.1-0.1,0.1-0.1,0.1c0,0,0,0.1,0.1,0.1"/>
		<polyline id="polyline456" class="st0" points="29.2,41.3 31.3,41.1 31.4,42 32.1,41.6 38.2,41.6 51.5,41.6 51.5,42.5 		"/>
		<path id="path458" class="st0" d="M38.2,41.6L40,37l-0.9-1.1l0.1-0.9c0,0-0.2,0-0.2-0.1s0-0.1,0-0.1c0,0,0.1-0.3,0.1-0.3
			s0.1-0.2,0.1-0.3c0,0,0.1-0.2,0.1-0.2s0.1-0.1,0.2-0.1c0,0,0.2-0.1,0.2-0.2s0.6-0.4,0.6-0.4s-0.3,0-0.4,0s-0.1,0-0.2-0.1
			s-0.2-0.1-0.2,0c-0.1,0-0.1,0-0.1,0c0,0-0.2-0.2-0.3-0.2c0,0-0.1-0.1,0-0.1c0-0.1,0.2-0.4,0.2-0.4s0-0.2,0-0.2s0.3-0.5,0.3-0.5
			c0,0,0-0.2,0.1-0.2c0,0,0.1-0.2,0.1-0.3s0.1-0.3,0.1-0.3c0,0,0.2-0.9,0.2-1s0-0.7,0.1-0.8s0.1-0.5,0-0.6c0-0.1,0-0.4,0.1-0.5
			s0.1-0.4,0.1-0.4c0,0,0-0.1,0-0.2c0,0,0-0.2,0-0.3c0-0.1,0-0.2,0-0.3c0,0-0.1-0.2,0-0.3s0.1-0.3,0.1-0.4S40.1,26,40,25.9
			c0,0-0.1-0.2-0.1-0.3c0-0.1,0-0.2,0-0.3s-0.2-0.3-0.2-0.4s-0.1-0.3-0.1-0.3s-0.3,0.1-0.4,0.1s-0.2,0-0.2,0c0,0-0.1,0-0.1-0.1
			s0-0.1,0.1-0.1s0-0.3,0-0.4c0-0.1,0-0.2,0-0.3c0,0,0-0.2,0-0.2s-0.1-0.2-0.1-0.2s-0.1-0.1-0.2-0.1c0,0-0.1-0.1,0-0.1
			c0.1-0.1,0.1-0.2,0.1-0.2c0-0.1,0-0.2,0-0.2l0.4-0.4l-0.1-0.2c0,0,0-0.1,0-0.1c0-0.1,0-0.1,0-0.1s-0.2-0.3-0.2-0.3s-0.1-0.1,0-0.2
			c0-0.1,0.1-0.2,0.1-0.2s0-0.1,0.1-0.2s0.1-0.1,0-0.1c-0.1,0-0.1-0.1,0-0.1c0.1,0,0.1-0.1,0-0.2c0,0-0.2-0.1-0.2-0.1
			c0,0-0.1-0.1,0-0.1c0-0.1,0.1-0.2,0-0.2c0,0-0.1-0.2-0.1-0.2s-0.1-0.1,0-0.1c0.1,0,0.1-0.1,0.1-0.2c0-0.1-0.2-0.6-0.2-0.6
			s-0.1-0.2-0.2-0.1c-0.1,0.1-0.1,0.1-0.2,0.1c0,0-0.2-0.1-0.3,0c-0.1,0-0.1,0-0.2,0s-0.4-0.3-0.4-0.4c0,0,0-0.1-0.1-0.1
			c-0.1,0-0.4,0-0.4,0s-0.1-0.1-0.1-0.2c0-0.1-0.1-0.1-0.2,0s-0.1,0.1-0.2,0.1c-0.1,0-0.3,0-0.3,0c0-0.1-0.2,0-0.2,0s-0.1,0.1-0.2,0
			c-0.1,0-0.9-0.4-0.9-0.4l-0.1,0.1l-0.3-0.3l-0.3,0.2c0,0-0.1,0-0.1,0s-0.1-0.1-0.2-0.2c-0.1,0-0.7-0.5-0.7-0.5s-0.2-0.1-0.2-0.1
			s-0.2-0.1-0.3-0.1c0,0,0-0.1,0-0.1c0.1,0,0.1-0.1,0-0.2c0-0.1-0.1-0.1-0.1-0.1s-0.1,0.1-0.2,0.1c-0.1,0-0.3,0-0.4,0
			s-0.2-0.1-0.2-0.1s-0.1-0.2-0.2-0.2c0,0-0.1-0.2-0.1-0.3c0-0.1,0-0.2,0-0.3s-0.1-0.2-0.1-0.2c0.1-0.1,0-0.2,0-0.3
			c0,0-0.1-0.2-0.1-0.2c0,0-0.1-0.1-0.1-0.1s-0.4,0.3-0.4,0.3"/>
		<path id="path460" class="st0" d="M20.3,21.8c0,0,0.4,0.3,0.4,0.5c0.1,0.1,0.4,0.4,0.4,0.4c0.1,0.1,0.3,0.1,0.4,0.1
			s0.3-0.1,0.4-0.1s0.3,0.2,0.3,0.2c0,0.1,0.1,0.4,0.2,0.4c0.1,0.1,0.2,0.3,0.2,0.4c0,0.1,0.2,0.4,0.2,0.4l0,0c0,0,0,0,0,0l0,0
			c0,0,0,0.1,0,0.1c0,0,0,0,0,0c0,0,0,0.1,0,0.1c0,0.1,0,0.1,0,0.2c0,0.1,0,0.1,0,0.2c0,0.1,0,0.1-0.1,0.2c0,0,0,0,0,0
			c0,0,0,0,0,0.1l0,0.1l0,0c0,0.1,0,0.3,0,0.4c0,0,0,0,0,0.1c0,0,0,0.1,0,0.1c0,0,0,0,0,0c0,0,0,0,0,0.1c0,0.1,0,0.2,0,0.3l-0.1,0.1
			c0,0,0,0.3,0,0.4c-0.1,0.1-0.1,0-0.1,0.1c-0.1,0-0.3,0-0.3,0s0.1,0.1,0,0.3c-0.1,0.2-0.3,0.1-0.3,0c0-0.1-0.1-0.1-0.1-0.1
			c0,0-0.1,0-0.1,0.1s-0.1,0.1-0.1,0.1s0,0,0,0.1c0.1,0.1,0.1,0.1,0.2,0.2s0.5,0.2,0.6,0.2s0.6,0,0.6,0s0.1-0.1,0.1-0.1
			c0.1,0,0.1,0.1,0.1,0.2c0,0,0,0.2,0.1,0.2c0,0,0.1,0.2,0.2,0.2s0.2,0.1,0.2,0.1s0,0.3,0,0.3s0,0.2,0.1,0.3
			c0.1,0.1,0.1,0.2,0.1,0.3s0.1,0.1,0.2,0.1s0.2,0,0.4,0s0.2,0.3,0.2,0.3s-0.1,0.1,0,0.3c0,0.1,0.1,0.1,0.2,0.1s0.2,0,0.2,0.1
			s0.1,0.2,0.1,0.3s0.2,0.2,0.3,0.2s0.3,0,0.4,0c0.1,0,0.2,0,0.2,0.1c0,0.1,0,0.2-0.1,0.2s-0.2,0.1-0.1,0.2s0.2,0.3,0.2,0.3
			s0,0.2,0.1,0.2c0.1,0,0.2,0,0.2,0.1c0,0.1,0,0.1,0.1,0.1s0.1,0.1,0,0.1s-0.2,0.1-0.3,0.1s0,0.1,0,0.2c0,0,0.2,0.3,0.2,0.4
			c0,0.1,0,0.3,0,0.3s0.1,0.1,0.1,0.1c0.1,0,0.2,0.2,0.2,0.3c0,0.1,0,0.3,0,0.3c0,0,0,0.2,0,0.2s-0.1,0,0,0.2
			c0.1,0.1,0.1,0.2,0.1,0.2c0,0.1,0,0.5,0,0.5s0.3,0.1,0.4,0.2s0.1,0.1,0.1,0.2c0,0.1-0.2,0.4-0.2,0.5c0,0-0.1,0.3,0.1,0.4
			c0.1,0.1,0.3,0.4,0.3,0.4s0.2,0.4,0.3,0.4c0,0.1,0,0.5,0,0.5l0,0.2l0.2,0l0.2,0.3c0,0,0.1,0,0.2,0s0.1,0.1,0,0.1
			c-0.1,0.1,0,0.6,0,0.6c0,0,0.1,0.3,0.1,0.4c0,0.1,0,0.3,0,0.3l0,0.1c0,0,0.2,0.3,0.2,0.3c0,0,0,0.1,0,0.2s0,0.1,0.1,0.2
			c0.1,0.1,0.1,0.1,0,0.2s0,0.1,0,0.2c0.1,0,0.1,0.1,0.1,0.1c0,0,0,0.1,0,0.2c0,0.1,0,0.1,0,0.2s0,0.1,0,0.1c0,0-0.2,0.1-0.3,0.1
			c-0.1,0-0.1,0.1-0.1,0.1s0.1,0.1,0.1,0.1s0.1,0.1,0.1,0.1c0,0,0.2,0,0.2,0c0,0,0.1,0,0.1,0c0.1,0,0.1,0,0.1,0s0.1,0.3,0.1,0.3
			c0,0,0,0.2,0,0.2s0.1,0,0.2,0s0.1,0.1,0,0.1c0,0,0,0.2,0,0.2c0.1,0.1,0,0.1-0.1,0.1c0-0.1-0.1,0.1-0.1,0.1c0,0,0,0.1-0.1,0.2
			c0,0-0.1,0.1-0.1,0.1v0.4c0,0-0.1,0-0.2,0c-0.1,0-0.1,0-0.1,0S28.8,43,28.7,43c0,0-0.1,0-0.2,0c-0.1,0-0.1,0-0.1,0.1
			c0,0-0.2,0.2-0.2,0.2s0.1,0,0.1,0.1c0.1,0.1,0,0.1,0,0.1c0,0-0.1,0-0.1,0s-0.2,0.2-0.2,0.2c0,0-0.1,0.2-0.1,0.2s0,0.1,0,0.1
			c0,0,0,0.1-0.1,0.1c0,0-0.1,0.2-0.1,0.2c0,0,0,0.1,0.1,0.1s0.1,0.1,0,0.1s-0.1,0.1-0.1,0c0,0-0.1,0-0.1,0s-0.1,0.2-0.1,0.2
			s-0.1,0.1-0.1,0.2s0,0.1-0.1,0.1s-0.1,0-0.2,0s-0.1,0.1,0,0.2c0,0,0,0.1,0,0.1s-0.1,0.1-0.1,0.1s0,0.1-0.1,0.2c0,0.1,0,0.2,0,0.2
			s0,0.1-0.1,0.1c0,0,0,0.1-0.1,0.1c0,0-0.1,0.1-0.1,0.1c0,0,0,0.2,0,0.2c0,0,0,0.1,0,0.1c0,0,0,0.1,0,0.2s0,0.2,0,0.3
			c0,0.1,0,0.1,0.1,0.1s0,0.1,0,0.1s0.1,0.1,0.1,0.1s0,0.1,0,0.2c0,0.1,0,0.1,0.1,0.1c0,0,0,0.1,0,0.1c-0.1,0-0.1,0.1-0.1,0.1"/>
		<path id="path462" class="st0" d="M8.9,24.8c0,0,0.1-0.1,0.2-0.2c0.1-0.1,0.2-0.3,0.2-0.3s0.1-0.1,0.1,0s0.3,0.1,0.3,0.1
			c0.1,0,0.3,0.1,0.3,0.1s0,0.1,0.1,0s0.2-0.1,0.2-0.1s0.1-0.1,0-0.2c-0.1,0-0.2-0.1,0-0.1c0.1,0,0.1,0,0.2-0.1c0,0,0.2-0.1,0.3,0
			c0,0,0.2,0.1,0.2,0c0-0.1,0-0.2,0-0.2c0,0-0.1,0-0.1,0c0,0.1-0.1,0-0.1,0c0,0-0.1-0.2-0.1-0.2s0-0.2,0-0.2s0-0.1-0.1-0.1
			c-0.1,0-0.2-0.2-0.1-0.2s0.1-0.2,0-0.2c-0.1,0-0.1-0.2-0.2-0.2c0,0-0.1-0.1,0-0.2s0.1-0.2,0.1-0.2s0.1-0.1,0-0.1
			c-0.1,0-0.1-0.1-0.1-0.1s0-0.2-0.1-0.2c-0.1,0-0.1-0.3,0-0.3c0.1,0,0.1-0.1,0.2-0.1c0,0,0.1,0,0.1-0.1c0-0.1-0.1-0.2-0.2-0.3
			s-0.1,0-0.2,0c0,0-0.1-0.1-0.2-0.1c-0.1,0-0.2,0-0.2,0c0,0,0-0.1-0.1-0.1c-0.1,0-0.1,0-0.1-0.1s0-0.2,0.1-0.2s0-0.1,0-0.2
			c0-0.1-0.1-0.2-0.1-0.2s-0.1-0.1-0.2-0.1c-0.1,0-0.1,0-0.2-0.1c0-0.1-0.1-0.2-0.1-0.2s-0.1-0.2-0.2-0.1c-0.1,0-0.2-0.2-0.1-0.2
			s0.2-0.2,0-0.2c-0.1,0-0.1,0-0.2,0s-0.2,0-0.2,0s-0.1-0.1,0-0.2c0.1-0.1,0-0.2,0-0.3S8,18.5,8,18.5S8,18.3,8,18.2s0.1-0.3,0.1-0.3
			s0-0.1,0-0.1s-0.2-0.3-0.3-0.3s-0.1,0-0.1,0c-0.1,0-0.2,0-0.1-0.1c0-0.1,0-0.3,0-0.3s0-0.1,0-0.1c0.1,0,0.1-0.1,0-0.1
			c-0.1,0-0.2,0-0.2,0c0,0-0.4-0.4-0.4-0.4s0-0.1,0-0.2s0-0.1-0.1-0.1S6.7,16,6.7,16s0-0.1,0.2-0.1s0.2,0,0.2,0s0.1-0.1,0.1-0.1
			c0-0.1,0.1-0.1,0.1-0.1c0.1,0,0.2,0,0.2,0l0.1-0.2c0,0,0-0.1,0.1,0c0.1,0.1,0.1,0.1,0.2,0c0,0,0.1-0.1,0.2-0.1
			c0.1,0.1,0.1,0.1,0.2,0.1s0.1,0,0.2,0c0,0,0.1,0,0.1,0.1c0,0.1,0,0.2,0.1,0.2c0.1,0,0.2,0,0.2,0s0.1,0,0.1-0.1s0.1-0.1,0.1-0.1
			s0.2,0,0.3,0c0.1,0,0.3,0,0.3,0s0.1,0,0.2,0.1c0,0.1,0.1,0.2,0.2,0.1s0.2-0.1,0.2-0.1s0.2,0.1,0.2,0.2c0,0.1,0,0.3,0,0.3
			s0,0.4,0,0.4s0.1,0.2,0.2,0.1c0.1-0.1,0.2-0.1,0.2-0.1s0.1,0,0.1,0s0.1,0.1,0.2,0.2s0.2,0.1,0.3,0.2c0.1,0.1,0.2,0.3,0.3,0.3
			c0.1,0,0.2,0.1,0.2,0.1c0,0.1,0,0.2,0,0.3s0.1,0,0.2,0s0.1,0,0.1,0.1c0,0.1,0.1,0.1,0.1,0s0.1,0,0.2,0s0.2,0.2,0.2,0.1
			c0.1,0,0.1-0.1,0.2-0.1c0.1,0,0.2-0.1,0.2,0c0.1,0.1,0.2,0.1,0.3,0.1c0.1,0,0.4,0,0.4,0c0,0,0.3,0,0.3-0.1s0.1-0.1,0.1-0.1
			s0.1-0.1,0.1,0s0.3,0.2,0.3,0.2S15,18,15.2,18c0.1,0,0.3,0,0.3,0s0.1,0,0.1,0.1s0,0.3,0,0.3l0,0.1c0,0,0.1,0,0.2,0
			c0.1,0,0.1,0,0.1,0.1s0,0.2,0.1,0.3c0.1,0.1,0.1,0.1,0.2,0.2s0.1,0.2,0,0.2c0,0.1-0.1,0.2,0,0.3s0.2,0.2,0.2,0.2
			c0,0,0.1,0.2,0.1,0.3s-0.1,0.3,0,0.3s-0.1,0.2,0,0.3c0.1,0.1,0,0.1,0,0.2s-0.1,0.1,0,0.2s0.1,0.2,0,0.2s0,0.3,0,0.4
			c0,0,0,0.3,0,0.3s0,0.1-0.1,0.1c-0.1,0-0.1,0.1,0,0.1c0.1,0,0.2,0,0.2,0s0.2,0.1,0.3,0s0.1-0.1,0.2-0.1s0.1,0,0.1,0.1
			s0,0.2,0.1,0.2c0.1,0,0.1,0,0.1,0.1s0.1,0.1,0.1-0.1s0.1-0.2,0.1-0.1s0.2,0.1,0.2,0.1s0.1,0,0.2,0s0-0.1-0.1-0.2s0-0.1,0.1-0.2
			s0.1,0,0.2,0c0,0,0.1,0.1,0.2,0.1s0.3,0,0.3,0c0.1,0,0.1-0.1,0.1-0.2s0.1-0.1,0.1-0.1s0.2-0.2,0.2-0.2s0.2,0,0.2,0
			c0.1,0,0.1,0.1,0.2,0.1c0,0,0.2,0.1,0.2,0.1c0.1,0,0.2,0,0.2,0s0.2,0.1,0.2,0.1s0.1,0,0.1,0c0,0,0.1-0.1,0.1-0.1s0-0.2,0-0.2
			l0.3-0.2c0,0,0.1,0,0.1,0s0.2,0,0.3,0s0.1,0,0.1-0.1c0-0.1,0-0.1,0.1-0.1s0.2,0,0.2-0.1s-0.1-0.2,0-0.2c0.1,0,0.1,0,0.2,0
			s0.2,0,0.2-0.1s0.1-0.1,0.2-0.2s0-0.2,0.1-0.2s0.1-0.1,0.2-0.1s0-0.2,0.1-0.3s0.5-0.3,0.5-0.3s0.1-0.1,0-0.1s-0.1,0-0.1,0l0.3-0.5
			c0,0,0.2,0.1,0.2,0.1s0.5-0.1,0.5-0.2s0.2-0.1,0.2-0.1s0-0.2,0-0.3s0.3-0.3,0.3-0.4c0,0,0.1-0.1,0.2-0.1s0.2-0.1,0.2-0.2
			s0.3-0.2,0.3-0.2s0.2-0.1,0.2-0.1s0.2-0.1,0.2-0.1l0.2-0.2c0,0,0.1-0.2,0.1-0.3c0,0,0-0.1,0.1-0.1c0,0.1,0.1,0,0.1,0.1
			c0.1,0.1,0.1-0.1,0.1-0.1s0.1-0.2,0.1-0.2c0,0,0.2-0.2,0.3-0.2c0.1,0,0-0.2,0-0.3c0-0.1-0.1-0.2-0.1-0.2s0-0.6,0-0.6
			s0.1-0.1,0.2-0.1c0.1,0,0.5-0.4,0.5-0.4c0,0,0.4-0.1,0.4-0.1s0.3-0.1,0.3-0.1s0.2,0,0.2,0l0.8-0.8l-0.2-0.3l0.5-0.5
			c0,0,0.3-0.5,0.4-0.5c0,0,0.4-0.3,0.5-0.3c0.1,0,1.1-0.7,1.1-0.7c0,0,0.1-0.1,0.1-0.1c0,0,0.1-0.3,0.1-0.3c0,0,0.1-0.1,0.1-0.1
			s0.4,0.2,0.5,0.3c0.1,0.1,0.4,0.7,0.5,0.7s0.2,0.2,0.3,0.1c0.1-0.1,0.4-0.6,0.4-0.8c0-0.1,0-0.5,0-0.6c-0.1-0.1-0.1-0.3-0.2-0.3
			c0-0.1-0.1-0.3-0.1-0.4"/>
		<path id="path464" class="st0" d="M15.2,18c0,0,0.1-0.2,0.1-0.3s0.1-0.1,0.1-0.1s0.1-0.1,0.1-0.2c0,0,0-0.1,0.1-0.2
			c0,0,0.1-0.1,0.2-0.1c0.1,0,0.3,0,0.4,0s0.1,0,0-0.1S15.9,17,15.9,17c0,0-0.1-0.1,0-0.2s0.1-0.2,0.2-0.1s0.1,0,0.2,0
			s0.1,0,0.1,0.1c0,0.1,0,0.1,0.1,0.1c0.1,0,0.2,0.1,0.2,0.1s0.1,0,0.1,0c0,0,0-0.2,0-0.3s-0.2-0.3-0.2-0.3c0,0-0.2-0.1-0.2-0.2
			s0-0.1,0.1-0.2s0-0.2,0-0.2c0,0-0.1-0.3,0-0.4s0-0.2,0-0.2s-0.3-0.4-0.3-0.4s-0.1-0.2-0.2-0.2c0,0-0.5-0.4-0.5-0.4
			s-0.2-0.2-0.2-0.2l-0.8,0c0,0-0.2,0-0.4-0.1c-0.1,0,0-0.1,0.2-0.1c0.2,0,0.5-0.1,0.5-0.1c0.1,0,0.1-0.1,0.1-0.1
			c0-0.1,0-0.1-0.1-0.2s-0.5-0.3-0.6-0.3c-0.1,0-0.3-0.2-0.2-0.2c0.1-0.1,0.3-0.2,0.3-0.2s0-0.5,0-0.5s0-0.2,0-0.2s0-0.1-0.1-0.1
			c-0.1,0-0.2,0.1-0.2,0.1s-0.1,0-0.1-0.1c0,0-0.1-0.4-0.1-0.4l-0.1-0.3l-0.3-0.3c0,0-0.1,0-0.2,0s-0.2,0-0.2,0s0-0.2,0-0.2
			c0.1,0,0-0.1,0-0.2c0-0.1-0.1-0.2,0-0.3c0-0.1,0-0.4,0-0.4l-0.4,0l-0.3-0.2L12,9.9c0,0-0.1,0-0.2-0.1c-0.1,0-0.1,0.1,0,0.2
			c0.1,0.1,0.1,0.1,0.1,0.1s-0.2,0.1-0.2,0.2s0,0.2,0,0.2l-0.5,0c0,0,0-0.3,0-0.3c0-0.1,0.1-0.1,0.1-0.2c-0.1,0-0.1-0.1,0-0.1
			c0.1,0,0.1-0.2,0.1-0.2c0-0.1-0.2-0.3-0.1-0.3c0.1,0,0.1-0.2,0-0.2c-0.1-0.1-0.1-0.2-0.1-0.2s-0.2,0-0.3-0.1s-0.3-0.2-0.4-0.1
			c0,0.1-0.2,0.1-0.2,0.1l-0.6,0l0-0.3c0,0,0.1-0.1,0-0.2C9.8,8.2,9.8,8.1,9.8,8.1S9.8,8,9.7,8c-0.1,0-0.2-0.1-0.2-0.1L9.1,7.5"/>
		<path id="path466" class="st0" d="M14.3,12.8c0,0,0.2-0.1,0.3-0.1c0.1,0,0.3,0,0.4,0c0.1-0.1,0.3-0.1,0.3-0.1c0.1,0,0.4,0,0.4,0
			c0.1,0,0.7-0.6,0.7-0.6l0.5-0.1c0,0,1.1-0.5,1.1-0.5s0.3-0.2,0.3-0.2s2.7,0,2.8,0s0.2,0.1,0.3,0.1s0.8,0.1,0.9,0.1s0.2,0,0.3,0
			c0-0.1,0.2-0.2,0.2-0.2s0.1-0.1,0.2,0c0.1,0.1,0.2,0.2,0.3,0.2c0.1,0,0.4,0.1,0.4,0.1s0.2,0,0.2,0.1c0,0,0.2,0.1,0.3,0
			c0.1,0,0.2,0.1,0.2,0.2c0,0.1,0,0.1,0,0.1c0,0,0.1,0.2,0.1,0.2s0.1,0,0.1-0.1c0,0,0.1,0,0.1,0.1c0,0.1,0.1,0.1,0.2,0.1
			s0.1,0.2,0,0.3c-0.1,0.1,0,0.2,0,0.2c0,0,0.1,0.1,0.2,0.1c0,0.1,0.1,0.1,0.1,0c0.1,0,0.2,0,0.2,0.1c0,0,0.1,0.1,0.2,0.1
			c0.1,0,0.2,0.1,0.2,0.1s0.1-0.1,0.2-0.2c0.1,0,0.1-0.1,0.1-0.2s0.2-0.2,0.3-0.2s0.1,0.1,0.1,0.1c0,0,0.1,0.1,0.1,0.1
			c0,0,0.3,0.1,0.3,0.1c0.1,0,0.2,0.1,0.3,0.1c0.1,0,0.1,0.1,0.2,0.1c0.1,0,0.2,0,0.3,0c0.1,0,0.1-0.1,0.2-0.1
			c0.1,0,0.2-0.1,0.2-0.1l0.9,0l0.2,0.6c0,0,0.3,0.3,0.3,0.4c0.1,0.1,0.5,0.5,0.5,0.5l0,0.5c0,0,0.1,0.4,0.1,0.4s0.1,0.1,0.1,0.1
			s0.4,0.3,0.4,0.3s0.2,0.1,0.2,0.1c0,0,0.1,0.1,0,0.2c0,0.1-0.2,0.6-0.2,0.7s-0.1,1.3-0.1,1.3l-0.4-0.4l-0.9,0.1c0,0-0.1,1,0,1.4
			c0.1,0.4,0.2,1,0.2,1.1c0,0.1,0.2,0.3,0.2,0.4c0.1,0.1,0.7,0.9,0.7,0.9L30.2,22l-0.8-0.3c0,0-0.1,0.2-0.2,0.3
			C29.2,22,29,22,28.9,22c0,0-0.2,0-0.2,0c0,0-0.2,0-0.3,0.1c-0.1,0.1-0.3,0.4-0.3,0.4s-0.6,0-0.6,0s-0.2,0.1-0.2,0.2
			c0,0.1,0,0.2-0.1,0.2c-0.1,0-0.2,0.1-0.3,0s-0.1-0.1-0.1-0.1c0,0-0.2-0.1-0.3,0c-0.1,0.1-0.4,0.4-0.4,0.4s-0.1,0.1-0.2,0.1
			s-0.2,0-0.2,0c0,0-0.1,0-0.1,0c0,0-0.2,0.2-0.2,0.2s0,0.1,0.1,0.1s0.2-0.1,0.2-0.1c0,0,0.1,0.1,0,0.1s-0.2,0-0.2,0s0,0.2,0,0.2
			c0,0,0.1,0,0.1,0.1c0.1,0,0.1,0.1,0,0.1c0,0.1-0.2,0.4-0.3,0.4s-0.1,0.1-0.2,0c-0.1-0.1-0.3-0.1-0.4,0c-0.1,0-0.2,0.1-0.2,0.1
			c0,0,0,0.1-0.1,0.1s-0.6,0-0.6,0c-0.1,0-0.1-0.2-0.1-0.2c0,0-0.2-0.5-0.2-0.5s-0.1,0-0.1,0c0,0-0.7,0.1-0.7,0.1"/>
		<path id="path468" class="st0" d="M10.6,1.9c0,0-0.1,0.2-0.1,0.3s0,0.4,0,0.5c0.1,0.1,0.1,0.3,0,0.3s-0.1,0.2-0.1,0.2s0,0.2,0,0.3
			s-0.1,0.2,0,0.2c0.1,0,0.3,0,0.3,0.1s0.1,0.1,0.1,0.1c0.1-0.1,0.1-0.2,0.1-0.2s0-0.1,0.1-0.2s0.3-0.1,0.3,0c0,0.1,0,0.2,0.1,0.2
			c0.1,0,0.1,0.1,0,0.2c-0.1,0.1-0.2,0.1-0.2,0.2s-0.1,0.3-0.1,0.4c0,0.1,0,0.4,0,0.4c0,0,0.1,0.1,0.2,0c0.1-0.1,0.2-0.1,0.4-0.1
			s0.5-0.1,0.5-0.1s0.5,0,0.5,0.1c0.1,0.1,0.2,0.1,0.3,0c0,0,0.2-0.2,0.2-0.2s0.3,0,0.4,0s0.4,0,0.4,0s0.1,0,0.1-0.1
			c0,0,0-0.2,0-0.3c0,0,0-0.2,0.1-0.2c0,0,0.1-0.2,0-0.2s-0.1-0.3,0-0.2c0.1,0.1,0.2,0.2,0.2,0.3s0.1,0.2,0.1,0.2s0,0.2,0,0.2
			c-0.1,0-0.2,0.2-0.1,0.2c0.1,0,0.2,0.1,0.2,0.1c0,0.1,0.2,0.1,0.2,0.1c0.1,0,0.3-0.1,0.4-0.1c0.1,0,0.2-0.1,0.3,0
			c0,0.1,0.3,0.3,0.4,0.2c0.1-0.1,0.2-0.2,0.3-0.1c0.1,0.1,0.4,0.3,0.5,0.3c0.1,0,0.3,0.1,0.4,0c0,0,0.2-0.2,0.2-0.2
			c0,0,0.3,0,0.4,0c0.1,0,0.7,0.2,0.8,0.2s0.9-0.1,1-0.1s0.3,0.1,0.4,0.2s0.1,0.2,0,0.3c0,0.1,0,0.3,0.1,0.4c0.1,0.1,0.2,0,0.2-0.1
			c0-0.1,0.1-0.1,0.2-0.1c0.1,0,0.3,0,0.3,0c0,0,0.2,0,0.2,0C20.8,5.5,21,5.5,21,5.6s0.4,0.1,0.3,0.2S21.1,5.9,21.1,6
			c0,0.1,0.2,0.3,0.3,0.3s0.2,0,0.3,0c0.1,0.1,0.2,0.2,0.2,0.2c0,0,0.3,0.3,0.4,0.4c0.1,0.1,0.2,0.2,0,0.2c-0.2,0-0.4,0-0.4,0
			s-0.2,0.2-0.2,0.2c0,0.1,0,0.2-0.1,0.2c-0.1,0-0.3,0-0.3,0s-0.1,0.1-0.1,0.2c0,0-0.1,0.1-0.2,0.2c-0.1,0-0.2,0.1-0.2,0.1
			c0,0.1,0,0.2,0,0.3s0,0.4,0,0.4s0.1,0,0.2,0c0.1,0,0.1,0.1,0.1,0.2c0,0.1,0,0.3,0.1,0.4c0.1,0.1,0.1,0.2,0.1,0.2
			c0,0.1,0,0.3,0,0.3c0.1,0.1,0,0.1-0.1,0.2S21,10,21,10s-0.2,0.1-0.2,0.2c0,0.1,0,0.2,0,0.3c-0.1,0.1-0.1,0.1,0,0.2s0,0.2,0,0.3"/>
		<path id="path470" class="st0" d="M12.6,28.2c0,0,0.3,0,0.4,0S13,28,13.1,28c0.1,0,0.2-0.1,0.3,0c0,0.1,0,0.2,0.1,0.2
			c0.1,0,0.2,0.1,0.2,0.2s0.1,0,0.2,0c0,0,0.2,0.1,0.2,0.1s0.1,0.2,0,0.3c0,0.1-0.1,0.1,0,0.1c0.1,0,0.1,0.1,0.1,0.2
			s0.1,0.1,0.2,0.1s0.1,0,0.1,0.1s0,0.1,0.1,0.2c0.1,0,0.2,0,0.2,0c0.1,0,0.2-0.1,0.2,0c0,0.1,0.1,0.1,0.1,0.1s0.2,0,0.2-0.1
			c0-0.1,0-0.1,0-0.2s0.1-0.1,0.2,0s0.2,0.1,0.2,0.1s0.1-0.1,0.2,0s0.3,0.1,0.2,0.2c-0.1,0.1-0.1,0.1,0,0.1c0.1,0.1,0.1,0.1,0.1,0.2
			s0,0.2-0.1,0.3s-0.1,0.2-0.1,0.2c0.1,0,0.2-0.1,0.3,0c0.1,0.1,0.2,0.1,0.3,0.1s0.2,0,0.2,0s0,0.1,0.1,0.2c0.1,0.1,0.1,0.3,0.1,0.3
			s0,0.2,0.1,0.2s0.3,0,0.3,0c0.1,0.1,0.2,0,0.2,0s0.1-0.2,0.1-0.2s0.2-0.1,0.3-0.2s0.2,0,0.2,0.1s0.1,0.1,0.2,0.1
			c0,0,0.2-0.1,0.3-0.1s0.2-0.2,0.2-0.3c0-0.1,0-0.3,0-0.3s0.1-0.3,0.2-0.3s0.3,0,0.4,0c0.1,0.1,0.3,0,0.3,0c0-0.1,0-0.3,0-0.3
			l0.2-0.2c0,0,0.1,0,0.2,0s0.2,0,0.2,0s0.1-0.1,0.2-0.1c0.1,0,0.2,0,0.3,0s0.1-0.1,0-0.2s-0.2-0.2-0.2-0.2s0-0.2,0-0.2
			s-0.1-0.3,0-0.3s0-0.1,0-0.2s0-0.3,0-0.3s0.1-0.2,0.2-0.3c0,0,0.2-0.2,0.2-0.2s0.2,0,0.3,0s0.2-0.1,0.2,0c0.1,0,0.2,0,0.2,0"/>
		<path id="path472" class="st0" d="M20.6,44.2c0,0,0-0.2,0-0.2c0,0,0.1-0.1,0.1-0.1s0.3,0,0.4-0.1c0.1,0,0.2-0.1,0.2-0.1
			s0-0.2,0-0.2s-0.1-0.2-0.1-0.2s-0.3-0.4-0.3-0.4s-0.2-0.1-0.1-0.2s0.1-0.2,0.2-0.2c0.1,0,0.2,0,0.2,0s0-0.3,0-0.3c0,0,0-0.2,0-0.2
			s0.1-0.1,0.2-0.1s0.4,0.1,0.4,0.1c0,0.1,0.1,0.2,0.1,0.2s0.1,0.1,0.1,0.1s0.1,0,0.1-0.1s-0.1-0.2,0-0.2c0.1,0,0.1-0.1,0.1-0.2
			s0-0.3,0-0.3s0-0.1,0-0.1c0.1,0,0.1,0,0.1-0.1s0-0.1,0-0.1L22,41.2L21.9,41c0,0-0.1-0.1,0-0.2c0-0.1,0.1-0.2,0-0.2s-0.1-0.2,0-0.3
			s0.1-0.1,0.1-0.2c0,0,0-0.1,0-0.1l-0.2,0.2c0,0-0.1,0-0.2,0c0,0-0.1-0.1-0.2-0.1s-0.2,0.1-0.2,0.1s-0.1,0.1,0,0.2
			c0.1,0.1,0.1,0.1,0,0.1c-0.1,0-0.1,0.1,0,0.2c0,0,0,0.1-0.1,0.1c-0.1,0-0.2,0-0.2,0.1c0,0.1-0.1,0-0.2,0c-0.1,0-0.2,0-0.2,0.1
			s-0.2,0.1-0.2,0.1c0-0.1,0-0.2-0.1-0.2c-0.1,0-0.2,0-0.3,0s-0.1-0.1,0-0.1s0.2-0.2,0.2-0.2s0-0.1-0.1-0.2c-0.1,0-0.4-0.2-0.4-0.2
			s-0.1,0-0.1-0.1s0.1-0.2,0.1-0.2c0,0,0-0.1-0.1-0.1c-0.1,0-0.2-0.1-0.2-0.1s-0.2-0.1-0.2-0.2c0-0.1,0-0.2,0-0.3s-0.1-0.3-0.1-0.3
			c0,0,0-0.2,0.1-0.2c0.1-0.1,0.2-0.2,0.2-0.2s0.1,0,0.1-0.1c0-0.1,0-0.1,0.1-0.1c0,0,0.1-0.1,0.1-0.2s0.1-0.1,0.1-0.1
			c0.1,0,0.1,0.2,0,0.2c-0.1,0-0.1,0.1-0.1,0.2c0,0,0.1,0.1,0.2,0c0,0,0.2-0.3,0.2-0.3s0.1-0.3,0.1-0.3c0,0,0-0.1,0.1-0.2
			c0.1,0,0.1-0.1,0.1-0.2c0-0.1,0-0.3,0.1-0.3c0.1,0,0.1-0.2,0.1-0.2l0-0.3c0,0,0-0.1,0.1-0.1c0.1,0,0.2-0.1,0.2,0
			c0.1,0.1,0.2,0.2,0.2,0.2s0.1,0,0.2,0s0.2,0.1,0.2,0.1c0,0,0.2,0.2,0.2,0.3s0.1,0.1,0.1,0c0-0.1,0.1-0.1,0.2,0c0.1,0,0.2,0,0.2,0
			s0.1-0.1,0.1-0.1s0.1,0,0.1,0.1c0,0.1,0,0.2,0,0.3s0.1,0,0.2,0c0,0,0.2,0,0.3,0s0.1,0.1,0.1,0.1s0,0.2,0,0.2s0.1,0.2,0.1,0.3
			c0,0,0,0.3,0.1,0.3s0.2,0.1,0.3,0.1s0.1-0.1,0.2-0.1s0.2-0.1,0.3,0c0.1,0.1,0.1,0.2,0.2,0.2s0.2,0,0.2,0s0.2-0.3,0.2-0.3
			s0.1-0.1,0.2-0.1c0.1,0,0.1,0,0.1-0.1c0-0.1-0.1-0.2-0.1-0.2s0.1-0.1,0.2-0.1s0.4,0,0.4,0l0.1-0.3l0.4,0l0.4-0.7l1,0.1l0.3,0.2
			l0.4,0.1"/>
		<path id="path474" class="st0" d="M21.5,40.4l0.2-0.3l0-0.3c0,0,0-0.1,0.1-0.2c0.1,0,0.1-0.1,0.1-0.2c0-0.1,0-0.2,0-0.2l0.1-0.1
			l0-0.5c0,0,0.2-0.2,0.2-0.2s0.1-0.2,0.1-0.3c0-0.1,0-0.2,0.1-0.2c0,0,0.3-0.2,0.3-0.1"/>
	</g>
	<g id="Int_x27_l_borders">
		<path id="path479" class="st1" d="M35.5,10.4c0.9,0.1,1.7,0.2,2.6,0.3l0,0c0,0,0,0,0,0c0,0,0.1,0.1,0.1,0.1l0.1,0.1
			c0,0,0,0.1,0.1,0.1c0.1,0.1,0.1,0.1,0.1,0.1c0,0,0,0.1,0,0.1c0,0.1,0,0.1,0,0.2c0,0,0,0.1,0,0.1c0,0,0,0.1,0,0.1
			c0,0,0.1,0.1,0.1,0.1c0,0,0,0.1,0,0.1c0,0,0.2,0.2,0.2,0.2l0,0.1c0.7,0,1.4,0,2.1,0"/>
		<path id="path483" class="st1" d="M35.5,10.4c0,0-0.4,0.1-0.4,0.1c0,0,0,0,0,0c-1.6-0.2-3.3-0.3-4.9-0.4c-0.1-0.1-1.2-1-1.4-1.1
			c-0.6-0.5-3-2.4-3.3-2.7C25.1,6,22.6,4,22.6,4l-0.2-0.1c-0.5-0.2-1.1-0.5-1.6-0.7c-0.1,0-0.1-0.1-0.2-0.1c0,0-2.3-1.4-2.8-1.7
			c0,0,0,0,0,0c0,0-2.4-0.5-3.5-0.7"/>
		<path id="path489" class="st1" d="M47.8,24.3c0,0,0.1,0.2,0.1,0.2c0,0,0.2,0.4,0.2,0.4l0.2,0.1l0.3,0.1l0.1,0l0.5,0l0.3-0.3l0-0.1
			l0,0"/>
		<path id="path497" class="st1" d="M1.9,9.6c0,0,0.1,0,0.1,0c0,0,0,0,0,0c0,0,0.1,0,0.1,0c0.1,0,0.2,0,0.3,0.1
			c0.2,0,0.3,0.1,0.5,0.1c0.1,0,0.2,0,0.3,0.1c0,0,0.1,0,0.1,0c0,0,0.1,0,0.1,0c0,0,0,0,0,0c0.2,0,0.3,0.1,0.5,0.1
			c0.1,0,0.2,0,0.2,0c0,0,0,0,0.1,0c0,0,0.1,0,0.1,0c0.1,0,0.1,0,0.2,0c0.1,0,0.2,0,0.2,0c0.1,0,0.2,0,0.3,0C5.3,10,5.5,9.8,5.6,9.7
			c0.1-0.1,0.7-0.6,0.7-0.6c0-0.1,0.2-0.3,0.3-0.4c0.1-0.1,0.1-0.2,0.2-0.3c0,0,0.1-0.1,0.1-0.1C7,8.2,7,8.1,7,8.1
			c0,0,0.1-0.1,0.1-0.1c0.4-0.1,0.7-0.1,1.1-0.2c0.2,0,0.3-0.1,0.5-0.1c0.1,0,0.5-0.1,0.6-0.1c0,0,0,0,0,0c0.1-0.1,0.1-0.2,0.2-0.3
			c0-0.1,0.1-0.2,0.1-0.2c0.1-0.2,0.1-0.3,0.2-0.5c0.2-0.1,0.3-0.2,0.5-0.3C10.3,6.1,10.5,6,10.6,6c0,0,0.1,0,0.1-0.1l0,0
			c-0.1-0.1-0.2-0.2-0.3-0.3c0-0.1-0.1-0.1-0.1-0.2c0,0,0,0,0,0c-0.1-0.1-0.1-0.1-0.2-0.2c0,0,0,0,0-0.1c0,0,0,0-0.1-0.1
			c0,0,0,0,0-0.1C9.8,4.9,9.6,4.7,9.5,4.5c0,0,0,0,0,0c0,0,0,0-0.1-0.1c0,0,0,0-0.1-0.1c0,0,0,0,0,0C9.1,4.1,9,4,8.9,3.8
			C8.8,3.8,8.7,3.7,8.7,3.6l0,0c0,0,0,0-0.1-0.1c0,0,0,0,0,0c0,0,0,0,0,0c0,0-0.1-0.1-0.1-0.1C8.4,3.4,8.3,3.3,8.3,3.2
			C8.1,3.1,8,2.9,7.8,2.7C8.2,2.6,8.6,2.5,9,2.4c0.1,0,0.1,0,0.2-0.1c0.1,0,0.1,0,0.2-0.1l0.4-0.1c0.1,0,0.1,0,0.2-0.1
			c0.1,0,0.3-0.1,0.4-0.1c0.1,0,0.3-0.1,0.4-0.1c0,0,0.1,0,0.1,0c0.2,0,0.3-0.1,0.5-0.1c0.3-0.1,0.5-0.1,0.8-0.2
			c0.1,0,0.3-0.1,0.4-0.1c0.2-0.1,0.4-0.1,0.7-0.2c0.1,0,0.1,0,0.2-0.1c0,0,0.1,0,0.1,0c0,0,0,0,0,0C13.8,1,14,0.8,14.2,0.6
			c0,0,0,0,0,0"/>
		<path id="path501" class="st1" d="M50.1,25.8l0,0.5l0.7,0.9L53,30l7,1.4l0.6-0.6l1.3,2.3l-0.7,2.3l-1.2,4l-8.7,3.2l0,0
			c0,0-1.4,0.3-2.9,0.5c-1.5,0.2-3,0.4-3,0.4L43,43.8l-2.5,1.3c0,0-0.2,0.1-0.2,0.2c0,0.1-1.6,2.1-1.6,2.2c-0.1,0.1-0.3,0.9-0.3,1
			c0,0-0.1,0.1-0.1,0.1S37.5,49,37.5,49c0,0-0.1,0.1-0.1,0.1h-0.5l-0.7-1c0,0-0.4,0.1-0.5,0.1c-0.2,0-0.8,0.1-0.9,0.1
			c-0.1,0-1.9-0.2-2-0.2c-0.1,0-0.5-0.1-0.5-0.1c-0.1,0-0.3-0.2-0.3-0.2c0,0-0.2-0.1-0.2-0.1H30l-0.2,0.1c0,0-0.1,0-0.2-0.1
			c-0.1-0.1-0.3,0-0.5,0c-0.1,0-0.5,0.1-0.5,0.1l-0.1-0.1c-0.1,0.1,0,0.1-0.1,0.2l-0.1-0.1c0,0,0,0-0.1,0l-0.1,0l0,0l0,0l0,0
			c0,0-0.1,0.2-0.1,0.2L27.9,48l-0.2,0c0,0,0-0.1,0-0.1l0,0l0,0l0,0c0,0-0.1,0-0.1,0l0,0l0,0l0,0l0,0l0,0c0,0,0,0,0,0c0,0,0,0,0,0
			c0,0-0.1,0-0.1,0l-0.1,0c0,0-0.1,0-0.1,0c0,0,0,0,0,0c0,0-0.1-0.1-0.1-0.1c0,0,0,0,0,0l-0.1-0.1c0,0-0.1-0.1-0.1-0.1
			c-0.1,0-0.1-0.1-0.2-0.1c0,0-0.1-0.1-0.1-0.1c0,0,0,0,0,0l0,0c0,0-0.1-0.1-0.1-0.1c-0.1,0-0.2,0-0.3,0l0,0c0,0,0,0-0.1,0
			c-0.1,0.1-0.2,0.2-0.2,0.4c0,0.1,0,0.1,0,0.1c0,0,0,0,0,0c0,0,0,0,0,0l0.1,0c0,0,0,0,0.1,0c0,0,0.1,0,0.1,0l0,0l0,0l0,0l0,0
			c0,0,0.1,0.1,0,0.1c0,0-0.1,0-0.1,0l0,0l0,0l0,0c0,0-0.1,0-0.1,0l0,0c0,0-0.1,0-0.1,0l0,0c0,0,0,0.1,0,0.1l0,0c0,0,0,0-0.1,0.1
			l0,0l0,0c0,0,0,0-0.1,0l0,0l0,0l0,0.1l-0.1,0l0,0c0,0,0,0.1,0,0.1c0,0,0.1,0,0.1,0l0.2,0.2c0,0.1-0.2,0-0.2,0.1l0,0.2
			c0,0,0,0.1,0,0.1l-0.1,0c0,0,0,0-0.1,0c0,0,0,0,0,0l0,0c0,0,0,0,0,0.1l0,0c0,0,0,0,0,0c0,0,0,0,0,0.1c0,0,0,0,0,0l0,0l0,0l0,0l0,0
			c0,0,0,0,0,0.1l0,0l0,0l0,0c0,0,0,0.1,0,0.1l0,0l0,0.1l0,0c0,0-0.1,0-0.1,0c0,0,0,0,0,0l0,0c0,0,0,0.1,0,0.1l0,0l0,0
			c0,0,0,0.1,0,0.1c0,0,0,0-0.1,0l0,0c0,0,0,0-0.1,0c0,0-0.1,0-0.1,0l0,0l0,0l0,0l0,0l0,0l0,0c0,0,0,0,0,0.1c0,0.1,0,0.1,0,0.1
			c0,0,0,0,0,0.1l0,0.1l0,0c0,0,0,0-0.1,0c0,0,0,0,0,0c-0.1,0-0.1,0-0.2,0c0,0,0,0,0,0c0,0-0.1,0-0.1,0c0,0,0,0,0,0c0,0,0,0-0.1,0
			l0,0c0,0,0,0.1,0,0.1l0,0.1l0,0l-0.1,0c-0.1,0-0.1,0.1-0.2,0.1c0,0,0,0,0,0c0,0-0.1,0-0.1,0c0,0,0,0,0,0c0,0,0,0-0.1,0"/>
	</g>
</g>
<path class="st1" d="M24.6,50.9C24.6,50.8,24.6,50.8,24.6,50.9c0-0.1,0-0.2,0-0.2c-0.1,0,0-0.1-0.1-0.1c0,0,0,0-0.1-0.1
	c0,0-0.1-0.1-0.1-0.2c0,0,0.1-0.3,0-0.3l0,0l0,0c0,0,0,0,0,0l0,0l0,0l0,0c0-0.1,0-0.1,0-0.1l0,0l0,0c0,0,0,0,0,0c0,0,0,0,0-0.1
	c-0.1,0-0.1-0.1-0.1-0.1l0,0c0,0,0,0,0,0c0,0,0-0.1,0-0.1c0,0,0,0,0,0c0,0,0,0,0,0c0,0,0,0-0.1,0c0,0,0,0,0,0c0,0,0,0,0,0l0,0
	c0,0,0-0.1,0-0.1c0,0,0,0,0,0c0,0,0,0,0,0l0,0c0-0.1,0.1-0.1,0.1-0.1c0,0,0,0,0,0c0,0,0-0.1,0-0.1c0,0,0-0.1,0-0.1l0,0
	c-0.1,0,0,0-0.1-0.1c-0.1,0-0.2,0-0.2,0c-0.1-0.1-0.1-0.2-0.1-0.3c0,0,0-0.1,0-0.1c0,0,0,0-0.1,0c0,0-0.1-0.1-0.1,0c0,0,0,0,0,0
	l0.1,0.1l0,0l0,0l0,0c0,0,0,0.1,0,0.1c0,0,0,0.1,0,0.1c0,0,0,0,0,0c0,0,0,0,0,0l0,0c0-0.1,0-0.1,0-0.2c0,0,0-0.1,0-0.1
	c0-0.1-0.1-0.2-0.1-0.3c0-0.1,0-0.2,0-0.2c0,0,0,0,0,0c0,0,0-0.1,0-0.1l0,0c0,0,0,0,0,0l0,0c0-0.1,0-0.1,0-0.2c0,0,0-0.1,0-0.1
	c0,0,0-0.1,0-0.1c0,0-0.1,0-0.1,0c0,0-0.1-0.1-0.1-0.1c0,0,0,0-0.1,0c0,0,0,0,0-0.1c0,0,0,0-0.1,0c0,0-0.1-0.1-0.1-0.1l0,0l0,0l0,0
	c0,0,0-0.1,0-0.1c0-0.1,0-0.1-0.1-0.1c0,0,0-0.1,0-0.1c0,0-0.1,0-0.1,0c0-0.1-0.1-0.1-0.1-0.1c0,0,0,0,0,0c0,0,0,0,0,0c0,0,0,0,0,0
	l0,0c0,0-0.1-0.1-0.1-0.2c0,0-0.1,0-0.1-0.1c0,0,0-0.1-0.1-0.1c0,0,0,0-0.1,0c0,0-0.1-0.1-0.1-0.1c0,0,0,0-0.1,0c0,0,0-0.1,0-0.1
	c0,0-0.1,0-0.1,0c-0.1,0-0.1-0.1-0.1-0.2c0,0,0,0-0.1,0c0,0,0-0.1,0-0.1l0,0l0,0c0,0,0,0,0-0.1l0,0c0,0-0.1,0-0.1,0l0,0c0,0,0,0,0,0
	l0,0c0-0.1-0.1-0.1-0.1-0.1c0,0,0-0.1,0-0.1c0,0,0,0,0,0c0,0,0-0.1,0-0.1c0,0,0,0,0-0.1c0,0,0-0.1,0-0.1c0,0,0,0,0,0l0,0
	c0,0,0,0,0,0l0,0c0,0-0.1,0-0.1,0c0,0,0,0,0,0c0,0,0,0,0,0c0,0,0,0-0.1-0.1l0,0c0,0,0,0,0,0l0,0l0,0c0,0,0-0.1,0-0.1l0,0l0,0l0,0
	l0,0c0,0-0.1,0-0.1,0c0,0,0,0,0-0.1c0,0-0.1-0.1-0.1-0.1c0,0,0,0,0-0.1c0,0,0,0,0-0.1c0,0,0-0.1,0-0.1c0,0,0,0,0,0c0,0,0-0.2,0-0.2
	c0,0,0,0,0,0c0,0,0-0.1,0-0.1c0,0-0.1-0.1-0.1-0.1c0-0.1,0-0.1-0.1-0.1c0,0,0,0-0.1,0c0,0,0,0,0,0c0,0,0,0,0,0c0-0.1-0.1,0-0.1-0.1
	c0,0,0,0,0,0c0,0-0.1-0.2-0.2-0.3c0,0,0,0,0-0.1c0,0,0-0.1,0-0.1c0-0.1,0.1-0.1,0.1-0.2c0,0,0,0,0-0.1c0,0,0,0-0.1,0
	c0,0,0-0.1,0-0.1c0,0-0.1,0-0.1,0c0,0-0.1-0.2-0.1-0.2c0,0,0,0,0-0.1c0,0,0,0,0,0c0-0.1,0-0.1,0-0.1c0,0,0,0,0,0c0-0.1,0-0.1,0-0.2
	c0,0,0,0,0,0c0,0,0,0-0.1-0.1c-0.1,0-0.1,0-0.2,0c-0.1,0-0.2-0.3-0.1-0.3c0,0,0,0,0,0c0,0-0.1-0.1-0.1-0.1c0,0,0,0-0.1,0
	c0,0,0-0.1,0-0.1l0,0c0,0,0,0,0,0c0,0,0,0-0.1,0l0,0c0,0,0,0,0,0l0,0l0,0c0,0,0,0,0,0c0,0,0,0,0,0c0,0-0.1-0.2-0.1-0.2
	c0,0,0,0,0-0.1c0-0.1,0-0.1,0-0.2l0,0c0,0,0,0-0.1-0.1c-0.1,0-0.1,0-0.2,0c0,0-0.3-0.3-0.3-0.3l0,0c0.1,0,0.1,0,0.1,0.1l0,0
	c0,0,0-0.1,0-0.1c0,0,0-0.1,0-0.1c0-0.1-0.1-0.3-0.2-0.4c0,0-0.1,0-0.1,0c-0.1,0-0.1-0.1-0.2,0l0,0c0,0,0,0,0,0.1l0,0c0,0,0,0,0,0
	c-0.1-0.1,0-0.1-0.1-0.2c0,0-0.1,0-0.1-0.1c0,0,0-0.1,0-0.1c0,0-0.1-0.1-0.1-0.1c0-0.1,0-0.1,0-0.2c0-0.1-0.2-0.1-0.2-0.2
	c0,0,0,0,0-0.1c-0.1,0,0,0-0.1-0.1c0,0,0,0,0,0c-0.1,0-0.1,0-0.2,0c0,0,0,0-0.1-0.1c0,0-0.1,0-0.1,0c-0.1,0-0.1-0.1-0.1-0.1
	c0,0,0,0-0.1-0.1c0,0,0,0,0-0.1c0,0-0.2-0.1-0.2-0.1c0,0-0.1-0.1-0.1-0.1l0,0l0,0c0,0,0,0,0-0.1c0,0-0.1-0.1-0.1-0.1l0,0l0,0
	c0,0,0,0-0.1,0c-0.1,0-0.1,0-0.2,0c0,0,0,0-0.1,0l0,0l0,0c0,0-0.2-0.1-0.2-0.1c0,0.1,0.1,0.1,0.1,0.1l0,0l0,0c0,0,0,0,0,0
	c-0.1,0-0.3-0.2-0.3-0.2c0,0-0.1,0-0.1,0c0,0,0,0,0,0c0,0-0.1-0.1-0.1-0.1c0,0,0,0-0.1-0.1c0,0,0,0,0,0c0,0-0.1,0-0.1,0
	c0,0-0.1-0.2-0.1-0.2c0,0,0,0,0-0.1c0,0,0-0.1,0-0.1c0,0,0,0-0.1-0.1c0,0,0,0,0.1,0l0,0c0,0,0,0,0,0c0,0-0.1,0-0.1,0
	c0,0,0,0-0.1-0.1c0,0,0-0.1,0-0.1c0,0,0-0.1,0-0.1c0,0,0,0-0.1,0c0,0-0.1-0.1,0-0.1c0,0,0,0,0-0.1l0,0C15,37,15,37,15,37l0,0l0,0
	c0,0,0,0,0,0.1c-0.1,0-0.1,0-0.1-0.1l0,0c0,0,0,0,0-0.1l0,0l0,0c0,0,0,0.1,0.1,0l0,0c0,0,0,0,0,0c0,0,0,0,0-0.1l0,0c0,0,0,0-0.1,0
	l0,0c0,0,0,0,0,0l0,0l0,0c0,0,0,0,0,0.1l0,0c-0.1,0-0.1-0.1-0.2-0.1c0,0-0.1-0.1,0-0.1l0,0c0,0,0,0,0.1,0c0,0,0-0.1,0-0.1l0,0
	c0,0-0.1,0-0.1,0c0,0,0,0,0,0c0,0,0,0,0-0.1c0,0,0,0,0,0c0,0,0,0,0-0.1c0,0,0,0,0,0c0,0,0-0.1,0-0.2c0,0,0,0,0,0c0,0,0,0,0-0.1
	c0,0-0.1-0.1-0.2-0.1c0,0,0-0.1-0.1-0.2c0,0,0-0.1,0-0.1c0-0.1-0.1-0.1-0.1-0.1c0-0.1,0-0.1-0.1-0.1c0,0,0-0.1-0.1-0.1c0,0,0,0,0,0
	c0,0,0,0,0-0.1c0,0,0,0,0.1,0c0,0,0-0.1,0.1-0.1c0,0,0,0,0,0l0,0c0,0,0,0,0.1-0.1c0-0.1,0.1-0.2,0-0.3c0,0,0,0-0.1-0.1l0,0
	c0,0,0,0,0,0l0,0c0,0,0,0-0.1,0c0,0,0,0,0,0c0,0,0,0,0,0l0,0l0,0c0,0,0,0,0,0.1l0,0c0,0,0,0,0,0c0,0,0,0,0-0.1l0,0c0,0,0-0.1,0-0.1
	c0,0,0-0.1,0-0.1c0,0,0-0.1,0-0.2c0-0.1-0.1-0.1,0-0.2c0,0,0,0,0.1,0c0,0,0,0,0-0.1c0,0,0,0,0,0l0,0c0,0,0,0,0,0l0,0
	c0,0,0,0.1-0.1,0.1l0,0c0,0,0,0,0-0.1c0,0,0,0-0.1-0.1c0,0,0-0.1,0-0.1l0,0c0,0,0,0,0,0c0,0,0,0,0,0c0-0.1-0.1-0.1-0.1-0.2
	c0,0,0,0,0-0.1l0,0c0,0,0,0-0.1-0.1l0,0c0,0,0,0,0.1,0c0,0,0,0,0.1,0c0,0,0,0.1,0,0.1c0,0,0,0,0,0c0,0,0,0.1,0.1,0.1c0,0,0,0,0,0
	c0,0,0,0,0,0c0,0,0-0.1,0-0.1c0,0,0-0.1,0-0.1c0,0,0,0,0-0.1c0,0,0,0,0-0.1c0,0,0-0.1,0-0.1c0,0,0,0,0-0.1c0,0,0,0,0,0
	c0,0,0-0.1,0-0.1c0,0,0,0,0.1-0.1c0,0,0-0.2,0-0.2l0,0l0,0c0,0,0,0.1,0,0.1l0,0l0,0c0,0,0-0.1,0-0.1l0,0c0,0,0,0,0-0.1c0,0,0,0,0,0
	c0-0.1,0.1-0.1,0.1-0.2c0-0.1,0-0.1,0-0.2c0,0,0,0,0.1,0c0.1-0.1,0-0.2,0.1-0.2c0,0,0,0,0-0.1c0,0-0.1,0-0.1,0l0,0
	c0,0,0,0.1-0.1,0.1l0,0c0-0.1,0,0,0-0.1c0,0,0,0,0-0.1c0-0.1,0-0.1,0-0.2c0-0.1,0-0.1,0-0.1c0-0.1,0-0.1,0-0.1c0-0.1-0.1,0-0.1-0.2
	c0,0,0,0,0,0c0,0,0,0,0,0c0,0,0-0.1-0.1-0.2c0-0.1-0.1-0.1-0.1-0.1c0,0,0.1,0,0.1-0.1l0,0c-0.1-0.1-0.2-0.2-0.2-0.2l0,0l0,0l0,0
	c0,0,0,0,0,0c0.1,0,0.1,0.1,0.1,0.2l0,0c0,0,0,0,0-0.1c0,0,0-0.1-0.1-0.1c0-0.1-0.1-0.1-0.1-0.2c0,0,0,0,0,0c0,0,0,0,0,0
	c0,0,0-0.1,0-0.1c0,0,0,0,0,0l0,0c0,0,0.1,0,0.1,0c0,0.1,0,0.1,0.1,0.1c0,0,0,0,0,0.1c0,0,0.1,0,0.1,0l0,0l0,0c0,0,0,0,0-0.1
	c0,0,0,0,0,0c0-0.1,0-0.1-0.1-0.1c0,0,0-0.1-0.1-0.1c0,0,0,0,0,0l0,0c0,0,0,0,0,0l0,0c0,0,0,0,0,0c0,0,0,0-0.1,0c0,0,0,0-0.1,0
	c0,0,0,0,0-0.1c0-0.1,0-0.1-0.1-0.1c0.1-0.1,0.1-0.2,0-0.3l0,0c0,0,0,0,0,0c0,0,0-0.1-0.1-0.1l0,0c0,0,0,0,0,0l0,0c0,0,0-0.1,0-0.1
	l0,0l0,0c0,0,0,0,0,0c0,0,0,0,0,0c0,0,0,0,0,0c0,0,0-0.1-0.1-0.1l0,0l0,0c0,0,0-0.1,0-0.1c0,0,0,0,0,0c0,0,0,0,0,0c0,0,0,0,0-0.1
	l0,0c0,0,0,0,0,0c0,0,0,0,0-0.1c0-0.1,0-0.2,0-0.2c0,0,0,0,0,0l0,0c0,0-0.1-0.3-0.1-0.3c0,0,0,0,0,0c0-0.1-0.1-0.1-0.1-0.2l0,0
	c0,0-0.1,0-0.1,0l0,0l0,0l0,0c0,0.1,0.1,0.1,0.1,0.1l0,0c0,0,0,0,0,0c0,0-0.1,0-0.1-0.1c0,0,0,0,0-0.1c0,0,0,0,0,0
	c0-0.1,0-0.1-0.1-0.2c0,0,0,0,0,0l0,0c0,0,0,0,0-0.1c0,0,0,0,0,0c0,0,0-0.1,0-0.1c0,0-0.1-0.1-0.1-0.1c0,0,0-0.1,0-0.1
	c0-0.1-0.2-0.1-0.2-0.1c0,0-0.1-0.2-0.1-0.2c-0.1-0.1-0.1,0-0.2-0.1c0,0,0,0,0,0c0,0,0-0.1,0-0.1c0,0-0.1-0.1-0.2-0.1
	c0,0,0-0.1-0.1-0.1c-0.1,0-0.1,0-0.1-0.1l0,0c0,0,0,0,0,0c0,0,0,0,0,0c0,0-0.1-0.1-0.1-0.1c0,0,0,0,0,0c0,0,0,0,0,0c0,0,0,0-0.1,0
	c0,0,0,0,0,0c0,0,0,0-0.1,0c0,0-0.2-0.2-0.2-0.2c0,0-0.1-0.1-0.1-0.1c0,0,0,0,0,0l0,0l0,0c0,0,0,0,0,0l0,0c0,0-0.1,0-0.1,0l0,0v0
	c0,0,0.1,0,0.1-0.1l0,0l0,0c0,0-0.1,0.1-0.1,0.1c0,0,0,0.1,0,0.1l0,0c0,0,0,0,0,0c0,0-0.2,0-0.2,0c0,0-0.1-0.1-0.1-0.1
	c0,0-0.1,0-0.1-0.1c0,0,0,0,0,0c0,0,0,0,0-0.1c0,0,0,0-0.1,0c0,0,0,0,0,0c0,0,0,0,0,0c0,0,0,0-0.1-0.1l0,0c0,0,0,0,0,0l0,0
	c0,0-0.1,0-0.1,0c0,0,0,0,0,0c0,0,0,0,0,0l0,0c-0.1,0.1-0.2-0.1-0.2-0.1c-0.1,0-0.1,0-0.1,0c0,0,0-0.1,0-0.1c0-0.1-0.1,0-0.1-0.1
	c0,0-0.1,0-0.1-0.1c0-0.1,0,0,0-0.1l0,0c0,0,0,0,0.1,0l0,0c0,0,0-0.1-0.1-0.1c0,0,0-0.1,0-0.1C9,25.1,9.1,25.1,9,25c0,0,0,0,0,0
	c-0.1,0-0.1-0.1-0.1-0.2c0,0,0-0.1-0.1-0.1c0,0,0,0,0,0l0,0c0,0,0,0,0,0c0,0-0.1-0.1-0.1-0.1c-0.1-0.1,0-0.1-0.1-0.1c0,0,0,0-0.1,0
	c0,0,0-0.1-0.1-0.2c0,0,0,0,0,0l0,0c0,0,0,0,0,0c0,0,0,0,0-0.1l0,0c0,0-0.1,0-0.1,0c0,0,0,0,0,0c0,0,0,0,0-0.1c0,0-0.1-0.1-0.1-0.1
	l0,0c0.1,0,0.1,0,0.1,0c0,0,0,0,0.1,0c0,0,0.1,0,0.1,0c0,0,0,0,0,0c0,0-0.1-0.2-0.1-0.2c0-0.1,0.2-0.2,0.1-0.3
	c0-0.1-0.1-0.1-0.1-0.2c0-0.1,0-0.1,0-0.1c0-0.1-0.1-0.2-0.1-0.3c0,0-0.1-0.1-0.1-0.1c0,0,0,0,0-0.1c0,0,0,0-0.1,0
	c0,0-0.2-0.2-0.2-0.2c0,0,0-0.1,0-0.1c0,0-0.1-0.1-0.1-0.1c0,0,0,0,0,0c0,0,0,0,0-0.1l0,0l0,0c0,0-0.1,0-0.1-0.1c0,0,0,0,0,0
	c0,0,0,0,0-0.1c0,0,0,0-0.1,0c0-0.1,0-0.1-0.1-0.1c0-0.1,0-0.1,0-0.2c-0.1-0.1,0-0.1-0.1-0.2c0-0.1-0.1-0.1-0.2-0.1
	c0,0,0-0.1-0.1-0.1c0,0,0,0,0,0h0c0,0,0,0,0,0c0,0,0,0,0,0l0,0l0,0C7,21,7,21,6.9,21c0,0,0,0,0-0.1c0,0,0,0,0,0c0,0,0-0.1,0-0.1l0,0
	c-0.1,0-0.1-0.1-0.1-0.2c0,0-0.1,0-0.1-0.1c0,0,0.1-0.1,0.1-0.1c0-0.1,0-0.1,0.1-0.2c0-0.1,0.1-0.1,0-0.2c0,0,0,0,0-0.1
	c0-0.1-0.3,0-0.3-0.1c0,0,0,0,0,0l0,0c0,0-0.1-0.1-0.1-0.1c0,0,0,0,0-0.1c0,0,0,0-0.1,0c0,0,0,0,0,0c0,0,0,0,0,0l0,0l0,0
	c0-0.1-0.1-0.1,0-0.2c0,0-0.1-0.2-0.1-0.2c0,0,0,0-0.1,0c0,0,0-0.1-0.1-0.2c0-0.1-0.1-0.1-0.1-0.2c0,0,0-0.1,0-0.1
	c-0.1-0.1,0-0.1-0.1-0.1c0,0,0,0,0-0.1c0-0.1,0-0.1-0.1-0.2c0,0,0-0.1,0-0.1c0,0,0,0,0,0c0,0,0-0.1,0-0.1c-0.1-0.1-0.1-0.1-0.2-0.2
	c0,0,0-0.1-0.1-0.1c0,0-0.1,0-0.1-0.1c0,0-0.1-0.1-0.1-0.2c0-0.1,0-0.1-0.1-0.2c0,0,0,0,0,0c0,0,0-0.1,0-0.1c0,0,0,0,0,0
	c0,0-0.1,0-0.1-0.1c0,0,0-0.1-0.1-0.1c0,0-0.1,0-0.1,0c0,0-0.1-0.1-0.1-0.1c0,0-0.1,0-0.1-0.1c0,0-0.2-0.3-0.2-0.3c0,0,0-0.1,0-0.1
	c0-0.1,0.1-0.1,0-0.2c0-0.1-0.2-0.2-0.2-0.3C4.1,16,4,16,3.9,15.9c-0.1,0-0.1-0.2-0.2-0.2c0,0,0,0-0.1-0.1c0,0,0,0,0-0.1
	c0,0,0,0,0,0c0,0-0.1-0.2-0.1-0.2c0,0,0,0,0-0.1c0,0,0-0.1,0-0.1c0,0,0-0.1,0-0.1C3.4,15,3.3,15,3.3,14.9c0,0,0,0,0-0.1c0,0,0,0,0,0
	c0-0.1,0-0.1-0.1-0.2c0,0-0.1,0-0.1-0.1c0-0.1,0-0.2-0.1-0.3c0,0-0.1-0.1-0.1-0.1c0,0,0-0.1,0-0.1c0,0-0.1,0-0.1,0c0,0-0.1,0-0.1,0
	c0,0-0.1,0-0.1,0l0,0c0,0,0,0-0.1,0c0,0,0,0,0,0c0,0,0,0,0,0c0.1,0,0.1,0,0.1,0c0,0,0,0,0,0c0,0,0,0,0,0c0,0,0,0-0.1-0.1
	c0,0-0.1,0-0.1,0c0,0,0,0,0,0c0,0,0,0,0,0l0,0c0,0,0,0,0,0c0,0,0,0,0,0c0,0-0.1,0-0.1,0c0,0,0,0,0,0c0,0-0.1-0.1-0.1-0.1
	c0,0,0-0.1-0.1,0c0,0,0,0-0.1,0c0,0-0.1,0,0,0c0,0,0,0,0,0l0,0c0,0,0,0,0,0c0,0,0,0,0,0c0,0,0,0,0,0c0,0,0,0,0,0c0,0-0.1,0-0.1,0
	c0,0-0.1,0-0.1,0l0,0c0,0,0,0,0,0c0,0-0.1,0-0.1,0.1c0,0,0,0,0,0c0,0,0,0-0.1,0c0,0,0,0-0.1,0c0,0,0,0,0,0c0,0,0,0,0,0l0,0
	c0,0,0,0,0,0l0,0c0,0,0,0,0,0h0c0,0,0,0,0,0c0,0,0,0,0,0c0,0,0,0,0,0c0,0,0,0,0-0.1c0,0,0.1,0,0.1,0c0,0,0,0-0.1,0c0,0,0,0,0,0l0,0
	c0,0,0,0,0,0c0,0,0,0,0,0c0,0,0,0,0,0c0,0,0,0,0,0c0,0,0,0,0,0c0,0,0,0,0,0l0,0c0,0,0,0,0,0c0,0,0,0,0,0c0,0,0,0,0,0c0,0,0,0,0,0
	c0,0,0,0-0.1,0c0,0,0,0,0,0c0,0,0,0,0,0c0,0,0,0,0,0c0,0,0,0,0,0c0,0,0,0,0,0c0,0,0,0,0,0l0,0l0,0l0,0c0,0,0,0,0,0c0,0,0,0,0,0
	c0,0,0,0,0,0c0,0,0,0,0,0c0,0,0,0,0,0c0,0,0,0,0,0c0,0,0,0,0,0c0,0,0,0,0,0c0,0,0,0,0,0.1c0,0-0.1,0-0.1,0.1c0,0,0.1,0.1,0,0.1
	c0,0,0,0,0,0c-0.1,0,0,0.1,0,0.1c0,0,0,0,0,0c0,0,0,0,0,0c0,0,0,0,0,0c0,0,0,0,0,0c0,0,0,0,0,0c0,0,0,0,0,0c0,0,0,0,0,0c0,0,0,0,0,0
	c0,0,0,0,0,0c0,0,0,0,0,0c0,0,0,0,0,0c0,0,0,0,0,0c0,0,0,0,0,0c0,0,0,0,0,0l0,0c0,0,0,0,0,0c0,0,0,0,0,0c0,0,0,0,0,0c0,0,0,0,0,0
	c0,0,0,0,0,0c0,0,0,0-0.1,0c0,0,0,0,0,0c0,0,0,0,0,0l0,0c0,0,0,0,0,0c0,0,0-0.1,0.1-0.1c0,0,0,0,0,0c0,0,0,0,0,0c0,0,0,0,0,0
	c0,0,0,0,0,0c0,0,0,0,0,0s0-0.1,0-0.1c0,0,0,0,0,0c0,0,0,0,0,0c0,0,0,0,0,0c0,0,0,0,0,0c0,0,0,0,0,0c0,0,0,0,0,0c0,0,0,0,0,0
	c0,0,0,0,0,0c0,0,0,0,0,0c0,0,0,0,0,0c0,0,0,0,0.1-0.1c0,0,0,0,0,0c0,0,0,0,0,0c0,0,0,0,0,0c0,0,0,0,0,0c0,0,0,0,0,0c0,0,0,0,0,0
	c0,0,0,0,0,0c0,0,0,0,0,0c0,0,0,0,0,0c0,0,0.1-0.1,0.1-0.1c0,0,0-0.1,0-0.1c0,0,0,0,0,0c0,0,0,0,0-0.1c0,0,0-0.1,0-0.1
	c0,0,0-0.1,0.1-0.1c0,0,0-0.1,0-0.1c0,0,0,0,0,0c0,0,0,0,0,0c0,0,0,0,0.1-0.1c0,0,0-0.1,0-0.1c0,0,0-0.1,0-0.1c0,0,0,0,0,0
	c0,0,0,0,0-0.1c0,0,0-0.1,0-0.1c0,0,0,0,0-0.1c0,0,0,0,0,0c0,0,0,0,0-0.1c0,0,0,0,0,0c0,0,0,0,0,0c0,0,0-0.1,0-0.1c0,0,0,0,0,0
	c0,0,0,0,0,0c0,0,0,0,0,0c0,0,0.1-0.1,0-0.1c0,0,0-0.1,0-0.1c0,0,0,0,0,0c0,0,0-0.1,0-0.1c0,0,0,0,0,0c0,0,0,0,0,0c0,0,0,0,0,0
	c0,0,0-0.1,0-0.1c0,0,0,0,0,0c0,0,0-0.1,0-0.1c0,0,0,0,0-0.1c0-0.1,0-0.1,0-0.1c0-0.1,0-0.1,0.1-0.1c0,0,0,0,0,0c0,0,0,0,0-0.1
	c0,0,0-0.1,0-0.1c0,0,0,0,0,0c0,0,0,0,0-0.1c0,0,0-0.1,0-0.1c0,0,0,0,0-0.1c0,0,0,0,0,0c0-0.1,0.1-0.1,0.1-0.1c0,0,0,0,0,0
	c0,0,0,0,0,0l0,0c0,0,0,0,0-0.1c0,0,0,0,0,0c0,0,0,0,0.1,0c0,0,0-0.1,0-0.1c0,0,0-0.1,0-0.1c0,0,0,0,0,0c0,0,0,0,0,0c0,0,0,0,0,0"/>
<path class="st1" d="M40.9,12.1L40.9,12.1c0,0,0.1,0.1,0.1,0.1c0,0,0.1,0,0.1,0c0,0,0,0.1,0,0.2c0,0,0,0.1,0.1,0.1
	c0,0,0,0.1-0.1,0.1l0,0c0,0,0,0,0,0c0,0,0,0,0,0c0,0,0,0,0,0c0.1,0,0.1,0,0.1-0.1l0,0l0,0c0,0,0,0.1-0.1,0.1c0,0.1,0,0.2,0.1,0.3
	c0,0,0.1,0.1,0.1,0.1c0,0,0,0,0,0c0,0,0.1,0.1,0.1,0.1l0,0c0,0,0,0-0.1,0.1c-0.1,0.3,0.1,0.4,0.1,0.4c0,0,0,0,0,0c0,0.1,0.1,0,0.1,0
	c0,0,0,0,0,0c0.1,0,0.1,0,0.2,0c0,0,0.1,0,0.1,0c0,0,0,0,0,0l0,0c0,0,0,0,0,0c0,0,0,0,0,0c0,0.1,0,0.1,0.1,0.1c0,0.1,0,0.1,0.1,0.1
	l0,0l0,0c0,0,0,0,0,0.1c0,0,0,0,0,0c0,0,0,0,0,0c0,0,0.1,0,0.1,0c0.1,0.1,0.1,0.1,0,0.2c0,0,0,0.1,0,0.1c0,0-0.1,0.1-0.1,0.1l0,0
	l0,0c0,0,0,0,0,0c0,0,0-0.1,0-0.1l0,0c0,0,0,0,0-0.1c0,0,0,0,0-0.1l0,0c0,0,0,0-0.1,0c0,0,0,0.1-0.1,0.2l0,0l0,0c0,0,0,0,0-0.1
	c0,0,0,0,0-0.1c0,0,0-0.1,0-0.1c-0.1,0-0.1,0.1-0.1,0.2c0,0,0,0,0,0.1c0,0,0,0,0,0.1c0,0,0,0.1,0,0.1l0,0l0,0c0.1,0,0-0.1,0.1-0.1
	l0,0c0,0,0,0.1,0,0.2c0,0,0,0,0,0c0,0,0,0,0-0.1l0,0c0,0,0,0.1,0,0.1l0,0c0,0,0.1-0.1,0.1-0.1l0,0c0,0,0,0.1,0,0.1l0,0c0,0,0,0,0,0
	l0,0c0,0,0,0,0,0l0,0c0,0-0.1,0-0.1,0c0,0,0,0,0,0c0,0,0.1,0,0.1,0c0,0,0-0.1,0.1-0.1l0,0l0,0l0,0c0,0-0.1,0.1,0,0.2c0,0,0,0,0.1,0
	c0,0,0,0,0,0c0,0,0,0,0,0l0,0c0,0,0.1-0.1,0.1-0.1c0,0,0,0,0.1,0c0.1,0,0.1,0.2,0.3,0.2l0,0c0,0.1,0,0,0,0.1c0,0,0.1,0,0.1,0l0,0
	l0,0l0,0c0,0,0.1,0,0.2,0c0,0,0.1,0,0.1,0c0,0,0.1,0,0.1,0c0,0,0.1,0,0.1,0c0,0,0,0.1,0.1,0.1c0,0,0.1,0,0.1,0c0,0,0,0.1,0,0.1
	c0,0,0,0-0.1,0c0,0,0,0,0-0.1h0c-0.1,0.1,0,0.1-0.1,0.1c0,0,0,0-0.1,0c0,0,0,0-0.1,0l0,0c0,0,0,0-0.1,0.1c0,0,0,0,0,0c0,0,0,0,0,0
	c-0.1,0,0,0-0.1,0.1l0,0l0,0l0,0c0,0,0,0,0,0l0,0c0,0,0,0,0,0c0.1,0,0.1,0.1,0.2,0.1c0,0,0,0,0,0c0,0,0,0,0.1,0c0,0,0-0.1,0-0.1l0,0
	l0,0c0,0,0,0,0,0c0,0,0,0.1-0.1,0.1l0,0l0,0c0,0,0,0.1,0,0.1c0,0,0,0,0,0.1l0,0c0.1-0.1,0.1-0.1,0.2-0.1l0,0c0,0,0,0,0,0
	c0,0.1,0,0.1,0,0.2c0,0,0,0.1,0,0.1c0,0,0,0,0,0.1c0,0,0,0.1,0,0.1l0,0l0,0l0,0c0,0,0,0.1,0,0.1l0,0l0,0c0.1-0.1,0-0.1,0.1-0.1l0,0
	c0,0,0,0,0,0c0,0,0,0,0,0l0,0c0,0,0,0.1,0,0.1l0,0l0,0l0,0l0,0l0,0c0,0,0,0-0.1,0l0,0l0,0c0,0,0.1,0,0.1,0c0,0,0,0,0,0l0,0
	c0,0,0-0.1,0.1-0.1l0,0c0,0,0,0.1,0,0.1c0,0,0.1,0,0.1,0c0,0,0.1,0.1,0.1,0.1l0,0l0,0c0,0-0.1,0-0.1-0.1c0,0,0-0.1,0.1-0.1
	c0,0,0,0,0,0l0,0c0,0,0,0,0.1-0.1l0,0c0,0-0.1,0.1-0.1,0.1c0,0,0.1,0.2,0.1,0.2c0,0,0.1,0,0.1,0c0,0,0,0,0,0c0,0,0,0,0,0
	c0,0,0,0.1,0,0.1c0,0,0,0,0.1,0.1c0,0,0,0.1,0,0.1c0.1,0.1,0.1,0.1,0.2,0.1c0,0,0.1,0.1,0.1,0.1c0,0,0.1,0,0.1,0c0,0,0,0,0.1,0
	c0,0,0,0,0.1,0.1c0,0,0.2,0,0.2,0c0.1,0,0.2,0.2,0.2,0.3c0,0,0,0,0,0c0,0,0,0.1,0.1,0.1c0.1,0.1,0.3,0.1,0.3,0.3l0,0l0,0
	c0,0-0.1-0.1-0.1-0.1c0,0-0.1,0-0.1,0l0,0c0,0,0,0-0.1,0l0,0c0,0,0,0-0.1-0.1c0,0,0-0.1,0-0.1c0,0,0,0,0,0l0,0c0,0.1-0.1,0.2,0,0.2
	c0,0,0.1,0,0.1,0.1c0,0,0,0.1,0,0.1c0,0,0,0,0,0.1c0,0,0,0,0,0c0,0,0,0.1,0,0.1c0,0,0.1,0.3,0.1,0.3c0,0.1,0.1,0.1,0.2,0.1
	c0,0,0.1,0,0.1,0c0,0,0.1,0,0.1,0c0,0,0,0.1,0,0.1c0,0,0.1,0,0.1,0.1c0,0,0,0.1,0,0.1c0,0,0,0.1,0,0.1c0,0,0,0.1,0,0.1
	c0,0.1,0,0.2-0.1,0.4l0,0l0-0.1c0,0,0,0,0,0c0,0,0,0,0,0c0,0,0,0.1,0,0.1c0,0,0,0,0,0.1c0,0,0,0,0,0.1c0,0,0,0.1,0,0.1
	c0,0,0,0.1,0,0.1c0,0,0,0,0,0l0,0c0,0,0,0,0,0c0,0,0,0,0,0c0,0,0-0.1,0-0.1c0-0.1-0.1-0.1-0.1-0.1c0-0.1,0-0.1-0.1-0.2
	c0,0,0,0-0.1,0c0,0,0,0,0,0c0,0.1-0.1,0.1-0.1,0.1c0,0,0,0,0,0c0,0,0,0,0,0.1c0,0,0.1,0.1,0,0.1c0,0,0,0-0.1,0c0,0,0,0.1,0,0.1
	c0,0,0,0.1,0,0.1l0,0c0,0,0,0,0,0c0,0,0,0,0,0c0,0,0-0.1,0-0.1l0,0l0,0c0,0,0,0.1,0,0.1c0,0,0,0,0,0l0,0c0,0,0,0,0,0
	c0,0,0.1,0,0.1,0c0.1,0,0,0.1,0.1,0.1c0,0,0,0,0,0.1l0,0c0,0,0,0,0,0c0,0,0,0.1,0,0.1c0,0,0,0.1,0,0.1c0,0,0.1,0.2,0.1,0.2
	c0,0,0.1,0.1,0.1,0.1c0,0,0,0,0,0.1c0,0,0.1,0,0.1,0.1c0,0,0,0.1,0.1,0.1c0,0.1,0.1,0.1,0.1,0.2c0,0,0,0,0,0.1l0,0c0,0,0,0,0-0.1
	l0,0l0,0c0-0.1,0-0.1-0.1-0.1c0,0,0,0,0,0c0,0,0,0,0,0c0,0,0,0,0-0.1l0,0c0,0,0-0.1-0.1,0l0,0c0,0.1,0,0.1,0.1,0.1c0,0,0,0,0,0
	c0,0,0,0,0,0l0,0c0,0,0,0,0,0c0,0,0,0,0,0.1c0,0,0,0,0,0.1c0,0,0.1,0.1,0.1,0.1c0,0,0,0,0,0.1c0,0,0.1,0,0.1,0.1c0,0,0,0.1,0,0.1
	c0,0,0.1,0,0.1,0.1c0,0,0,0,0,0.1c0,0,0,0,0,0l0,0l0,0l0,0c0,0,0-0.1,0-0.1c0,0,0-0.1,0.1-0.1c0,0,0,0.1,0,0.1l0,0
	c0,0,0.1,0,0.1,0.1c0,0,0,0,0,0c0,0,0.1,0,0.1,0c0,0,0.1,0.1,0.1,0.1c0,0,0,0.1,0,0.1c0,0,0,0,0,0.1c0,0,0,0.1,0,0.1
	c0,0,0,0.1,0,0.1c0,0,0,0,0,0c0,0.1,0,0.1,0,0.2c0,0.1,0.1,0.1,0.1,0.2c0,0.1-0.1,0.2,0,0.2c0,0.1,0,0.1,0,0.2l0,0l0,0c0,0,0,0,0,0
	c0,0,0,0,0,0c0.1,0,0.2,0.3,0.3,0.4c0,0,0,0.1,0,0.1c0,0,0.1,0,0.1,0c0,0,0.1,0.1,0.1,0.1c0,0,0,0.1,0,0.1c0,0,0,0.1,0,0.1
	c0,0,0,0.1,0,0.1c0,0,0,0.1,0.1,0.1c0,0,0,0.1,0,0.1c0,0,0.1-0.1,0.1-0.1c0,0,0,0,0.1,0"/>
<path class="st1" d="M49.6,24.6L49.6,24.6C49.6,24.7,49.6,24.7,49.6,24.6L49.6,24.6c0.1,0,0.1,0,0.1,0l0,0l0,0c0,0,0,0.1,0,0.1l0,0
	l0,0c0,0,0,0,0,0l0,0c0,0,0,0,0.1,0.1l0,0c0,0,0,0-0.1,0c0,0-0.1,0-0.1,0c0,0,0,0,0,0.1l0,0l0,0c0,0,0,0,0,0.1
	c0,0.1-0.2,0.2-0.3,0.3c-0.1,0.1,0,0.3-0.1,0.3c0,0,0,0,0,0c0,0,0,0.2,0.1,0.2c0,0,0.1,0,0.2,0c0.1,0,0-0.1,0.2-0.1c0,0,0,0,0.1,0
	c0,0,0,0,0.1,0c0.1,0,0.1,0.2,0.2,0.2c0,0,0,0,0,0"/>
</svg>
